G75*
%MOIN*%
%OFA0B0*%
%FSLAX24Y24*%
%IPPOS*%
%LPD*%
%AMOC8*
5,1,8,0,0,1.08239X$1,22.5*
%
%ADD10C,0.0673*%
%ADD11C,0.0620*%
%ADD12R,0.0591X0.0512*%
%ADD13R,0.0634X0.0634*%
%ADD14C,0.0634*%
%ADD15R,0.1266X0.1266*%
%ADD16C,0.0787*%
%ADD17C,0.0680*%
%ADD18C,0.0160*%
%ADD19C,0.0320*%
%ADD20C,0.0240*%
%ADD21R,0.0436X0.0436*%
%ADD22C,0.1660*%
D10*
X045180Y005371D03*
X045180Y006552D03*
X051180Y006552D03*
X051180Y005371D03*
X051180Y009899D03*
X045180Y009899D03*
D11*
X013930Y009930D03*
X012930Y009930D03*
X011930Y009930D03*
X010930Y009930D03*
X009930Y009930D03*
X008930Y009930D03*
X007930Y009930D03*
X006930Y009930D03*
X005930Y009930D03*
X004930Y009930D03*
X003930Y009930D03*
X002930Y009930D03*
X001930Y009930D03*
X000930Y009930D03*
X000930Y003930D03*
X001930Y003930D03*
X002930Y003930D03*
X003930Y003930D03*
X004930Y003930D03*
X005930Y003930D03*
X006930Y003930D03*
X007930Y003930D03*
X008930Y003930D03*
X009930Y003930D03*
X010930Y003930D03*
X011930Y003930D03*
X012930Y003930D03*
X013930Y003930D03*
X013930Y004930D03*
D12*
X016180Y006556D03*
X016180Y007304D03*
X016180Y008306D03*
X016180Y009054D03*
X002930Y006054D03*
X002930Y005306D03*
D13*
X017680Y006180D03*
X036196Y004977D03*
X037180Y004977D03*
X038164Y004977D03*
X038164Y010686D03*
X036196Y010686D03*
D14*
X017680Y009180D03*
X017680Y008180D03*
X017680Y007180D03*
D15*
X034778Y007930D03*
X039582Y007930D03*
D16*
X038672Y025690D03*
X040672Y025690D03*
X042672Y025690D03*
X044672Y025690D03*
X046672Y025690D03*
X048672Y025690D03*
X050672Y025690D03*
X052672Y025690D03*
X036672Y025690D03*
X034672Y025690D03*
X032672Y025690D03*
X030672Y025690D03*
X028672Y025690D03*
X026672Y025690D03*
X024672Y025690D03*
X022672Y025690D03*
X020672Y025690D03*
X018672Y025690D03*
X016672Y025690D03*
X014672Y025690D03*
X012672Y025690D03*
X010672Y025690D03*
X008672Y025690D03*
X006672Y025690D03*
X002170Y022172D03*
X002170Y020172D03*
D17*
X005055Y019180D03*
X005055Y023180D03*
D18*
X000893Y000893D02*
X001212Y000639D01*
X001579Y000462D01*
X001976Y000371D01*
X002180Y000360D01*
X056180Y000360D01*
X056384Y000371D01*
X056781Y000462D01*
X057148Y000639D01*
X057467Y000893D01*
X057721Y001212D01*
X057898Y001579D01*
X057989Y001976D01*
X058000Y002180D01*
X058000Y025676D01*
X057989Y025880D01*
X057898Y026277D01*
X057720Y026645D01*
X057465Y026964D01*
X057146Y027218D01*
X056778Y027394D01*
X056380Y027484D01*
X056176Y027496D01*
X056156Y027495D01*
X002070Y027374D01*
X002046Y027374D01*
X001826Y027359D01*
X001401Y027245D01*
X001019Y027024D01*
X000708Y026712D01*
X000488Y026330D01*
X000374Y025904D01*
X000360Y025684D01*
X000360Y002180D01*
X000371Y001976D01*
X000462Y001579D01*
X000639Y001212D01*
X000893Y000893D01*
X000830Y000973D02*
X057530Y000973D01*
X057657Y001131D02*
X000703Y001131D01*
X000601Y001290D02*
X001743Y001290D01*
X001619Y001341D02*
X001983Y001190D01*
X002377Y001190D01*
X002741Y001341D01*
X003019Y001619D01*
X003170Y001983D01*
X003170Y002377D01*
X003019Y002741D01*
X002741Y003019D01*
X002377Y003170D01*
X001983Y003170D01*
X001619Y003019D01*
X001341Y002741D01*
X001190Y002377D01*
X001190Y001983D01*
X001341Y001619D01*
X001619Y001341D01*
X001512Y001448D02*
X000525Y001448D01*
X000456Y001607D02*
X001354Y001607D01*
X001280Y001765D02*
X000420Y001765D01*
X000383Y001924D02*
X001215Y001924D01*
X001190Y002082D02*
X000366Y002082D01*
X000360Y002241D02*
X001190Y002241D01*
X001199Y002399D02*
X000360Y002399D01*
X000360Y002558D02*
X001265Y002558D01*
X001331Y002716D02*
X000360Y002716D01*
X000360Y002875D02*
X001475Y002875D01*
X001653Y003033D02*
X000360Y003033D01*
X000360Y003192D02*
X058000Y003192D01*
X058000Y003350D02*
X000360Y003350D01*
X000360Y003509D02*
X000719Y003509D01*
X000664Y003532D02*
X000837Y003460D01*
X001023Y003460D01*
X001196Y003532D01*
X001328Y003664D01*
X001400Y003837D01*
X001400Y004023D01*
X001328Y004196D01*
X001250Y004275D01*
X001250Y006547D01*
X002701Y007999D01*
X002750Y008116D01*
X002750Y008610D01*
X014494Y008610D01*
X014611Y008659D01*
X014701Y008749D01*
X015201Y009249D01*
X015250Y009366D01*
X015250Y009547D01*
X015563Y009860D01*
X018047Y009860D01*
X018360Y009547D01*
X018360Y007563D01*
X018297Y007500D01*
X018034Y007500D01*
X017950Y007584D01*
X017775Y007657D01*
X017585Y007657D01*
X017410Y007584D01*
X017276Y007450D01*
X017250Y007388D01*
X017250Y007797D01*
X017313Y007860D01*
X017326Y007860D01*
X017410Y007776D01*
X017585Y007703D01*
X017775Y007703D01*
X017950Y007776D01*
X018084Y007910D01*
X018157Y008085D01*
X018157Y008275D01*
X018084Y008450D01*
X017950Y008584D01*
X017775Y008657D01*
X017585Y008657D01*
X017410Y008584D01*
X017326Y008500D01*
X017116Y008500D01*
X016999Y008451D01*
X016749Y008201D01*
X016659Y008111D01*
X016635Y008055D01*
X016635Y008628D01*
X016583Y008680D01*
X016635Y008732D01*
X016635Y008860D01*
X017326Y008860D01*
X017410Y008776D01*
X017585Y008703D01*
X017775Y008703D01*
X017950Y008776D01*
X018084Y008910D01*
X018157Y009085D01*
X018157Y009275D01*
X018084Y009450D01*
X017950Y009584D01*
X017775Y009657D01*
X017585Y009657D01*
X017410Y009584D01*
X017326Y009500D01*
X016367Y009500D01*
X016325Y009506D01*
X016304Y009500D01*
X016282Y009500D01*
X016243Y009484D01*
X016202Y009473D01*
X016198Y009470D01*
X015818Y009470D01*
X015725Y009376D01*
X015725Y009250D01*
X015616Y009250D01*
X015499Y009201D01*
X015409Y009111D01*
X014797Y008500D01*
X014022Y008500D01*
X013964Y008558D01*
X013396Y008558D01*
X013302Y008464D01*
X013302Y007896D01*
X013396Y007802D01*
X013964Y007802D01*
X014022Y007860D01*
X014994Y007860D01*
X015111Y007909D01*
X015725Y008522D01*
X015725Y007984D01*
X015818Y007890D01*
X015860Y007890D01*
X015860Y007720D01*
X015818Y007720D01*
X015725Y007626D01*
X015725Y007500D01*
X005366Y007500D01*
X005249Y007451D01*
X005159Y007361D01*
X004409Y006611D01*
X004360Y006494D01*
X004360Y006063D01*
X003923Y005626D01*
X003385Y005626D01*
X003385Y005628D01*
X003348Y005666D01*
X003369Y005688D01*
X003393Y005729D01*
X003405Y005774D01*
X003405Y006006D01*
X002978Y006006D01*
X002978Y006102D01*
X003405Y006102D01*
X003405Y006334D01*
X003393Y006379D01*
X003369Y006420D01*
X003336Y006454D01*
X003295Y006478D01*
X003249Y006490D01*
X002978Y006490D01*
X002978Y006102D01*
X002882Y006102D01*
X002882Y006006D01*
X002455Y006006D01*
X002455Y005774D01*
X002467Y005729D01*
X002491Y005688D01*
X002512Y005666D01*
X002475Y005628D01*
X002475Y004984D01*
X002568Y004890D01*
X002610Y004890D01*
X002610Y004275D01*
X002532Y004196D01*
X002460Y004023D01*
X002460Y003837D01*
X002532Y003664D01*
X002664Y003532D01*
X002837Y003460D01*
X003023Y003460D01*
X003196Y003532D01*
X003328Y003664D01*
X003400Y003837D01*
X003400Y004023D01*
X003328Y004196D01*
X003250Y004275D01*
X003250Y004890D01*
X003292Y004890D01*
X003385Y004984D01*
X003385Y004986D01*
X004120Y004986D01*
X004237Y005035D01*
X004861Y005659D01*
X004951Y005749D01*
X005000Y005866D01*
X005000Y006297D01*
X005563Y006860D01*
X015725Y006860D01*
X015725Y006750D01*
X008366Y006750D01*
X008249Y006701D01*
X008159Y006611D01*
X007659Y006111D01*
X007610Y005994D01*
X007610Y004275D01*
X007532Y004196D01*
X007460Y004023D01*
X007460Y003837D01*
X007532Y003664D01*
X007664Y003532D01*
X007837Y003460D01*
X008023Y003460D01*
X008196Y003532D01*
X008328Y003664D01*
X008400Y003837D01*
X008400Y004023D01*
X008328Y004196D01*
X008250Y004275D01*
X008250Y005797D01*
X008563Y006110D01*
X015993Y006110D01*
X016035Y006104D01*
X016056Y006110D01*
X016078Y006110D01*
X016117Y006126D01*
X016158Y006137D01*
X016162Y006140D01*
X016542Y006140D01*
X016635Y006234D01*
X016635Y006360D01*
X016744Y006360D01*
X016861Y006409D01*
X016951Y006499D01*
X017201Y006749D01*
X017250Y006866D01*
X017250Y006972D01*
X017276Y006910D01*
X017410Y006776D01*
X017585Y006703D01*
X017775Y006703D01*
X017950Y006776D01*
X018034Y006860D01*
X018494Y006860D01*
X018611Y006909D01*
X018861Y007159D01*
X018951Y007249D01*
X019000Y007366D01*
X019000Y009360D01*
X029662Y009360D01*
X029708Y009355D01*
X029725Y009360D01*
X029744Y009360D01*
X029786Y009378D01*
X029830Y009390D01*
X029844Y009402D01*
X029861Y009409D01*
X029894Y009441D01*
X030970Y010302D01*
X031214Y010302D01*
X031308Y010396D01*
X031308Y010964D01*
X031214Y011058D01*
X030646Y011058D01*
X030552Y010964D01*
X030552Y010787D01*
X029568Y010000D01*
X018813Y010000D01*
X018361Y010451D01*
X018244Y010500D01*
X015366Y010500D01*
X015249Y010451D01*
X014749Y009951D01*
X014659Y009861D01*
X014610Y009744D01*
X014610Y009563D01*
X014297Y009250D01*
X002750Y009250D01*
X002750Y009494D01*
X002749Y009496D01*
X002837Y009460D01*
X003023Y009460D01*
X003196Y009532D01*
X003328Y009664D01*
X003400Y009837D01*
X003400Y010023D01*
X003328Y010196D01*
X003196Y010328D01*
X003023Y010400D01*
X002837Y010400D01*
X002670Y010331D01*
X002670Y010467D01*
X002861Y010659D01*
X002951Y010749D01*
X003000Y010866D01*
X003000Y011088D01*
X003058Y011146D01*
X003058Y011714D01*
X002964Y011808D01*
X002396Y011808D01*
X002302Y011714D01*
X002302Y011146D01*
X002360Y011088D01*
X002360Y011063D01*
X002159Y010861D01*
X002110Y010744D01*
X002110Y010616D01*
X002159Y010499D01*
X002190Y010467D01*
X002190Y010331D01*
X002023Y010400D01*
X001837Y010400D01*
X001664Y010328D01*
X001532Y010196D01*
X001460Y010023D01*
X001460Y009837D01*
X001532Y009664D01*
X001664Y009532D01*
X001837Y009460D01*
X002023Y009460D01*
X002111Y009496D01*
X002110Y009494D01*
X002110Y008313D01*
X000749Y006951D01*
X000659Y006861D01*
X000610Y006744D01*
X000610Y004275D01*
X000532Y004196D01*
X000460Y004023D01*
X000460Y003837D01*
X000532Y003664D01*
X000664Y003532D01*
X000530Y003667D02*
X000360Y003667D01*
X000360Y003826D02*
X000465Y003826D01*
X000460Y003984D02*
X000360Y003984D01*
X000360Y004143D02*
X000509Y004143D01*
X000610Y004301D02*
X000360Y004301D01*
X000360Y004460D02*
X000610Y004460D01*
X000610Y004618D02*
X000360Y004618D01*
X000360Y004777D02*
X000610Y004777D01*
X000610Y004935D02*
X000360Y004935D01*
X000360Y005094D02*
X000610Y005094D01*
X000610Y005252D02*
X000360Y005252D01*
X000360Y005411D02*
X000610Y005411D01*
X000610Y005569D02*
X000360Y005569D01*
X000360Y005728D02*
X000610Y005728D01*
X000610Y005886D02*
X000360Y005886D01*
X000360Y006045D02*
X000610Y006045D01*
X000610Y006203D02*
X000360Y006203D01*
X000360Y006362D02*
X000610Y006362D01*
X000610Y006520D02*
X000360Y006520D01*
X000360Y006679D02*
X000610Y006679D01*
X000649Y006837D02*
X000360Y006837D01*
X000360Y006996D02*
X000793Y006996D01*
X000749Y006951D02*
X000749Y006951D01*
X000951Y007154D02*
X000360Y007154D01*
X000360Y007313D02*
X001110Y007313D01*
X001268Y007471D02*
X000360Y007471D01*
X000360Y007630D02*
X001427Y007630D01*
X001585Y007788D02*
X000360Y007788D01*
X000360Y007947D02*
X001744Y007947D01*
X001902Y008105D02*
X000360Y008105D01*
X000360Y008264D02*
X002061Y008264D01*
X002110Y008422D02*
X000360Y008422D01*
X000360Y008581D02*
X002110Y008581D01*
X002110Y008739D02*
X000360Y008739D01*
X000360Y008898D02*
X002110Y008898D01*
X002110Y009056D02*
X000360Y009056D01*
X000360Y009215D02*
X002110Y009215D01*
X002110Y009373D02*
X000360Y009373D01*
X000360Y009532D02*
X000645Y009532D01*
X000673Y009511D02*
X000742Y009476D01*
X000815Y009452D01*
X000891Y009440D01*
X000915Y009440D01*
X000915Y009915D01*
X000440Y009915D01*
X000440Y009891D01*
X000452Y009815D01*
X000476Y009742D01*
X000511Y009673D01*
X000556Y009611D01*
X000611Y009556D01*
X000673Y009511D01*
X000915Y009532D02*
X000945Y009532D01*
X000945Y009440D02*
X000969Y009440D01*
X001045Y009452D01*
X001118Y009476D01*
X001187Y009511D01*
X001249Y009556D01*
X001304Y009611D01*
X001349Y009673D01*
X001384Y009742D01*
X001408Y009815D01*
X001420Y009891D01*
X001420Y009915D01*
X000945Y009915D01*
X000945Y009945D01*
X000915Y009945D01*
X000915Y010420D01*
X000891Y010420D01*
X000815Y010408D01*
X000742Y010384D01*
X000673Y010349D01*
X000611Y010304D01*
X000556Y010249D01*
X000511Y010187D01*
X000476Y010118D01*
X000452Y010045D01*
X000440Y009969D01*
X000440Y009945D01*
X000915Y009945D01*
X000915Y009915D01*
X000945Y009915D01*
X000945Y009440D01*
X000945Y009690D02*
X000915Y009690D01*
X000915Y009849D02*
X000945Y009849D01*
X000945Y009945D02*
X001420Y009945D01*
X001420Y009969D01*
X001408Y010045D01*
X001384Y010118D01*
X001349Y010187D01*
X001304Y010249D01*
X001249Y010304D01*
X001187Y010349D01*
X001118Y010384D01*
X001045Y010408D01*
X000969Y010420D01*
X000945Y010420D01*
X000945Y009945D01*
X000945Y010007D02*
X000915Y010007D01*
X000915Y010166D02*
X000945Y010166D01*
X000945Y010324D02*
X000915Y010324D01*
X000639Y010324D02*
X000360Y010324D01*
X000360Y010166D02*
X000500Y010166D01*
X000446Y010007D02*
X000360Y010007D01*
X000360Y009849D02*
X000447Y009849D01*
X000502Y009690D02*
X000360Y009690D01*
X001215Y009532D02*
X001664Y009532D01*
X001521Y009690D02*
X001358Y009690D01*
X001413Y009849D02*
X001460Y009849D01*
X001460Y010007D02*
X001414Y010007D01*
X001360Y010166D02*
X001519Y010166D01*
X001659Y010324D02*
X001221Y010324D01*
X000360Y010483D02*
X002175Y010483D01*
X002110Y010641D02*
X000360Y010641D01*
X000360Y010800D02*
X002133Y010800D01*
X002255Y010958D02*
X000360Y010958D01*
X000360Y011117D02*
X002331Y011117D01*
X002302Y011275D02*
X000360Y011275D01*
X000360Y011434D02*
X002302Y011434D01*
X002302Y011592D02*
X000360Y011592D01*
X000360Y011751D02*
X002338Y011751D01*
X003022Y011751D02*
X012613Y011751D01*
X012610Y011744D02*
X012610Y010275D01*
X012532Y010196D01*
X012460Y010023D01*
X012460Y009837D01*
X012532Y009664D01*
X012664Y009532D01*
X012837Y009460D01*
X013023Y009460D01*
X013196Y009532D01*
X013328Y009664D01*
X013400Y009837D01*
X013400Y010023D01*
X013328Y010196D01*
X013250Y010275D01*
X013250Y011547D01*
X014563Y012860D01*
X041244Y012860D01*
X044157Y012860D01*
X044047Y012750D02*
X014866Y012750D01*
X014749Y012701D01*
X014659Y012611D01*
X013659Y011611D01*
X013610Y011494D01*
X013610Y010275D01*
X013532Y010196D01*
X013460Y010023D01*
X013460Y009837D01*
X013532Y009664D01*
X013664Y009532D01*
X013837Y009460D01*
X014023Y009460D01*
X014196Y009532D01*
X014328Y009664D01*
X014400Y009837D01*
X014400Y010023D01*
X014328Y010196D01*
X014250Y010275D01*
X014250Y011297D01*
X015063Y012110D01*
X044244Y012110D01*
X044361Y012159D01*
X046254Y014052D01*
X046464Y014052D01*
X046558Y014146D01*
X046558Y014714D01*
X046464Y014808D01*
X045896Y014808D01*
X045802Y014714D01*
X045802Y014504D01*
X044047Y012750D01*
X044316Y013019D02*
X041471Y013019D01*
X041361Y012909D02*
X042254Y013802D01*
X042464Y013802D01*
X042558Y013896D01*
X042558Y014464D01*
X042464Y014558D01*
X041896Y014558D01*
X041802Y014464D01*
X041802Y014254D01*
X041047Y013500D01*
X014366Y013500D01*
X014249Y013451D01*
X014159Y013361D01*
X012659Y011861D01*
X012610Y011744D01*
X012610Y011592D02*
X003058Y011592D01*
X003058Y011434D02*
X012610Y011434D01*
X012610Y011275D02*
X003058Y011275D01*
X003029Y011117D02*
X012610Y011117D01*
X012610Y010958D02*
X003000Y010958D01*
X002972Y010800D02*
X012610Y010800D01*
X012610Y010641D02*
X002844Y010641D01*
X002685Y010483D02*
X012610Y010483D01*
X012610Y010324D02*
X012201Y010324D01*
X012196Y010328D02*
X012023Y010400D01*
X011837Y010400D01*
X011664Y010328D01*
X011532Y010196D01*
X011460Y010023D01*
X011460Y009837D01*
X011532Y009664D01*
X011664Y009532D01*
X011837Y009460D01*
X012023Y009460D01*
X012196Y009532D01*
X012328Y009664D01*
X012400Y009837D01*
X012400Y010023D01*
X012328Y010196D01*
X012196Y010328D01*
X012341Y010166D02*
X012519Y010166D01*
X012460Y010007D02*
X012400Y010007D01*
X012400Y009849D02*
X012460Y009849D01*
X012521Y009690D02*
X012339Y009690D01*
X012196Y009532D02*
X012664Y009532D01*
X013196Y009532D02*
X013664Y009532D01*
X013521Y009690D02*
X013339Y009690D01*
X013400Y009849D02*
X013460Y009849D01*
X013460Y010007D02*
X013400Y010007D01*
X013341Y010166D02*
X013519Y010166D01*
X013610Y010324D02*
X013250Y010324D01*
X013250Y010483D02*
X013610Y010483D01*
X013610Y010641D02*
X013250Y010641D01*
X013250Y010800D02*
X013610Y010800D01*
X013610Y010958D02*
X013250Y010958D01*
X013250Y011117D02*
X013610Y011117D01*
X013610Y011275D02*
X013250Y011275D01*
X013250Y011434D02*
X013610Y011434D01*
X013651Y011592D02*
X013295Y011592D01*
X013453Y011751D02*
X013798Y011751D01*
X013956Y011909D02*
X013612Y011909D01*
X013770Y012068D02*
X014115Y012068D01*
X014273Y012226D02*
X013929Y012226D01*
X014087Y012385D02*
X014432Y012385D01*
X014590Y012543D02*
X014246Y012543D01*
X014404Y012702D02*
X014749Y012702D01*
X014659Y012611D02*
X014659Y012611D01*
X015020Y012068D02*
X058000Y012068D01*
X058000Y012226D02*
X044429Y012226D01*
X044587Y012385D02*
X058000Y012385D01*
X058000Y012543D02*
X044746Y012543D01*
X044904Y012702D02*
X058000Y012702D01*
X058000Y012860D02*
X045063Y012860D01*
X045221Y013019D02*
X058000Y013019D01*
X058000Y013177D02*
X045380Y013177D01*
X045538Y013336D02*
X058000Y013336D01*
X058000Y013494D02*
X045697Y013494D01*
X045855Y013653D02*
X058000Y013653D01*
X058000Y013811D02*
X046014Y013811D01*
X046172Y013970D02*
X058000Y013970D01*
X058000Y014128D02*
X046541Y014128D01*
X046558Y014287D02*
X058000Y014287D01*
X058000Y014445D02*
X046558Y014445D01*
X046558Y014604D02*
X058000Y014604D01*
X058000Y014762D02*
X046510Y014762D01*
X045850Y014762D02*
X000360Y014762D01*
X000360Y014604D02*
X045802Y014604D01*
X045742Y014445D02*
X042558Y014445D01*
X042558Y014287D02*
X045584Y014287D01*
X045425Y014128D02*
X042558Y014128D01*
X042558Y013970D02*
X045267Y013970D01*
X045108Y013811D02*
X042474Y013811D01*
X042105Y013653D02*
X044950Y013653D01*
X044791Y013494D02*
X041947Y013494D01*
X041788Y013336D02*
X044633Y013336D01*
X044474Y013177D02*
X041630Y013177D01*
X041361Y012909D02*
X041244Y012860D01*
X041200Y013653D02*
X000360Y013653D01*
X000360Y013811D02*
X041358Y013811D01*
X041517Y013970D02*
X000360Y013970D01*
X000360Y014128D02*
X041675Y014128D01*
X041802Y014287D02*
X000360Y014287D01*
X000360Y014445D02*
X041802Y014445D01*
X038592Y011147D02*
X038551Y011170D01*
X038505Y011183D01*
X038183Y011183D01*
X038183Y010704D01*
X038661Y010704D01*
X038661Y011026D01*
X038649Y011072D01*
X038625Y011113D01*
X038592Y011147D01*
X038622Y011117D02*
X058000Y011117D01*
X058000Y011275D02*
X014250Y011275D01*
X014250Y011117D02*
X035766Y011117D01*
X035813Y011163D02*
X035719Y011069D01*
X035719Y010303D01*
X035813Y010209D01*
X036579Y010209D01*
X036673Y010303D01*
X036673Y011069D01*
X036579Y011163D01*
X035813Y011163D01*
X035719Y010958D02*
X031308Y010958D01*
X031308Y010800D02*
X035719Y010800D01*
X035719Y010641D02*
X031308Y010641D01*
X031308Y010483D02*
X035719Y010483D01*
X035719Y010324D02*
X031237Y010324D01*
X030799Y010166D02*
X044753Y010166D01*
X044759Y010180D02*
X044683Y009997D01*
X044683Y009800D01*
X044759Y009617D01*
X044899Y009478D01*
X045081Y009402D01*
X045279Y009402D01*
X045461Y009478D01*
X045601Y009617D01*
X045677Y009800D01*
X045677Y009997D01*
X045601Y010180D01*
X045461Y010319D01*
X045279Y010395D01*
X045081Y010395D01*
X044899Y010319D01*
X044759Y010180D01*
X044688Y010007D02*
X030601Y010007D01*
X030403Y009849D02*
X044683Y009849D01*
X044729Y009690D02*
X030205Y009690D01*
X030007Y009532D02*
X044845Y009532D01*
X045515Y009532D02*
X050845Y009532D01*
X050899Y009478D02*
X051081Y009402D01*
X051279Y009402D01*
X051461Y009478D01*
X051601Y009617D01*
X051677Y009800D01*
X051677Y009997D01*
X051601Y010180D01*
X051461Y010319D01*
X051279Y010395D01*
X051081Y010395D01*
X050899Y010319D01*
X050759Y010180D01*
X050683Y009997D01*
X050683Y009800D01*
X050759Y009617D01*
X050899Y009478D01*
X050729Y009690D02*
X045631Y009690D01*
X045677Y009849D02*
X050683Y009849D01*
X050688Y010007D02*
X045672Y010007D01*
X045607Y010166D02*
X050753Y010166D01*
X050910Y010324D02*
X045450Y010324D01*
X044910Y010324D02*
X038655Y010324D01*
X038661Y010345D02*
X038661Y010667D01*
X038183Y010667D01*
X038183Y010704D01*
X038146Y010704D01*
X038146Y010667D01*
X038183Y010667D01*
X038183Y010189D01*
X038505Y010189D01*
X038551Y010201D01*
X038592Y010225D01*
X038625Y010259D01*
X038649Y010300D01*
X038661Y010345D01*
X038661Y010483D02*
X058000Y010483D01*
X058000Y010641D02*
X038661Y010641D01*
X038661Y010800D02*
X058000Y010800D01*
X058000Y010958D02*
X038661Y010958D01*
X038183Y010958D02*
X038146Y010958D01*
X038146Y010800D02*
X038183Y010800D01*
X038146Y010704D02*
X038146Y011183D01*
X037824Y011183D01*
X037778Y011170D01*
X037737Y011147D01*
X037703Y011113D01*
X037680Y011072D01*
X037667Y011026D01*
X037667Y010704D01*
X038146Y010704D01*
X038146Y010667D02*
X037667Y010667D01*
X037667Y010345D01*
X037680Y010300D01*
X037703Y010259D01*
X037737Y010225D01*
X037778Y010201D01*
X037824Y010189D01*
X038146Y010189D01*
X038146Y010667D01*
X038146Y010641D02*
X038183Y010641D01*
X038183Y010483D02*
X038146Y010483D01*
X038146Y010324D02*
X038183Y010324D01*
X037673Y010324D02*
X036673Y010324D01*
X036673Y010483D02*
X037667Y010483D01*
X037667Y010641D02*
X036673Y010641D01*
X036673Y010800D02*
X037667Y010800D01*
X037667Y010958D02*
X036673Y010958D01*
X036625Y011117D02*
X037707Y011117D01*
X038146Y011117D02*
X038183Y011117D01*
X038882Y008723D02*
X038789Y008629D01*
X038789Y007231D01*
X038882Y007137D01*
X040281Y007137D01*
X040375Y007231D01*
X040375Y008629D01*
X040281Y008723D01*
X038882Y008723D01*
X038789Y008581D02*
X035571Y008581D01*
X035571Y008629D02*
X035478Y008723D01*
X034079Y008723D01*
X033985Y008629D01*
X033985Y007231D01*
X034079Y007137D01*
X035478Y007137D01*
X035571Y007231D01*
X035571Y008629D01*
X035571Y008422D02*
X038789Y008422D01*
X038789Y008264D02*
X035571Y008264D01*
X035571Y008105D02*
X038789Y008105D01*
X038789Y007947D02*
X035571Y007947D01*
X035571Y007788D02*
X038789Y007788D01*
X038789Y007630D02*
X035571Y007630D01*
X035571Y007471D02*
X038789Y007471D01*
X038789Y007313D02*
X035571Y007313D01*
X035495Y007154D02*
X038865Y007154D01*
X040298Y007154D02*
X058000Y007154D01*
X058000Y006996D02*
X051407Y006996D01*
X051461Y006973D02*
X051279Y007049D01*
X051081Y007049D01*
X050899Y006973D01*
X050759Y006833D01*
X050683Y006651D01*
X050683Y006453D01*
X050759Y006271D01*
X050899Y006131D01*
X051081Y006056D01*
X051279Y006056D01*
X051461Y006131D01*
X051601Y006271D01*
X051677Y006453D01*
X051677Y006651D01*
X051601Y006833D01*
X051461Y006973D01*
X051597Y006837D02*
X058000Y006837D01*
X058000Y006679D02*
X051665Y006679D01*
X051677Y006520D02*
X058000Y006520D01*
X058000Y006362D02*
X051639Y006362D01*
X051533Y006203D02*
X058000Y006203D01*
X058000Y006045D02*
X018177Y006045D01*
X018177Y006162D02*
X017698Y006162D01*
X017698Y006198D01*
X018177Y006198D01*
X018177Y006521D01*
X018165Y006566D01*
X018141Y006607D01*
X018107Y006641D01*
X018066Y006665D01*
X018021Y006677D01*
X017698Y006677D01*
X017698Y006198D01*
X017662Y006198D01*
X017662Y006162D01*
X017698Y006162D01*
X017698Y005683D01*
X018021Y005683D01*
X018066Y005695D01*
X018107Y005719D01*
X018141Y005753D01*
X018165Y005794D01*
X018177Y005839D01*
X018177Y006162D01*
X018177Y006203D02*
X044827Y006203D01*
X044759Y006271D02*
X044899Y006131D01*
X045081Y006056D01*
X045279Y006056D01*
X045461Y006131D01*
X045601Y006271D01*
X045677Y006453D01*
X045677Y006651D01*
X045601Y006833D01*
X045461Y006973D01*
X045279Y007049D01*
X045081Y007049D01*
X044899Y006973D01*
X044759Y006833D01*
X044683Y006651D01*
X044683Y006453D01*
X044759Y006271D01*
X044721Y006362D02*
X018177Y006362D01*
X018177Y006520D02*
X044683Y006520D01*
X044695Y006679D02*
X017131Y006679D01*
X017219Y006607D02*
X017195Y006566D01*
X017183Y006521D01*
X017183Y006198D01*
X017662Y006198D01*
X017662Y006677D01*
X017339Y006677D01*
X017294Y006665D01*
X017253Y006641D01*
X017219Y006607D01*
X017183Y006520D02*
X016973Y006520D01*
X017183Y006362D02*
X016747Y006362D01*
X016604Y006203D02*
X017183Y006203D01*
X017183Y006162D02*
X017183Y005839D01*
X017195Y005794D01*
X017219Y005753D01*
X017253Y005719D01*
X017294Y005695D01*
X017339Y005683D01*
X017662Y005683D01*
X017662Y006162D01*
X017183Y006162D01*
X017183Y006045D02*
X008497Y006045D01*
X008339Y005886D02*
X012740Y005886D01*
X012771Y005917D02*
X012693Y005839D01*
X011693Y004839D01*
X011650Y004736D01*
X011650Y004315D01*
X011532Y004196D01*
X011460Y004023D01*
X011460Y003837D01*
X011532Y003664D01*
X011664Y003532D01*
X011837Y003460D01*
X012023Y003460D01*
X012196Y003532D01*
X012328Y003664D01*
X012400Y003837D01*
X012400Y004023D01*
X012328Y004196D01*
X012210Y004315D01*
X012210Y004564D01*
X013046Y005400D01*
X014564Y005400D01*
X015150Y004814D01*
X015150Y004374D01*
X015193Y004271D01*
X015693Y003771D01*
X015771Y003693D01*
X015874Y003650D01*
X046302Y003650D01*
X046302Y003646D01*
X046396Y003552D01*
X046964Y003552D01*
X047058Y003646D01*
X047058Y004214D01*
X046964Y004308D01*
X046396Y004308D01*
X046302Y004214D01*
X046302Y004210D01*
X016046Y004210D01*
X015710Y004546D01*
X015710Y004986D01*
X015667Y005089D01*
X015589Y005167D01*
X014839Y005917D01*
X014736Y005960D01*
X012874Y005960D01*
X012771Y005917D01*
X012582Y005728D02*
X008250Y005728D01*
X008250Y005569D02*
X012423Y005569D01*
X012265Y005411D02*
X008250Y005411D01*
X008250Y005252D02*
X012106Y005252D01*
X011948Y005094D02*
X008250Y005094D01*
X008250Y004935D02*
X011789Y004935D01*
X011667Y004777D02*
X008250Y004777D01*
X008250Y004618D02*
X011650Y004618D01*
X011650Y004460D02*
X008250Y004460D01*
X008250Y004301D02*
X008636Y004301D01*
X008664Y004328D02*
X008532Y004196D01*
X008460Y004023D01*
X008460Y003837D01*
X008532Y003664D01*
X008664Y003532D01*
X008837Y003460D01*
X009023Y003460D01*
X009196Y003532D01*
X009328Y003664D01*
X009400Y003837D01*
X009400Y004023D01*
X009328Y004196D01*
X009196Y004328D01*
X009023Y004400D01*
X008837Y004400D01*
X008664Y004328D01*
X008509Y004143D02*
X008351Y004143D01*
X008400Y003984D02*
X008460Y003984D01*
X008465Y003826D02*
X008395Y003826D01*
X008330Y003667D02*
X008530Y003667D01*
X008719Y003509D02*
X008141Y003509D01*
X007719Y003509D02*
X007141Y003509D01*
X007196Y003532D02*
X007328Y003664D01*
X007400Y003837D01*
X007400Y004023D01*
X007328Y004196D01*
X007196Y004328D01*
X007023Y004400D01*
X006837Y004400D01*
X006664Y004328D01*
X006532Y004196D01*
X006460Y004023D01*
X006460Y003837D01*
X006532Y003664D01*
X006664Y003532D01*
X006837Y003460D01*
X007023Y003460D01*
X007196Y003532D01*
X007330Y003667D02*
X007530Y003667D01*
X007465Y003826D02*
X007395Y003826D01*
X007400Y003984D02*
X007460Y003984D01*
X007509Y004143D02*
X007351Y004143D01*
X007224Y004301D02*
X007610Y004301D01*
X007610Y004460D02*
X003250Y004460D01*
X003250Y004618D02*
X007610Y004618D01*
X007610Y004777D02*
X003250Y004777D01*
X003336Y004935D02*
X007610Y004935D01*
X007610Y005094D02*
X004296Y005094D01*
X004455Y005252D02*
X007610Y005252D01*
X007610Y005411D02*
X004613Y005411D01*
X004772Y005569D02*
X007610Y005569D01*
X007610Y005728D02*
X004930Y005728D01*
X005000Y005886D02*
X007610Y005886D01*
X007631Y006045D02*
X005000Y006045D01*
X005000Y006203D02*
X007750Y006203D01*
X007909Y006362D02*
X005064Y006362D01*
X005223Y006520D02*
X008067Y006520D01*
X008226Y006679D02*
X005381Y006679D01*
X005540Y006837D02*
X015725Y006837D01*
X015728Y007630D02*
X002332Y007630D01*
X002491Y007788D02*
X015860Y007788D01*
X015762Y007947D02*
X015149Y007947D01*
X015308Y008105D02*
X015725Y008105D01*
X015725Y008264D02*
X015466Y008264D01*
X015625Y008422D02*
X015725Y008422D01*
X015195Y008898D02*
X014850Y008898D01*
X015009Y009056D02*
X015353Y009056D01*
X015531Y009215D02*
X015167Y009215D01*
X015250Y009373D02*
X015725Y009373D01*
X015393Y009690D02*
X018217Y009690D01*
X018360Y009532D02*
X018003Y009532D01*
X018116Y009373D02*
X018360Y009373D01*
X018360Y009215D02*
X018157Y009215D01*
X018145Y009056D02*
X018360Y009056D01*
X018360Y008898D02*
X018072Y008898D01*
X017861Y008739D02*
X018360Y008739D01*
X018360Y008581D02*
X017954Y008581D01*
X018096Y008422D02*
X018360Y008422D01*
X018360Y008264D02*
X018157Y008264D01*
X018157Y008105D02*
X018360Y008105D01*
X018360Y007947D02*
X018099Y007947D01*
X017962Y007788D02*
X018360Y007788D01*
X018360Y007630D02*
X017841Y007630D01*
X017519Y007630D02*
X017250Y007630D01*
X017250Y007788D02*
X017398Y007788D01*
X017297Y007471D02*
X017250Y007471D01*
X017238Y006837D02*
X017349Y006837D01*
X017662Y006520D02*
X017698Y006520D01*
X017698Y006362D02*
X017662Y006362D01*
X017662Y006203D02*
X017698Y006203D01*
X017698Y006045D02*
X017662Y006045D01*
X017662Y005886D02*
X017698Y005886D01*
X017698Y005728D02*
X017662Y005728D01*
X017244Y005728D02*
X015028Y005728D01*
X014870Y005886D02*
X017183Y005886D01*
X018116Y005728D02*
X044806Y005728D01*
X044786Y005707D02*
X044738Y005642D01*
X044701Y005569D01*
X015187Y005569D01*
X015345Y005411D02*
X035769Y005411D01*
X035813Y005454D02*
X035719Y005360D01*
X035719Y004594D01*
X035813Y004500D01*
X036579Y004500D01*
X036673Y004594D01*
X036673Y005360D01*
X036579Y005454D01*
X035813Y005454D01*
X035719Y005252D02*
X015504Y005252D01*
X015662Y005094D02*
X035719Y005094D01*
X035719Y004935D02*
X015710Y004935D01*
X015710Y004777D02*
X035719Y004777D01*
X035719Y004618D02*
X015710Y004618D01*
X015796Y004460D02*
X058000Y004460D01*
X058000Y004618D02*
X038641Y004618D01*
X038641Y004594D02*
X038547Y004500D01*
X037781Y004500D01*
X037687Y004594D01*
X037687Y005360D01*
X037781Y005454D01*
X038547Y005454D01*
X038641Y005360D01*
X038641Y004594D01*
X038641Y004777D02*
X058000Y004777D01*
X058000Y004935D02*
X051459Y004935D01*
X051451Y004929D02*
X051516Y004977D01*
X051574Y005034D01*
X051622Y005100D01*
X051659Y005173D01*
X051684Y005250D01*
X051697Y005330D01*
X051697Y005343D01*
X051208Y005343D01*
X051208Y005399D01*
X051152Y005399D01*
X051152Y005343D01*
X050663Y005343D01*
X050663Y005330D01*
X050676Y005250D01*
X050701Y005173D01*
X050738Y005100D01*
X050786Y005034D01*
X050843Y004977D01*
X050909Y004929D01*
X050982Y004892D01*
X051059Y004867D01*
X051139Y004854D01*
X051152Y004854D01*
X051152Y005343D01*
X051208Y005343D01*
X051208Y004854D01*
X051221Y004854D01*
X051301Y004867D01*
X051378Y004892D01*
X051451Y004929D01*
X051617Y005094D02*
X058000Y005094D01*
X058000Y005252D02*
X051684Y005252D01*
X051697Y005399D02*
X051208Y005399D01*
X051208Y005887D01*
X051221Y005887D01*
X051301Y005875D01*
X051378Y005850D01*
X051451Y005813D01*
X051516Y005765D01*
X051574Y005707D01*
X051622Y005642D01*
X051659Y005569D01*
X058000Y005569D01*
X058000Y005411D02*
X051697Y005411D01*
X051697Y005412D02*
X051684Y005492D01*
X051659Y005569D01*
X051697Y005412D02*
X051697Y005399D01*
X051554Y005728D02*
X058000Y005728D01*
X058000Y005886D02*
X051230Y005886D01*
X051208Y005886D02*
X051152Y005886D01*
X051152Y005887D02*
X051139Y005887D01*
X051059Y005875D01*
X050982Y005850D01*
X050909Y005813D01*
X050843Y005765D01*
X050786Y005707D01*
X050738Y005642D01*
X050701Y005569D01*
X045659Y005569D01*
X045622Y005642D01*
X045574Y005707D01*
X045516Y005765D01*
X045451Y005813D01*
X045378Y005850D01*
X045301Y005875D01*
X045221Y005887D01*
X045208Y005887D01*
X045208Y005399D01*
X045152Y005399D01*
X045152Y005343D01*
X044663Y005343D01*
X044663Y005330D01*
X044676Y005250D01*
X044701Y005173D01*
X044738Y005100D01*
X044786Y005034D01*
X044843Y004977D01*
X044909Y004929D01*
X044982Y004892D01*
X045059Y004867D01*
X045139Y004854D01*
X045152Y004854D01*
X045152Y005343D01*
X045208Y005343D01*
X045208Y005399D01*
X045697Y005399D01*
X045697Y005412D01*
X045684Y005492D01*
X045659Y005569D01*
X045697Y005411D02*
X050663Y005411D01*
X050663Y005412D02*
X050663Y005399D01*
X051152Y005399D01*
X051152Y005887D01*
X051130Y005886D02*
X045230Y005886D01*
X045208Y005886D02*
X045152Y005886D01*
X045152Y005887D02*
X045139Y005887D01*
X045059Y005875D01*
X044982Y005850D01*
X044909Y005813D01*
X044843Y005765D01*
X044786Y005707D01*
X044701Y005569D02*
X044676Y005492D01*
X044663Y005412D01*
X044663Y005399D01*
X045152Y005399D01*
X045152Y005887D01*
X045130Y005886D02*
X018177Y005886D01*
X018011Y006837D02*
X044763Y006837D01*
X044953Y006996D02*
X018698Y006996D01*
X018857Y007154D02*
X034062Y007154D01*
X033985Y007313D02*
X018978Y007313D01*
X019000Y007471D02*
X033985Y007471D01*
X033985Y007630D02*
X019000Y007630D01*
X019000Y007788D02*
X033985Y007788D01*
X033985Y007947D02*
X019000Y007947D01*
X019000Y008105D02*
X033985Y008105D01*
X033985Y008264D02*
X019000Y008264D01*
X019000Y008422D02*
X033985Y008422D01*
X033985Y008581D02*
X019000Y008581D01*
X019000Y008739D02*
X058000Y008739D01*
X058000Y008581D02*
X040375Y008581D01*
X040375Y008422D02*
X058000Y008422D01*
X058000Y008264D02*
X040375Y008264D01*
X040375Y008105D02*
X058000Y008105D01*
X058000Y007947D02*
X040375Y007947D01*
X040375Y007788D02*
X058000Y007788D01*
X058000Y007630D02*
X040375Y007630D01*
X040375Y007471D02*
X058000Y007471D01*
X058000Y007313D02*
X040375Y007313D01*
X038591Y005411D02*
X044663Y005411D01*
X044676Y005252D02*
X038641Y005252D01*
X038641Y005094D02*
X044743Y005094D01*
X044901Y004935D02*
X038641Y004935D01*
X037687Y004935D02*
X037677Y004935D01*
X037677Y004959D02*
X037198Y004959D01*
X037198Y004480D01*
X037521Y004480D01*
X037566Y004493D01*
X037607Y004516D01*
X037641Y004550D01*
X037665Y004591D01*
X037677Y004637D01*
X037677Y004959D01*
X037677Y004996D02*
X037677Y005318D01*
X037665Y005364D01*
X037641Y005405D01*
X037607Y005438D01*
X037566Y005462D01*
X037521Y005474D01*
X037198Y005474D01*
X037198Y004996D01*
X037162Y004996D01*
X037162Y005474D01*
X036839Y005474D01*
X036794Y005462D01*
X036753Y005438D01*
X036719Y005405D01*
X036695Y005364D01*
X036683Y005318D01*
X036683Y004996D01*
X037162Y004996D01*
X037162Y004959D01*
X037198Y004959D01*
X037198Y004996D01*
X037677Y004996D01*
X037677Y005094D02*
X037687Y005094D01*
X037677Y005252D02*
X037687Y005252D01*
X037738Y005411D02*
X037635Y005411D01*
X037198Y005411D02*
X037162Y005411D01*
X037162Y005252D02*
X037198Y005252D01*
X037198Y005094D02*
X037162Y005094D01*
X037162Y004959D02*
X036683Y004959D01*
X036683Y004637D01*
X036695Y004591D01*
X036719Y004550D01*
X036753Y004516D01*
X036794Y004493D01*
X036839Y004480D01*
X037162Y004480D01*
X037162Y004959D01*
X037162Y004935D02*
X037198Y004935D01*
X037198Y004777D02*
X037162Y004777D01*
X037162Y004618D02*
X037198Y004618D01*
X037672Y004618D02*
X037687Y004618D01*
X037677Y004777D02*
X037687Y004777D01*
X036683Y004777D02*
X036673Y004777D01*
X036673Y004935D02*
X036683Y004935D01*
X036673Y005094D02*
X036683Y005094D01*
X036673Y005252D02*
X036683Y005252D01*
X036725Y005411D02*
X036622Y005411D01*
X036673Y004618D02*
X036688Y004618D01*
X045152Y004935D02*
X045208Y004935D01*
X045208Y004854D02*
X045221Y004854D01*
X045301Y004867D01*
X045378Y004892D01*
X045451Y004929D01*
X045516Y004977D01*
X045574Y005034D01*
X045622Y005100D01*
X045659Y005173D01*
X045684Y005250D01*
X045697Y005330D01*
X045697Y005343D01*
X045208Y005343D01*
X045208Y004854D01*
X045208Y005094D02*
X045152Y005094D01*
X045152Y005252D02*
X045208Y005252D01*
X045208Y005411D02*
X045152Y005411D01*
X045152Y005569D02*
X045208Y005569D01*
X045208Y005728D02*
X045152Y005728D01*
X045554Y005728D02*
X050806Y005728D01*
X050701Y005569D02*
X050676Y005492D01*
X050663Y005412D01*
X050676Y005252D02*
X045684Y005252D01*
X045617Y005094D02*
X050743Y005094D01*
X050901Y004935D02*
X045459Y004935D01*
X046389Y004301D02*
X015955Y004301D01*
X015480Y003984D02*
X014400Y003984D01*
X014400Y004023D02*
X014328Y004196D01*
X014196Y004328D01*
X014023Y004400D01*
X013837Y004400D01*
X013664Y004328D01*
X013532Y004196D01*
X013460Y004023D01*
X013460Y003837D01*
X013532Y003664D01*
X013664Y003532D01*
X013837Y003460D01*
X014023Y003460D01*
X014196Y003532D01*
X014328Y003664D01*
X014400Y003837D01*
X014400Y004023D01*
X014351Y004143D02*
X015322Y004143D01*
X015180Y004301D02*
X014224Y004301D01*
X014196Y004532D02*
X014328Y004664D01*
X014400Y004837D01*
X014400Y005023D01*
X014328Y005196D01*
X014196Y005328D01*
X014023Y005400D01*
X013837Y005400D01*
X013664Y005328D01*
X013532Y005196D01*
X013460Y005023D01*
X013460Y004837D01*
X013532Y004664D01*
X013664Y004532D01*
X013837Y004460D01*
X014023Y004460D01*
X014196Y004532D01*
X014283Y004618D02*
X015150Y004618D01*
X015150Y004460D02*
X012210Y004460D01*
X012224Y004301D02*
X012636Y004301D01*
X012664Y004328D02*
X012532Y004196D01*
X012460Y004023D01*
X012460Y003837D01*
X012532Y003664D01*
X012664Y003532D01*
X012837Y003460D01*
X013023Y003460D01*
X013196Y003532D01*
X013328Y003664D01*
X013400Y003837D01*
X013400Y004023D01*
X013328Y004196D01*
X013196Y004328D01*
X013023Y004400D01*
X012837Y004400D01*
X012664Y004328D01*
X012509Y004143D02*
X012351Y004143D01*
X012400Y003984D02*
X012460Y003984D01*
X012465Y003826D02*
X012395Y003826D01*
X012330Y003667D02*
X012530Y003667D01*
X012719Y003509D02*
X012141Y003509D01*
X011719Y003509D02*
X011141Y003509D01*
X011196Y003532D02*
X011328Y003664D01*
X011400Y003837D01*
X011400Y004023D01*
X011328Y004196D01*
X011196Y004328D01*
X011023Y004400D01*
X010837Y004400D01*
X010664Y004328D01*
X010532Y004196D01*
X010460Y004023D01*
X010460Y003837D01*
X010532Y003664D01*
X010664Y003532D01*
X010837Y003460D01*
X011023Y003460D01*
X011196Y003532D01*
X011330Y003667D02*
X011530Y003667D01*
X011465Y003826D02*
X011395Y003826D01*
X011400Y003984D02*
X011460Y003984D01*
X011509Y004143D02*
X011351Y004143D01*
X011224Y004301D02*
X011636Y004301D01*
X010636Y004301D02*
X010224Y004301D01*
X010196Y004328D02*
X010023Y004400D01*
X009837Y004400D01*
X009664Y004328D01*
X009532Y004196D01*
X009460Y004023D01*
X009460Y003837D01*
X009532Y003664D01*
X009664Y003532D01*
X009837Y003460D01*
X010023Y003460D01*
X010196Y003532D01*
X010328Y003664D01*
X010400Y003837D01*
X010400Y004023D01*
X010328Y004196D01*
X010196Y004328D01*
X010351Y004143D02*
X010509Y004143D01*
X010460Y003984D02*
X010400Y003984D01*
X010395Y003826D02*
X010465Y003826D01*
X010530Y003667D02*
X010330Y003667D01*
X010141Y003509D02*
X010719Y003509D01*
X009719Y003509D02*
X009141Y003509D01*
X009330Y003667D02*
X009530Y003667D01*
X009465Y003826D02*
X009395Y003826D01*
X009400Y003984D02*
X009460Y003984D01*
X009509Y004143D02*
X009351Y004143D01*
X009224Y004301D02*
X009636Y004301D01*
X012264Y004618D02*
X013577Y004618D01*
X013485Y004777D02*
X012422Y004777D01*
X012581Y004935D02*
X013460Y004935D01*
X013489Y005094D02*
X012739Y005094D01*
X012898Y005252D02*
X013587Y005252D01*
X014273Y005252D02*
X014712Y005252D01*
X014871Y005094D02*
X014371Y005094D01*
X014400Y004935D02*
X015029Y004935D01*
X015150Y004777D02*
X014375Y004777D01*
X013636Y004301D02*
X013224Y004301D01*
X013351Y004143D02*
X013509Y004143D01*
X013460Y003984D02*
X013400Y003984D01*
X013395Y003826D02*
X013465Y003826D01*
X013530Y003667D02*
X013330Y003667D01*
X013141Y003509D02*
X013719Y003509D01*
X014141Y003509D02*
X058000Y003509D01*
X058000Y003667D02*
X047058Y003667D01*
X047058Y003826D02*
X058000Y003826D01*
X058000Y003984D02*
X047058Y003984D01*
X047058Y004143D02*
X058000Y004143D01*
X058000Y004301D02*
X046971Y004301D01*
X045533Y006203D02*
X050827Y006203D01*
X050721Y006362D02*
X045639Y006362D01*
X045677Y006520D02*
X050683Y006520D01*
X050695Y006679D02*
X045665Y006679D01*
X045597Y006837D02*
X050763Y006837D01*
X050953Y006996D02*
X045407Y006996D01*
X051152Y005728D02*
X051208Y005728D01*
X051208Y005569D02*
X051152Y005569D01*
X051152Y005411D02*
X051208Y005411D01*
X051208Y005252D02*
X051152Y005252D01*
X051152Y005094D02*
X051208Y005094D01*
X051208Y004935D02*
X051152Y004935D01*
X055341Y002741D02*
X055190Y002377D01*
X055190Y001983D01*
X055341Y001619D01*
X055619Y001341D01*
X055983Y001190D01*
X056377Y001190D01*
X056741Y001341D01*
X057019Y001619D01*
X057170Y001983D01*
X057170Y002377D01*
X057019Y002741D01*
X056741Y003019D01*
X056377Y003170D01*
X055983Y003170D01*
X055619Y003019D01*
X055341Y002741D01*
X055331Y002716D02*
X003029Y002716D01*
X003095Y002558D02*
X055265Y002558D01*
X055199Y002399D02*
X003161Y002399D01*
X003170Y002241D02*
X055190Y002241D01*
X055190Y002082D02*
X003170Y002082D01*
X003145Y001924D02*
X055215Y001924D01*
X055280Y001765D02*
X003080Y001765D01*
X003006Y001607D02*
X055354Y001607D01*
X055512Y001448D02*
X002848Y001448D01*
X002617Y001290D02*
X055743Y001290D01*
X056617Y001290D02*
X057759Y001290D01*
X057835Y001448D02*
X056848Y001448D01*
X057006Y001607D02*
X057904Y001607D01*
X057940Y001765D02*
X057080Y001765D01*
X057145Y001924D02*
X057977Y001924D01*
X057994Y002082D02*
X057170Y002082D01*
X057170Y002241D02*
X058000Y002241D01*
X058000Y002399D02*
X057161Y002399D01*
X057095Y002558D02*
X058000Y002558D01*
X058000Y002716D02*
X057029Y002716D01*
X056885Y002875D02*
X058000Y002875D01*
X058000Y003033D02*
X056707Y003033D01*
X055653Y003033D02*
X002707Y003033D01*
X002885Y002875D02*
X055475Y002875D01*
X057169Y000656D02*
X001191Y000656D01*
X000992Y000814D02*
X057368Y000814D01*
X056854Y000497D02*
X001506Y000497D01*
X001891Y003440D02*
X001815Y003452D01*
X001742Y003476D01*
X001673Y003511D01*
X001611Y003556D01*
X001556Y003611D01*
X001511Y003673D01*
X001476Y003742D01*
X001452Y003815D01*
X001440Y003891D01*
X001440Y003915D01*
X001915Y003915D01*
X001915Y003945D01*
X001915Y004420D01*
X001891Y004420D01*
X001815Y004408D01*
X001742Y004384D01*
X001673Y004349D01*
X001611Y004304D01*
X001556Y004249D01*
X001511Y004187D01*
X001476Y004118D01*
X001452Y004045D01*
X001440Y003969D01*
X001440Y003945D01*
X001915Y003945D01*
X001945Y003945D01*
X001945Y004420D01*
X001969Y004420D01*
X002045Y004408D01*
X002118Y004384D01*
X002187Y004349D01*
X002249Y004304D01*
X002304Y004249D01*
X002349Y004187D01*
X002384Y004118D01*
X002408Y004045D01*
X002420Y003969D01*
X002420Y003945D01*
X001945Y003945D01*
X001945Y003915D01*
X002420Y003915D01*
X002420Y003891D01*
X002408Y003815D01*
X002384Y003742D01*
X002349Y003673D01*
X002304Y003611D01*
X002249Y003556D01*
X002187Y003511D01*
X002118Y003476D01*
X002045Y003452D01*
X001969Y003440D01*
X001945Y003440D01*
X001945Y003915D01*
X001915Y003915D01*
X001915Y003440D01*
X001891Y003440D01*
X001915Y003509D02*
X001945Y003509D01*
X001945Y003667D02*
X001915Y003667D01*
X001915Y003826D02*
X001945Y003826D01*
X001945Y003984D02*
X001915Y003984D01*
X001915Y004143D02*
X001945Y004143D01*
X001945Y004301D02*
X001915Y004301D01*
X001608Y004301D02*
X001250Y004301D01*
X001250Y004460D02*
X002610Y004460D01*
X002610Y004618D02*
X001250Y004618D01*
X001250Y004777D02*
X002610Y004777D01*
X002524Y004935D02*
X001250Y004935D01*
X001250Y005094D02*
X002475Y005094D01*
X002475Y005252D02*
X001250Y005252D01*
X001250Y005411D02*
X002475Y005411D01*
X002475Y005569D02*
X001250Y005569D01*
X001250Y005728D02*
X002468Y005728D01*
X002455Y005886D02*
X001250Y005886D01*
X001250Y006045D02*
X002882Y006045D01*
X002882Y006102D02*
X002455Y006102D01*
X002455Y006334D01*
X002467Y006379D01*
X002491Y006420D01*
X002524Y006454D01*
X002565Y006478D01*
X002611Y006490D01*
X002882Y006490D01*
X002882Y006102D01*
X002882Y006203D02*
X002978Y006203D01*
X002978Y006045D02*
X004342Y006045D01*
X004360Y006203D02*
X003405Y006203D01*
X003398Y006362D02*
X004360Y006362D01*
X004371Y006520D02*
X001250Y006520D01*
X001250Y006362D02*
X002462Y006362D01*
X002455Y006203D02*
X001250Y006203D01*
X001381Y006679D02*
X004476Y006679D01*
X004634Y006837D02*
X001540Y006837D01*
X001698Y006996D02*
X004793Y006996D01*
X004951Y007154D02*
X001857Y007154D01*
X002015Y007313D02*
X005110Y007313D01*
X005296Y007471D02*
X002174Y007471D01*
X002649Y007947D02*
X013302Y007947D01*
X013302Y008105D02*
X002745Y008105D01*
X002750Y008264D02*
X013302Y008264D01*
X013302Y008422D02*
X002750Y008422D01*
X002750Y008581D02*
X014878Y008581D01*
X015036Y008739D02*
X014692Y008739D01*
X014420Y009373D02*
X002750Y009373D01*
X002430Y009430D02*
X002430Y010680D01*
X003201Y010324D02*
X003659Y010324D01*
X003664Y010328D02*
X003532Y010196D01*
X003460Y010023D01*
X003460Y009837D01*
X003532Y009664D01*
X003664Y009532D01*
X003837Y009460D01*
X004023Y009460D01*
X004196Y009532D01*
X004328Y009664D01*
X004400Y009837D01*
X004400Y010023D01*
X004328Y010196D01*
X004196Y010328D01*
X004023Y010400D01*
X003837Y010400D01*
X003664Y010328D01*
X003519Y010166D02*
X003341Y010166D01*
X003400Y010007D02*
X003460Y010007D01*
X003460Y009849D02*
X003400Y009849D01*
X003339Y009690D02*
X003521Y009690D01*
X003664Y009532D02*
X003196Y009532D01*
X004196Y009532D02*
X004664Y009532D01*
X004837Y009460D01*
X005023Y009460D01*
X005196Y009532D01*
X005328Y009664D01*
X005400Y009837D01*
X005400Y010023D01*
X005328Y010196D01*
X005196Y010328D01*
X005023Y010400D01*
X004837Y010400D01*
X004664Y010328D01*
X004532Y010196D01*
X004460Y010023D01*
X004460Y009837D01*
X004532Y009664D01*
X004664Y009532D01*
X004521Y009690D02*
X004339Y009690D01*
X004400Y009849D02*
X004460Y009849D01*
X004460Y010007D02*
X004400Y010007D01*
X004341Y010166D02*
X004519Y010166D01*
X004659Y010324D02*
X004201Y010324D01*
X005201Y010324D02*
X005659Y010324D01*
X005664Y010328D02*
X005532Y010196D01*
X005460Y010023D01*
X005460Y009837D01*
X005532Y009664D01*
X005664Y009532D01*
X005837Y009460D01*
X006023Y009460D01*
X006196Y009532D01*
X006328Y009664D01*
X006400Y009837D01*
X006400Y010023D01*
X006328Y010196D01*
X006196Y010328D01*
X006023Y010400D01*
X005837Y010400D01*
X005664Y010328D01*
X005519Y010166D02*
X005341Y010166D01*
X005400Y010007D02*
X005460Y010007D01*
X005460Y009849D02*
X005400Y009849D01*
X005339Y009690D02*
X005521Y009690D01*
X005664Y009532D02*
X005196Y009532D01*
X006196Y009532D02*
X006664Y009532D01*
X006837Y009460D01*
X007023Y009460D01*
X007196Y009532D01*
X007328Y009664D01*
X007400Y009837D01*
X007400Y010023D01*
X007328Y010196D01*
X007196Y010328D01*
X007023Y010400D01*
X006837Y010400D01*
X006664Y010328D01*
X006532Y010196D01*
X006460Y010023D01*
X006460Y009837D01*
X006532Y009664D01*
X006664Y009532D01*
X006521Y009690D02*
X006339Y009690D01*
X006400Y009849D02*
X006460Y009849D01*
X006460Y010007D02*
X006400Y010007D01*
X006341Y010166D02*
X006519Y010166D01*
X006659Y010324D02*
X006201Y010324D01*
X007201Y010324D02*
X007659Y010324D01*
X007664Y010328D02*
X007532Y010196D01*
X007460Y010023D01*
X007460Y009837D01*
X007532Y009664D01*
X007664Y009532D01*
X007837Y009460D01*
X008023Y009460D01*
X008196Y009532D01*
X008328Y009664D01*
X008400Y009837D01*
X008400Y010023D01*
X008328Y010196D01*
X008196Y010328D01*
X008023Y010400D01*
X007837Y010400D01*
X007664Y010328D01*
X007519Y010166D02*
X007341Y010166D01*
X007400Y010007D02*
X007460Y010007D01*
X007460Y009849D02*
X007400Y009849D01*
X007339Y009690D02*
X007521Y009690D01*
X007664Y009532D02*
X007196Y009532D01*
X008196Y009532D02*
X008664Y009532D01*
X008837Y009460D01*
X009023Y009460D01*
X009196Y009532D01*
X009328Y009664D01*
X009400Y009837D01*
X009400Y010023D01*
X009328Y010196D01*
X009196Y010328D01*
X009023Y010400D01*
X008837Y010400D01*
X008664Y010328D01*
X008532Y010196D01*
X008460Y010023D01*
X008460Y009837D01*
X008532Y009664D01*
X008664Y009532D01*
X008521Y009690D02*
X008339Y009690D01*
X008400Y009849D02*
X008460Y009849D01*
X008460Y010007D02*
X008400Y010007D01*
X008341Y010166D02*
X008519Y010166D01*
X008659Y010324D02*
X008201Y010324D01*
X009201Y010324D02*
X009659Y010324D01*
X009664Y010328D02*
X009532Y010196D01*
X009460Y010023D01*
X009460Y009837D01*
X009532Y009664D01*
X009664Y009532D01*
X009837Y009460D01*
X010023Y009460D01*
X010196Y009532D01*
X010328Y009664D01*
X010400Y009837D01*
X010400Y010023D01*
X010328Y010196D01*
X010196Y010328D01*
X010023Y010400D01*
X009837Y010400D01*
X009664Y010328D01*
X009519Y010166D02*
X009341Y010166D01*
X009400Y010007D02*
X009460Y010007D01*
X009460Y009849D02*
X009400Y009849D01*
X009339Y009690D02*
X009521Y009690D01*
X009664Y009532D02*
X009196Y009532D01*
X010196Y009532D02*
X010664Y009532D01*
X010837Y009460D01*
X011023Y009460D01*
X011196Y009532D01*
X011328Y009664D01*
X011400Y009837D01*
X011400Y010023D01*
X011328Y010196D01*
X011196Y010328D01*
X011023Y010400D01*
X010837Y010400D01*
X010664Y010328D01*
X010532Y010196D01*
X010460Y010023D01*
X010460Y009837D01*
X010532Y009664D01*
X010664Y009532D01*
X010521Y009690D02*
X010339Y009690D01*
X010400Y009849D02*
X010460Y009849D01*
X010460Y010007D02*
X010400Y010007D01*
X010341Y010166D02*
X010519Y010166D01*
X010659Y010324D02*
X010201Y010324D01*
X011201Y010324D02*
X011659Y010324D01*
X011519Y010166D02*
X011341Y010166D01*
X011400Y010007D02*
X011460Y010007D01*
X011460Y009849D02*
X011400Y009849D01*
X011339Y009690D02*
X011521Y009690D01*
X011664Y009532D02*
X011196Y009532D01*
X014196Y009532D02*
X014579Y009532D01*
X014610Y009690D02*
X014339Y009690D01*
X014400Y009849D02*
X014653Y009849D01*
X014749Y009951D02*
X014749Y009951D01*
X014804Y010007D02*
X014400Y010007D01*
X014341Y010166D02*
X014963Y010166D01*
X015121Y010324D02*
X014250Y010324D01*
X014250Y010483D02*
X015324Y010483D01*
X015551Y009849D02*
X018059Y009849D01*
X018647Y010166D02*
X029775Y010166D01*
X029973Y010324D02*
X018489Y010324D01*
X018286Y010483D02*
X030171Y010483D01*
X030369Y010641D02*
X014250Y010641D01*
X014250Y010800D02*
X030552Y010800D01*
X030552Y010958D02*
X014250Y010958D01*
X014386Y011434D02*
X058000Y011434D01*
X058000Y011592D02*
X014545Y011592D01*
X014703Y011751D02*
X058000Y011751D01*
X058000Y011909D02*
X014862Y011909D01*
X013499Y012702D02*
X000360Y012702D01*
X000360Y012860D02*
X013657Y012860D01*
X013816Y013019D02*
X000360Y013019D01*
X000360Y013177D02*
X013974Y013177D01*
X014133Y013336D02*
X000360Y013336D01*
X000360Y013494D02*
X014352Y013494D01*
X013340Y012543D02*
X000360Y012543D01*
X000360Y012385D02*
X013182Y012385D01*
X013023Y012226D02*
X000360Y012226D01*
X000360Y012068D02*
X012865Y012068D01*
X012706Y011909D02*
X000360Y011909D01*
X000360Y014921D02*
X058000Y014921D01*
X058000Y015079D02*
X000360Y015079D01*
X000360Y015238D02*
X058000Y015238D01*
X058000Y015396D02*
X000360Y015396D01*
X000360Y015555D02*
X058000Y015555D01*
X058000Y015713D02*
X000360Y015713D01*
X000360Y015872D02*
X058000Y015872D01*
X058000Y016030D02*
X000360Y016030D01*
X000360Y016189D02*
X058000Y016189D01*
X058000Y016347D02*
X000360Y016347D01*
X000360Y016506D02*
X058000Y016506D01*
X058000Y016664D02*
X000360Y016664D01*
X000360Y016823D02*
X058000Y016823D01*
X058000Y016981D02*
X000360Y016981D01*
X000360Y017140D02*
X058000Y017140D01*
X058000Y017298D02*
X000360Y017298D01*
X000360Y017457D02*
X058000Y017457D01*
X058000Y017615D02*
X000360Y017615D01*
X000360Y017774D02*
X058000Y017774D01*
X058000Y017932D02*
X000360Y017932D01*
X000360Y018091D02*
X058000Y018091D01*
X058000Y018249D02*
X000360Y018249D01*
X000360Y018408D02*
X058000Y018408D01*
X058000Y018566D02*
X000360Y018566D01*
X000360Y018725D02*
X004848Y018725D01*
X004772Y018756D02*
X004956Y018680D01*
X005154Y018680D01*
X005338Y018756D01*
X005479Y018897D01*
X005555Y019081D01*
X005555Y019279D01*
X005479Y019463D01*
X005338Y019604D01*
X005154Y019680D01*
X004956Y019680D01*
X004772Y019604D01*
X004631Y019463D01*
X004555Y019279D01*
X004555Y019081D01*
X004631Y018897D01*
X004772Y018756D01*
X004645Y018883D02*
X000360Y018883D01*
X000360Y019042D02*
X004571Y019042D01*
X004555Y019200D02*
X000360Y019200D01*
X000360Y019359D02*
X004588Y019359D01*
X004685Y019517D02*
X000360Y019517D01*
X000360Y019676D02*
X001921Y019676D01*
X001857Y019702D02*
X002060Y019618D01*
X002280Y019618D01*
X002484Y019702D01*
X002640Y019858D01*
X002724Y020062D01*
X002724Y020282D01*
X002640Y020485D01*
X002484Y020641D01*
X002280Y020725D01*
X002060Y020725D01*
X001857Y020641D01*
X001701Y020485D01*
X001616Y020282D01*
X001616Y020062D01*
X001701Y019858D01*
X001857Y019702D01*
X001725Y019834D02*
X000360Y019834D01*
X000360Y019993D02*
X001645Y019993D01*
X001616Y020151D02*
X000360Y020151D01*
X000360Y020310D02*
X001628Y020310D01*
X001694Y020468D02*
X000360Y020468D01*
X000360Y020627D02*
X001842Y020627D01*
X002498Y020627D02*
X058000Y020627D01*
X058000Y020785D02*
X000360Y020785D01*
X000360Y020944D02*
X058000Y020944D01*
X058000Y021102D02*
X000360Y021102D01*
X000360Y021261D02*
X058000Y021261D01*
X058000Y021419D02*
X000360Y021419D01*
X000360Y021578D02*
X058000Y021578D01*
X058000Y021736D02*
X002546Y021736D01*
X002544Y021734D02*
X002608Y021798D01*
X002661Y021871D01*
X002702Y021951D01*
X002730Y022037D01*
X002743Y022124D01*
X002218Y022124D01*
X002218Y022220D01*
X002122Y022220D01*
X002122Y022745D01*
X002036Y022731D01*
X001950Y022703D01*
X001869Y022662D01*
X001796Y022609D01*
X001733Y022545D01*
X001679Y022472D01*
X001638Y022392D01*
X001611Y022306D01*
X001597Y022220D01*
X002122Y022220D01*
X002122Y022124D01*
X001597Y022124D01*
X001611Y022037D01*
X001638Y021951D01*
X001679Y021871D01*
X001733Y021798D01*
X001796Y021734D01*
X001869Y021681D01*
X001950Y021640D01*
X002036Y021612D01*
X002122Y021598D01*
X002122Y022124D01*
X002218Y022124D01*
X002218Y021598D01*
X002304Y021612D01*
X002390Y021640D01*
X002471Y021681D01*
X002544Y021734D01*
X002673Y021895D02*
X058000Y021895D01*
X058000Y022053D02*
X002732Y022053D01*
X002743Y022220D02*
X002730Y022306D01*
X002702Y022392D01*
X002661Y022472D01*
X002608Y022545D01*
X002544Y022609D01*
X002471Y022662D01*
X002390Y022703D01*
X002304Y022731D01*
X002218Y022745D01*
X002218Y022220D01*
X002743Y022220D01*
X002709Y022370D02*
X058000Y022370D01*
X058000Y022212D02*
X002218Y022212D01*
X002122Y022212D02*
X000360Y022212D01*
X000360Y022370D02*
X001631Y022370D01*
X001720Y022529D02*
X000360Y022529D01*
X000360Y022687D02*
X001918Y022687D01*
X002122Y022687D02*
X002218Y022687D01*
X002218Y022529D02*
X002122Y022529D01*
X002122Y022370D02*
X002218Y022370D01*
X002218Y022053D02*
X002122Y022053D01*
X002122Y021895D02*
X002218Y021895D01*
X002218Y021736D02*
X002122Y021736D01*
X001794Y021736D02*
X000360Y021736D01*
X000360Y021895D02*
X001667Y021895D01*
X001608Y022053D02*
X000360Y022053D01*
X000360Y022846D02*
X004682Y022846D01*
X004631Y022897D02*
X004772Y022756D01*
X004956Y022680D01*
X005154Y022680D01*
X005338Y022756D01*
X005479Y022897D01*
X005555Y023081D01*
X005555Y023279D01*
X005479Y023463D01*
X005338Y023604D01*
X005154Y023680D01*
X004956Y023680D01*
X004772Y023604D01*
X004631Y023463D01*
X004555Y023279D01*
X004555Y023081D01*
X004631Y022897D01*
X004587Y023004D02*
X000360Y023004D01*
X000360Y023163D02*
X004555Y023163D01*
X004572Y023321D02*
X000360Y023321D01*
X000360Y023480D02*
X004647Y023480D01*
X004854Y023638D02*
X000360Y023638D01*
X000360Y023797D02*
X058000Y023797D01*
X058000Y023955D02*
X000360Y023955D01*
X000360Y024114D02*
X058000Y024114D01*
X058000Y024272D02*
X000360Y024272D01*
X000360Y024431D02*
X058000Y024431D01*
X058000Y024589D02*
X000360Y024589D01*
X000360Y024748D02*
X001844Y024748D01*
X001983Y024690D02*
X002377Y024690D01*
X002741Y024841D01*
X003019Y025119D01*
X003170Y025483D01*
X003170Y025877D01*
X003019Y026241D01*
X002741Y026519D01*
X002377Y026670D01*
X001983Y026670D01*
X001619Y026519D01*
X001341Y026241D01*
X001190Y025877D01*
X001190Y025483D01*
X001341Y025119D01*
X001619Y024841D01*
X001983Y024690D01*
X001554Y024906D02*
X000360Y024906D01*
X000360Y025065D02*
X001396Y025065D01*
X001298Y025223D02*
X000360Y025223D01*
X000360Y025382D02*
X001232Y025382D01*
X001190Y025540D02*
X000360Y025540D01*
X000361Y025699D02*
X001190Y025699D01*
X001190Y025857D02*
X000371Y025857D01*
X000404Y026016D02*
X001248Y026016D01*
X001313Y026174D02*
X000447Y026174D01*
X000490Y026333D02*
X001433Y026333D01*
X001591Y026491D02*
X000581Y026491D01*
X000672Y026650D02*
X001934Y026650D01*
X002426Y026650D02*
X055934Y026650D01*
X055983Y026670D02*
X055619Y026519D01*
X055341Y026241D01*
X055190Y025877D01*
X055190Y025483D01*
X055341Y025119D01*
X055619Y024841D01*
X055983Y024690D01*
X056377Y024690D01*
X056741Y024841D01*
X057019Y025119D01*
X057170Y025483D01*
X057170Y025877D01*
X057019Y026241D01*
X056741Y026519D01*
X056377Y026670D01*
X055983Y026670D01*
X055591Y026491D02*
X002769Y026491D01*
X002927Y026333D02*
X055433Y026333D01*
X055313Y026174D02*
X052950Y026174D01*
X052985Y026159D02*
X052782Y026244D01*
X052562Y026244D01*
X052358Y026159D01*
X052202Y026003D01*
X052118Y025800D01*
X052118Y025580D01*
X052202Y025376D01*
X052358Y025220D01*
X052562Y025136D01*
X052782Y025136D01*
X052985Y025220D01*
X053141Y025376D01*
X053225Y025580D01*
X053225Y025800D01*
X053141Y026003D01*
X052985Y026159D01*
X053129Y026016D02*
X055248Y026016D01*
X055190Y025857D02*
X053202Y025857D01*
X053225Y025699D02*
X055190Y025699D01*
X055190Y025540D02*
X053209Y025540D01*
X053143Y025382D02*
X055232Y025382D01*
X055298Y025223D02*
X052988Y025223D01*
X052355Y025223D02*
X050988Y025223D01*
X050985Y025220D02*
X051141Y025376D01*
X051225Y025580D01*
X051225Y025800D01*
X051141Y026003D01*
X050985Y026159D01*
X050782Y026244D01*
X050562Y026244D01*
X050358Y026159D01*
X050202Y026003D01*
X050118Y025800D01*
X050118Y025580D01*
X050202Y025376D01*
X050358Y025220D01*
X050562Y025136D01*
X050782Y025136D01*
X050985Y025220D01*
X051143Y025382D02*
X052200Y025382D01*
X052134Y025540D02*
X051209Y025540D01*
X051225Y025699D02*
X052118Y025699D01*
X052142Y025857D02*
X051202Y025857D01*
X051129Y026016D02*
X052214Y026016D01*
X052394Y026174D02*
X050950Y026174D01*
X050394Y026174D02*
X048950Y026174D01*
X048985Y026159D02*
X048782Y026244D01*
X048562Y026244D01*
X048358Y026159D01*
X048202Y026003D01*
X048118Y025800D01*
X048118Y025580D01*
X048202Y025376D01*
X048358Y025220D01*
X048562Y025136D01*
X048782Y025136D01*
X048985Y025220D01*
X049141Y025376D01*
X049225Y025580D01*
X049225Y025800D01*
X049141Y026003D01*
X048985Y026159D01*
X049129Y026016D02*
X050214Y026016D01*
X050142Y025857D02*
X049202Y025857D01*
X049225Y025699D02*
X050118Y025699D01*
X050134Y025540D02*
X049209Y025540D01*
X049143Y025382D02*
X050200Y025382D01*
X050355Y025223D02*
X048988Y025223D01*
X048355Y025223D02*
X046988Y025223D01*
X046985Y025220D02*
X047141Y025376D01*
X047225Y025580D01*
X047225Y025800D01*
X047141Y026003D01*
X046985Y026159D01*
X046782Y026244D01*
X046562Y026244D01*
X046358Y026159D01*
X046202Y026003D01*
X046118Y025800D01*
X046118Y025580D01*
X046202Y025376D01*
X046358Y025220D01*
X046562Y025136D01*
X046782Y025136D01*
X046985Y025220D01*
X047143Y025382D02*
X048200Y025382D01*
X048134Y025540D02*
X047209Y025540D01*
X047225Y025699D02*
X048118Y025699D01*
X048142Y025857D02*
X047202Y025857D01*
X047129Y026016D02*
X048214Y026016D01*
X048394Y026174D02*
X046950Y026174D01*
X046394Y026174D02*
X044950Y026174D01*
X044985Y026159D02*
X044782Y026244D01*
X044562Y026244D01*
X044358Y026159D01*
X044202Y026003D01*
X044118Y025800D01*
X044118Y025580D01*
X044202Y025376D01*
X044358Y025220D01*
X044562Y025136D01*
X044782Y025136D01*
X044985Y025220D01*
X045141Y025376D01*
X045225Y025580D01*
X045225Y025800D01*
X045141Y026003D01*
X044985Y026159D01*
X045129Y026016D02*
X046214Y026016D01*
X046142Y025857D02*
X045202Y025857D01*
X045225Y025699D02*
X046118Y025699D01*
X046134Y025540D02*
X045209Y025540D01*
X045143Y025382D02*
X046200Y025382D01*
X046355Y025223D02*
X044988Y025223D01*
X044355Y025223D02*
X042988Y025223D01*
X042985Y025220D02*
X043141Y025376D01*
X043225Y025580D01*
X043225Y025800D01*
X043141Y026003D01*
X042985Y026159D01*
X042782Y026244D01*
X042562Y026244D01*
X042358Y026159D01*
X042202Y026003D01*
X042118Y025800D01*
X042118Y025580D01*
X042202Y025376D01*
X042358Y025220D01*
X042562Y025136D01*
X042782Y025136D01*
X042985Y025220D01*
X043143Y025382D02*
X044200Y025382D01*
X044134Y025540D02*
X043209Y025540D01*
X043225Y025699D02*
X044118Y025699D01*
X044142Y025857D02*
X043202Y025857D01*
X043129Y026016D02*
X044214Y026016D01*
X044394Y026174D02*
X042950Y026174D01*
X042394Y026174D02*
X040950Y026174D01*
X040985Y026159D02*
X040782Y026244D01*
X040562Y026244D01*
X040358Y026159D01*
X040202Y026003D01*
X040118Y025800D01*
X040118Y025580D01*
X040202Y025376D01*
X040358Y025220D01*
X040562Y025136D01*
X040782Y025136D01*
X040985Y025220D01*
X041141Y025376D01*
X041225Y025580D01*
X041225Y025800D01*
X041141Y026003D01*
X040985Y026159D01*
X041129Y026016D02*
X042214Y026016D01*
X042142Y025857D02*
X041202Y025857D01*
X041225Y025699D02*
X042118Y025699D01*
X042134Y025540D02*
X041209Y025540D01*
X041143Y025382D02*
X042200Y025382D01*
X042355Y025223D02*
X040988Y025223D01*
X040355Y025223D02*
X038988Y025223D01*
X038985Y025220D02*
X039141Y025376D01*
X039225Y025580D01*
X039225Y025800D01*
X039141Y026003D01*
X038985Y026159D01*
X038782Y026244D01*
X038562Y026244D01*
X038358Y026159D01*
X038202Y026003D01*
X038118Y025800D01*
X038118Y025580D01*
X038202Y025376D01*
X038358Y025220D01*
X038562Y025136D01*
X038782Y025136D01*
X038985Y025220D01*
X039143Y025382D02*
X040200Y025382D01*
X040134Y025540D02*
X039209Y025540D01*
X039225Y025699D02*
X040118Y025699D01*
X040142Y025857D02*
X039202Y025857D01*
X039129Y026016D02*
X040214Y026016D01*
X040394Y026174D02*
X038950Y026174D01*
X038394Y026174D02*
X036950Y026174D01*
X036985Y026159D02*
X036782Y026244D01*
X036562Y026244D01*
X036358Y026159D01*
X036202Y026003D01*
X036118Y025800D01*
X036118Y025580D01*
X036202Y025376D01*
X036358Y025220D01*
X036562Y025136D01*
X036782Y025136D01*
X036985Y025220D01*
X037141Y025376D01*
X037225Y025580D01*
X037225Y025800D01*
X037141Y026003D01*
X036985Y026159D01*
X037129Y026016D02*
X038214Y026016D01*
X038142Y025857D02*
X037202Y025857D01*
X037225Y025699D02*
X038118Y025699D01*
X038134Y025540D02*
X037209Y025540D01*
X037143Y025382D02*
X038200Y025382D01*
X038355Y025223D02*
X036988Y025223D01*
X036355Y025223D02*
X034988Y025223D01*
X034985Y025220D02*
X035141Y025376D01*
X035225Y025580D01*
X035225Y025800D01*
X035141Y026003D01*
X034985Y026159D01*
X034782Y026244D01*
X034562Y026244D01*
X034358Y026159D01*
X034202Y026003D01*
X034118Y025800D01*
X034118Y025580D01*
X034202Y025376D01*
X034358Y025220D01*
X034562Y025136D01*
X034782Y025136D01*
X034985Y025220D01*
X035143Y025382D02*
X036200Y025382D01*
X036134Y025540D02*
X035209Y025540D01*
X035225Y025699D02*
X036118Y025699D01*
X036142Y025857D02*
X035202Y025857D01*
X035129Y026016D02*
X036214Y026016D01*
X036394Y026174D02*
X034950Y026174D01*
X034394Y026174D02*
X032950Y026174D01*
X032985Y026159D02*
X032782Y026244D01*
X032562Y026244D01*
X032358Y026159D01*
X032202Y026003D01*
X032118Y025800D01*
X032118Y025580D01*
X032202Y025376D01*
X032358Y025220D01*
X032562Y025136D01*
X032782Y025136D01*
X032985Y025220D01*
X033141Y025376D01*
X033225Y025580D01*
X033225Y025800D01*
X033141Y026003D01*
X032985Y026159D01*
X033129Y026016D02*
X034214Y026016D01*
X034142Y025857D02*
X033202Y025857D01*
X033225Y025699D02*
X034118Y025699D01*
X034134Y025540D02*
X033209Y025540D01*
X033143Y025382D02*
X034200Y025382D01*
X034355Y025223D02*
X032988Y025223D01*
X032355Y025223D02*
X030988Y025223D01*
X030985Y025220D02*
X031141Y025376D01*
X031225Y025580D01*
X031225Y025800D01*
X031141Y026003D01*
X030985Y026159D01*
X030782Y026244D01*
X030562Y026244D01*
X030358Y026159D01*
X030202Y026003D01*
X030118Y025800D01*
X030118Y025580D01*
X030202Y025376D01*
X030358Y025220D01*
X030562Y025136D01*
X030782Y025136D01*
X030985Y025220D01*
X031143Y025382D02*
X032200Y025382D01*
X032134Y025540D02*
X031209Y025540D01*
X031225Y025699D02*
X032118Y025699D01*
X032142Y025857D02*
X031202Y025857D01*
X031129Y026016D02*
X032214Y026016D01*
X032394Y026174D02*
X030950Y026174D01*
X030394Y026174D02*
X028950Y026174D01*
X028985Y026159D02*
X028782Y026244D01*
X028562Y026244D01*
X028358Y026159D01*
X028202Y026003D01*
X028118Y025800D01*
X028118Y025580D01*
X028202Y025376D01*
X028358Y025220D01*
X028562Y025136D01*
X028782Y025136D01*
X028985Y025220D01*
X029141Y025376D01*
X029225Y025580D01*
X029225Y025800D01*
X029141Y026003D01*
X028985Y026159D01*
X029129Y026016D02*
X030214Y026016D01*
X030142Y025857D02*
X029202Y025857D01*
X029225Y025699D02*
X030118Y025699D01*
X030134Y025540D02*
X029209Y025540D01*
X029143Y025382D02*
X030200Y025382D01*
X030355Y025223D02*
X028988Y025223D01*
X028355Y025223D02*
X026988Y025223D01*
X026985Y025220D02*
X027141Y025376D01*
X027225Y025580D01*
X027225Y025800D01*
X027141Y026003D01*
X026985Y026159D01*
X026782Y026244D01*
X026562Y026244D01*
X026358Y026159D01*
X026202Y026003D01*
X026118Y025800D01*
X026118Y025580D01*
X026202Y025376D01*
X026358Y025220D01*
X026562Y025136D01*
X026782Y025136D01*
X026985Y025220D01*
X027143Y025382D02*
X028200Y025382D01*
X028134Y025540D02*
X027209Y025540D01*
X027225Y025699D02*
X028118Y025699D01*
X028142Y025857D02*
X027202Y025857D01*
X027129Y026016D02*
X028214Y026016D01*
X028394Y026174D02*
X026950Y026174D01*
X026394Y026174D02*
X024950Y026174D01*
X024985Y026159D02*
X024782Y026244D01*
X024562Y026244D01*
X024358Y026159D01*
X024202Y026003D01*
X024118Y025800D01*
X024118Y025580D01*
X024202Y025376D01*
X024358Y025220D01*
X024562Y025136D01*
X024782Y025136D01*
X024985Y025220D01*
X025141Y025376D01*
X025225Y025580D01*
X025225Y025800D01*
X025141Y026003D01*
X024985Y026159D01*
X025129Y026016D02*
X026214Y026016D01*
X026142Y025857D02*
X025202Y025857D01*
X025225Y025699D02*
X026118Y025699D01*
X026134Y025540D02*
X025209Y025540D01*
X025143Y025382D02*
X026200Y025382D01*
X026355Y025223D02*
X024988Y025223D01*
X024355Y025223D02*
X022988Y025223D01*
X022985Y025220D02*
X023141Y025376D01*
X023225Y025580D01*
X023225Y025800D01*
X023141Y026003D01*
X022985Y026159D01*
X022782Y026244D01*
X022562Y026244D01*
X022358Y026159D01*
X022202Y026003D01*
X022118Y025800D01*
X022118Y025580D01*
X022202Y025376D01*
X022358Y025220D01*
X022562Y025136D01*
X022782Y025136D01*
X022985Y025220D01*
X023143Y025382D02*
X024200Y025382D01*
X024134Y025540D02*
X023209Y025540D01*
X023225Y025699D02*
X024118Y025699D01*
X024142Y025857D02*
X023202Y025857D01*
X023129Y026016D02*
X024214Y026016D01*
X024394Y026174D02*
X022950Y026174D01*
X022394Y026174D02*
X020950Y026174D01*
X020985Y026159D02*
X020782Y026244D01*
X020562Y026244D01*
X020358Y026159D01*
X020202Y026003D01*
X020118Y025800D01*
X020118Y025580D01*
X020202Y025376D01*
X020358Y025220D01*
X020562Y025136D01*
X020782Y025136D01*
X020985Y025220D01*
X021141Y025376D01*
X021225Y025580D01*
X021225Y025800D01*
X021141Y026003D01*
X020985Y026159D01*
X021129Y026016D02*
X022214Y026016D01*
X022142Y025857D02*
X021202Y025857D01*
X021225Y025699D02*
X022118Y025699D01*
X022134Y025540D02*
X021209Y025540D01*
X021143Y025382D02*
X022200Y025382D01*
X022355Y025223D02*
X020988Y025223D01*
X020355Y025223D02*
X018988Y025223D01*
X018985Y025220D02*
X019141Y025376D01*
X019225Y025580D01*
X019225Y025800D01*
X019141Y026003D01*
X018985Y026159D01*
X018782Y026244D01*
X018562Y026244D01*
X018358Y026159D01*
X018202Y026003D01*
X018118Y025800D01*
X018118Y025580D01*
X018202Y025376D01*
X018358Y025220D01*
X018562Y025136D01*
X018782Y025136D01*
X018985Y025220D01*
X019143Y025382D02*
X020200Y025382D01*
X020134Y025540D02*
X019209Y025540D01*
X019225Y025699D02*
X020118Y025699D01*
X020142Y025857D02*
X019202Y025857D01*
X019129Y026016D02*
X020214Y026016D01*
X020394Y026174D02*
X018950Y026174D01*
X018394Y026174D02*
X016950Y026174D01*
X016985Y026159D02*
X016782Y026244D01*
X016562Y026244D01*
X016358Y026159D01*
X016202Y026003D01*
X016118Y025800D01*
X016118Y025580D01*
X016202Y025376D01*
X016358Y025220D01*
X016562Y025136D01*
X016782Y025136D01*
X016985Y025220D01*
X017141Y025376D01*
X017225Y025580D01*
X017225Y025800D01*
X017141Y026003D01*
X016985Y026159D01*
X017129Y026016D02*
X018214Y026016D01*
X018142Y025857D02*
X017202Y025857D01*
X017225Y025699D02*
X018118Y025699D01*
X018134Y025540D02*
X017209Y025540D01*
X017143Y025382D02*
X018200Y025382D01*
X018355Y025223D02*
X016988Y025223D01*
X016355Y025223D02*
X014988Y025223D01*
X014985Y025220D02*
X015141Y025376D01*
X015225Y025580D01*
X015225Y025800D01*
X015141Y026003D01*
X014985Y026159D01*
X014782Y026244D01*
X014562Y026244D01*
X014358Y026159D01*
X014202Y026003D01*
X014118Y025800D01*
X014118Y025580D01*
X014202Y025376D01*
X014358Y025220D01*
X014562Y025136D01*
X014782Y025136D01*
X014985Y025220D01*
X015143Y025382D02*
X016200Y025382D01*
X016134Y025540D02*
X015209Y025540D01*
X015225Y025699D02*
X016118Y025699D01*
X016142Y025857D02*
X015202Y025857D01*
X015129Y026016D02*
X016214Y026016D01*
X016394Y026174D02*
X014950Y026174D01*
X014394Y026174D02*
X012950Y026174D01*
X012985Y026159D02*
X012782Y026244D01*
X012562Y026244D01*
X012358Y026159D01*
X012202Y026003D01*
X012118Y025800D01*
X012118Y025580D01*
X012202Y025376D01*
X012358Y025220D01*
X012562Y025136D01*
X012782Y025136D01*
X012985Y025220D01*
X013141Y025376D01*
X013225Y025580D01*
X013225Y025800D01*
X013141Y026003D01*
X012985Y026159D01*
X013129Y026016D02*
X014214Y026016D01*
X014142Y025857D02*
X013202Y025857D01*
X013225Y025699D02*
X014118Y025699D01*
X014134Y025540D02*
X013209Y025540D01*
X013143Y025382D02*
X014200Y025382D01*
X014355Y025223D02*
X012988Y025223D01*
X012355Y025223D02*
X010988Y025223D01*
X010985Y025220D02*
X011141Y025376D01*
X011225Y025580D01*
X011225Y025800D01*
X011141Y026003D01*
X010985Y026159D01*
X010782Y026244D01*
X010562Y026244D01*
X010358Y026159D01*
X010202Y026003D01*
X010118Y025800D01*
X010118Y025580D01*
X010202Y025376D01*
X010358Y025220D01*
X010562Y025136D01*
X010782Y025136D01*
X010985Y025220D01*
X011143Y025382D02*
X012200Y025382D01*
X012134Y025540D02*
X011209Y025540D01*
X011225Y025699D02*
X012118Y025699D01*
X012142Y025857D02*
X011202Y025857D01*
X011129Y026016D02*
X012214Y026016D01*
X012394Y026174D02*
X010950Y026174D01*
X010394Y026174D02*
X008950Y026174D01*
X008985Y026159D02*
X008782Y026244D01*
X008562Y026244D01*
X008358Y026159D01*
X008202Y026003D01*
X008118Y025800D01*
X008118Y025580D01*
X008202Y025376D01*
X008358Y025220D01*
X008562Y025136D01*
X008782Y025136D01*
X008985Y025220D01*
X009141Y025376D01*
X009225Y025580D01*
X009225Y025800D01*
X009141Y026003D01*
X008985Y026159D01*
X009129Y026016D02*
X010214Y026016D01*
X010142Y025857D02*
X009202Y025857D01*
X009225Y025699D02*
X010118Y025699D01*
X010134Y025540D02*
X009209Y025540D01*
X009143Y025382D02*
X010200Y025382D01*
X010355Y025223D02*
X008988Y025223D01*
X008355Y025223D02*
X006988Y025223D01*
X006985Y025220D02*
X007141Y025376D01*
X007225Y025580D01*
X007225Y025800D01*
X007141Y026003D01*
X006985Y026159D01*
X006782Y026244D01*
X006562Y026244D01*
X006358Y026159D01*
X006202Y026003D01*
X006118Y025800D01*
X006118Y025580D01*
X006202Y025376D01*
X006358Y025220D01*
X006562Y025136D01*
X006782Y025136D01*
X006985Y025220D01*
X007143Y025382D02*
X008200Y025382D01*
X008134Y025540D02*
X007209Y025540D01*
X007225Y025699D02*
X008118Y025699D01*
X008142Y025857D02*
X007202Y025857D01*
X007129Y026016D02*
X008214Y026016D01*
X008394Y026174D02*
X006950Y026174D01*
X006394Y026174D02*
X003047Y026174D01*
X003112Y026016D02*
X006214Y026016D01*
X006142Y025857D02*
X003170Y025857D01*
X003170Y025699D02*
X006118Y025699D01*
X006134Y025540D02*
X003170Y025540D01*
X003128Y025382D02*
X006200Y025382D01*
X006355Y025223D02*
X003062Y025223D01*
X002964Y025065D02*
X055396Y025065D01*
X055554Y024906D02*
X002806Y024906D01*
X002516Y024748D02*
X055844Y024748D01*
X056516Y024748D02*
X058000Y024748D01*
X058000Y024906D02*
X056806Y024906D01*
X056964Y025065D02*
X058000Y025065D01*
X058000Y025223D02*
X057062Y025223D01*
X057128Y025382D02*
X058000Y025382D01*
X058000Y025540D02*
X057170Y025540D01*
X057170Y025699D02*
X057999Y025699D01*
X057990Y025857D02*
X057170Y025857D01*
X057112Y026016D02*
X057957Y026016D01*
X057921Y026174D02*
X057047Y026174D01*
X056927Y026333D02*
X057871Y026333D01*
X057795Y026491D02*
X056769Y026491D01*
X056426Y026650D02*
X057717Y026650D01*
X057590Y026808D02*
X000804Y026808D01*
X000963Y026967D02*
X057462Y026967D01*
X057263Y027125D02*
X001194Y027125D01*
X001019Y027024D02*
X001019Y027024D01*
X001545Y027284D02*
X057009Y027284D01*
X056568Y027442D02*
X032307Y027442D01*
X058000Y023638D02*
X005256Y023638D01*
X005463Y023480D02*
X058000Y023480D01*
X058000Y023321D02*
X005538Y023321D01*
X005555Y023163D02*
X058000Y023163D01*
X058000Y023004D02*
X005523Y023004D01*
X005428Y022846D02*
X058000Y022846D01*
X058000Y022687D02*
X005171Y022687D01*
X004939Y022687D02*
X002422Y022687D01*
X002620Y022529D02*
X058000Y022529D01*
X058000Y020468D02*
X002647Y020468D01*
X002712Y020310D02*
X058000Y020310D01*
X058000Y020151D02*
X002724Y020151D01*
X002695Y019993D02*
X058000Y019993D01*
X058000Y019834D02*
X002616Y019834D01*
X002419Y019676D02*
X004945Y019676D01*
X005165Y019676D02*
X058000Y019676D01*
X058000Y019517D02*
X005425Y019517D01*
X005522Y019359D02*
X058000Y019359D01*
X058000Y019200D02*
X005555Y019200D01*
X005539Y019042D02*
X058000Y019042D01*
X058000Y018883D02*
X005465Y018883D01*
X005262Y018725D02*
X058000Y018725D01*
X058000Y010324D02*
X051450Y010324D01*
X051607Y010166D02*
X058000Y010166D01*
X058000Y010007D02*
X051672Y010007D01*
X051677Y009849D02*
X058000Y009849D01*
X058000Y009690D02*
X051631Y009690D01*
X051515Y009532D02*
X058000Y009532D01*
X058000Y009373D02*
X029775Y009373D01*
X029577Y010007D02*
X018806Y010007D01*
X019000Y009215D02*
X058000Y009215D01*
X058000Y009056D02*
X019000Y009056D01*
X019000Y008898D02*
X058000Y008898D01*
X017499Y008739D02*
X016635Y008739D01*
X016635Y008581D02*
X017406Y008581D01*
X016969Y008422D02*
X016635Y008422D01*
X016635Y008264D02*
X016811Y008264D01*
X016656Y008105D02*
X016635Y008105D01*
X017357Y009532D02*
X015250Y009532D01*
X006636Y004301D02*
X006224Y004301D01*
X006196Y004328D02*
X006023Y004400D01*
X005837Y004400D01*
X005664Y004328D01*
X005532Y004196D01*
X005460Y004023D01*
X005460Y003837D01*
X005532Y003664D01*
X005664Y003532D01*
X005837Y003460D01*
X006023Y003460D01*
X006196Y003532D01*
X006328Y003664D01*
X006400Y003837D01*
X006400Y004023D01*
X006328Y004196D01*
X006196Y004328D01*
X006351Y004143D02*
X006509Y004143D01*
X006460Y003984D02*
X006400Y003984D01*
X006395Y003826D02*
X006465Y003826D01*
X006530Y003667D02*
X006330Y003667D01*
X006141Y003509D02*
X006719Y003509D01*
X005719Y003509D02*
X005141Y003509D01*
X005196Y003532D02*
X005328Y003664D01*
X005400Y003837D01*
X005400Y004023D01*
X005328Y004196D01*
X005196Y004328D01*
X005023Y004400D01*
X004837Y004400D01*
X004664Y004328D01*
X004532Y004196D01*
X004460Y004023D01*
X004460Y003837D01*
X004532Y003664D01*
X004664Y003532D01*
X004837Y003460D01*
X005023Y003460D01*
X005196Y003532D01*
X005330Y003667D02*
X005530Y003667D01*
X005465Y003826D02*
X005395Y003826D01*
X005400Y003984D02*
X005460Y003984D01*
X005509Y004143D02*
X005351Y004143D01*
X005224Y004301D02*
X005636Y004301D01*
X004636Y004301D02*
X004224Y004301D01*
X004196Y004328D02*
X004023Y004400D01*
X003837Y004400D01*
X003664Y004328D01*
X003532Y004196D01*
X003460Y004023D01*
X003460Y003837D01*
X003532Y003664D01*
X003664Y003532D01*
X003837Y003460D01*
X004023Y003460D01*
X004196Y003532D01*
X004328Y003664D01*
X004400Y003837D01*
X004400Y004023D01*
X004328Y004196D01*
X004196Y004328D01*
X004351Y004143D02*
X004509Y004143D01*
X004460Y003984D02*
X004400Y003984D01*
X004395Y003826D02*
X004465Y003826D01*
X004530Y003667D02*
X004330Y003667D01*
X004141Y003509D02*
X004719Y003509D01*
X003719Y003509D02*
X003141Y003509D01*
X003330Y003667D02*
X003530Y003667D01*
X003465Y003826D02*
X003395Y003826D01*
X003400Y003984D02*
X003460Y003984D01*
X003509Y004143D02*
X003351Y004143D01*
X003250Y004301D02*
X003636Y004301D01*
X002610Y004301D02*
X002252Y004301D01*
X002372Y004143D02*
X002509Y004143D01*
X002460Y003984D02*
X002418Y003984D01*
X002410Y003826D02*
X002465Y003826D01*
X002530Y003667D02*
X002345Y003667D01*
X002182Y003509D02*
X002719Y003509D01*
X001678Y003509D02*
X001141Y003509D01*
X001330Y003667D02*
X001515Y003667D01*
X001450Y003826D02*
X001395Y003826D01*
X001400Y003984D02*
X001442Y003984D01*
X001488Y004143D02*
X001351Y004143D01*
X003392Y005728D02*
X004025Y005728D01*
X004183Y005886D02*
X003405Y005886D01*
X002978Y006362D02*
X002882Y006362D01*
X014330Y003667D02*
X015833Y003667D01*
X015639Y003826D02*
X014395Y003826D01*
D19*
X016015Y006430D02*
X008430Y006430D01*
X007930Y005930D01*
X007930Y003930D01*
X004680Y005930D02*
X004680Y006430D01*
X005430Y007180D01*
X016095Y007180D01*
X016180Y007304D01*
X016180Y008306D01*
X015680Y008930D02*
X014930Y008180D01*
X013680Y008180D01*
X014430Y008930D02*
X002430Y008930D01*
X002430Y008180D01*
X000930Y006680D01*
X000930Y003930D01*
X002930Y003930D02*
X002930Y005306D01*
X004056Y005306D01*
X004680Y005930D01*
X002430Y008930D02*
X002430Y009430D01*
X002430Y010680D02*
X002680Y010930D01*
X002680Y011430D01*
X012930Y011680D02*
X012930Y009930D01*
X013930Y009930D02*
X013930Y011430D01*
X014930Y012430D01*
X044180Y012430D01*
X046180Y014430D01*
X042180Y014180D02*
X041180Y013180D01*
X014430Y013180D01*
X012930Y011680D01*
X014930Y009680D02*
X015430Y010180D01*
X018180Y010180D01*
X018680Y009680D01*
X029680Y009680D01*
X030930Y010680D01*
X018680Y009680D02*
X018680Y007430D01*
X018430Y007180D01*
X017680Y007180D01*
X016930Y006930D02*
X016680Y006680D01*
X016265Y006680D01*
X016180Y006556D01*
X016015Y006430D01*
X016930Y006930D02*
X016930Y007930D01*
X017180Y008180D01*
X017680Y008180D01*
X017680Y009180D02*
X016345Y009180D01*
X016180Y009054D01*
X016095Y008930D01*
X015680Y008930D01*
X014930Y009430D02*
X014430Y008930D01*
X014930Y009430D02*
X014930Y009680D01*
D20*
X014680Y005680D02*
X012930Y005680D01*
X011930Y004680D01*
X011930Y003930D01*
X014680Y005680D02*
X015430Y004930D01*
X015430Y004430D01*
X015930Y003930D01*
X046680Y003930D01*
D21*
X046680Y003930D03*
X030930Y010680D03*
X042180Y014180D03*
X046180Y014430D03*
X013680Y008180D03*
X002680Y011430D03*
D22*
X002180Y002180D03*
X002180Y025680D03*
X056180Y025680D03*
X056180Y002180D03*
M02*
