%
M48
M72
T01C0.0236
T02C0.0380
T03C0.0394
T04C0.0433
T05C0.0440
T06C0.0512
T07C0.0866
T08C0.1260
%
T01
X13680Y8180
X2680Y11430
X30930Y10680
X42180Y14180
X46180Y14430
X46680Y3930
T02
X13930Y3930
X12930Y3930
X11930Y3930
X10930Y3930
X9930Y3930
X8930Y3930
X7930Y3930
X6930Y3930
X5930Y3930
X4930Y3930
X3930Y3930
X2930Y3930
X1930Y3930
X930Y3930
X930Y9930
X1930Y9930
X2930Y9930
X3930Y9930
X4930Y9930
X5930Y9930
X6930Y9930
X7930Y9930
X8930Y9930
X9930Y9930
X10930Y9930
X11930Y9930
X12930Y9930
X13930Y9930
X13930Y4930
T03
X17680Y6180
X17680Y7180
X17680Y8180
X17680Y9180
X36196Y10686
X38164Y10686
X38164Y4977
X37180Y4977
X36196Y4977
T04
X45180Y5371
X45180Y6552
X51180Y6552
X51180Y5371
X51180Y9899
X45180Y9899
T05
X5055Y19180
X5055Y23180
T06
X2170Y22172
X2170Y20172
X6672Y25690
X8672Y25690
X10672Y25690
X12672Y25690
X14672Y25690
X16672Y25690
X18672Y25690
X20672Y25690
X22672Y25690
X24672Y25690
X26672Y25690
X28672Y25690
X30672Y25690
X32672Y25690
X34672Y25690
X36672Y25690
X38672Y25690
X40672Y25690
X42672Y25690
X44672Y25690
X46672Y25690
X48672Y25690
X50672Y25690
X52672Y25690
T07
X39582Y7930
X34778Y7930
T08
X2180Y2180
X2180Y25680
X56180Y25680
X56180Y2180
M30
