G75*
%MOIN*%
%OFA0B0*%
%FSLAX24Y24*%
%IPPOS*%
%LPD*%
%AMOC8*
5,1,8,0,0,1.08239X$1,22.5*
%
%ADD10C,0.0753*%
%ADD11R,0.0671X0.0592*%
%ADD12R,0.0474X0.0631*%
%ADD13R,0.0789X0.0631*%
%ADD14R,0.0560X0.0960*%
%ADD15R,0.1497X0.0946*%
%ADD16R,0.0710X0.0789*%
%ADD17R,0.0592X0.0671*%
%ADD18C,0.0700*%
%ADD19R,0.0297X0.0552*%
%ADD20R,0.0631X0.0631*%
%ADD21R,0.0552X0.0297*%
%ADD22R,0.0789X0.0710*%
%ADD23R,0.0714X0.0714*%
%ADD24C,0.0714*%
%ADD25R,0.1346X0.1346*%
%ADD26R,0.2206X0.2521*%
%ADD27R,0.0474X0.0710*%
%ADD28C,0.0867*%
%ADD29C,0.0760*%
%ADD30C,0.1740*%
D10*
X045180Y005371D03*
X045180Y006552D03*
X051180Y006552D03*
X051180Y005371D03*
X051180Y009899D03*
X045180Y009899D03*
D11*
X046430Y011556D03*
X046430Y012304D03*
X041180Y012554D03*
X041180Y011806D03*
X051680Y003804D03*
X051680Y003056D03*
X053180Y003056D03*
X053180Y003804D03*
D12*
X048804Y004863D03*
X048056Y004863D03*
X048430Y003997D03*
X048054Y016747D03*
X047306Y016747D03*
X047680Y017613D03*
X044054Y016747D03*
X043306Y016747D03*
X043680Y017613D03*
X040054Y016747D03*
X039306Y016747D03*
X039680Y017613D03*
X036054Y016747D03*
X035306Y016747D03*
X035680Y017613D03*
X032054Y016747D03*
X031306Y016747D03*
X031680Y017613D03*
X028054Y016747D03*
X027306Y016747D03*
X027680Y017613D03*
X024054Y016747D03*
X023306Y016747D03*
X023680Y017613D03*
X020054Y016747D03*
X019306Y016747D03*
X019680Y017613D03*
X016054Y016747D03*
X015306Y016747D03*
X015680Y017613D03*
X012054Y016747D03*
X011306Y016747D03*
X011680Y017613D03*
X008054Y016747D03*
X007306Y016747D03*
X007680Y017613D03*
X051306Y016747D03*
X052054Y016747D03*
X051680Y017613D03*
D13*
X049930Y004349D03*
X049930Y003011D03*
D14*
X003590Y012460D03*
X002680Y012460D03*
X001770Y012460D03*
D15*
X002680Y014900D03*
D16*
X003129Y016680D03*
X004231Y016680D03*
X002231Y018180D03*
X001129Y018180D03*
D17*
X003306Y018180D03*
X004054Y018180D03*
X002054Y016680D03*
X001306Y016680D03*
X006306Y015180D03*
X007054Y015180D03*
X008306Y015180D03*
X009054Y015180D03*
X010306Y015180D03*
X011054Y015180D03*
X012306Y015180D03*
X013054Y015180D03*
X014306Y015180D03*
X015054Y015180D03*
X016306Y015180D03*
X017054Y015180D03*
X018306Y015180D03*
X019054Y015180D03*
X020306Y015180D03*
X021054Y015180D03*
X022306Y015180D03*
X023054Y015180D03*
X024306Y015180D03*
X025054Y015180D03*
X026306Y015180D03*
X027054Y015180D03*
X028306Y015180D03*
X029054Y015180D03*
X030306Y015180D03*
X031054Y015180D03*
X032306Y015180D03*
X033054Y015180D03*
X034306Y015180D03*
X035054Y015180D03*
X036306Y015180D03*
X037054Y015180D03*
X038306Y015180D03*
X039054Y015180D03*
X040306Y015180D03*
X041054Y015180D03*
X042306Y015180D03*
X043054Y015180D03*
X044306Y015180D03*
X045054Y015180D03*
X046306Y015180D03*
X047054Y015180D03*
X048306Y015180D03*
X049054Y015180D03*
X050306Y015180D03*
X051054Y015180D03*
X052306Y015180D03*
X053054Y015180D03*
X040956Y010574D03*
X040208Y010574D03*
X038304Y012430D03*
X037556Y012430D03*
X041806Y007680D03*
X042554Y007680D03*
X042554Y006180D03*
X041806Y006180D03*
D18*
X013930Y004930D03*
X013930Y003930D03*
X012930Y003930D03*
X011930Y003930D03*
X010930Y003930D03*
X009930Y003930D03*
X008930Y003930D03*
X007930Y003930D03*
X006930Y003930D03*
X005930Y003930D03*
X004930Y003930D03*
X003930Y003930D03*
X002930Y003930D03*
X001930Y003930D03*
X000930Y003930D03*
X000930Y009930D03*
X001930Y009930D03*
X002930Y009930D03*
X003930Y009930D03*
X004930Y009930D03*
X005930Y009930D03*
X006930Y009930D03*
X007930Y009930D03*
X008930Y009930D03*
X009930Y009930D03*
X010930Y009930D03*
X011930Y009930D03*
X012930Y009930D03*
X013930Y009930D03*
D19*
X041806Y010192D03*
X042554Y010192D03*
X042554Y009168D03*
X042180Y009168D03*
X041806Y009168D03*
D20*
X042932Y023180D03*
X044428Y023180D03*
X046932Y023180D03*
X048428Y023180D03*
X050932Y023180D03*
X052428Y023180D03*
X040428Y023180D03*
X038932Y023180D03*
X036428Y023180D03*
X034932Y023180D03*
X032428Y023180D03*
X030932Y023180D03*
X028428Y023180D03*
X026932Y023180D03*
X024428Y023180D03*
X022932Y023180D03*
X020428Y023180D03*
X018932Y023180D03*
X016428Y023180D03*
X014932Y023180D03*
X012428Y023180D03*
X010932Y023180D03*
X008428Y023180D03*
X006932Y023180D03*
D21*
X042418Y012554D03*
X042418Y012180D03*
X042418Y011806D03*
X043442Y011806D03*
X043442Y012554D03*
D22*
X045180Y012231D03*
X045180Y011129D03*
X039930Y011629D03*
X039930Y012731D03*
D23*
X038164Y010686D03*
X036196Y010686D03*
X036196Y004977D03*
X037180Y004977D03*
X038164Y004977D03*
X017680Y006180D03*
D24*
X017680Y007180D03*
X017680Y008180D03*
X017680Y009180D03*
D25*
X034778Y007930D03*
X039582Y007930D03*
D26*
X039680Y021164D03*
X035680Y021164D03*
X031680Y021164D03*
X027680Y021164D03*
X023680Y021164D03*
X019680Y021164D03*
X015680Y021164D03*
X011680Y021164D03*
X007680Y021164D03*
X043680Y021164D03*
X047680Y021164D03*
X051680Y021164D03*
D27*
X050782Y018290D03*
X052578Y018290D03*
X048578Y018290D03*
X046782Y018290D03*
X044578Y018290D03*
X042782Y018290D03*
X040578Y018290D03*
X038782Y018290D03*
X036578Y018290D03*
X034782Y018290D03*
X032578Y018290D03*
X030782Y018290D03*
X028578Y018290D03*
X026782Y018290D03*
X024578Y018290D03*
X022782Y018290D03*
X020578Y018290D03*
X018782Y018290D03*
X016578Y018290D03*
X014782Y018290D03*
X012578Y018290D03*
X010782Y018290D03*
X008578Y018290D03*
X006782Y018290D03*
D28*
X002170Y020172D03*
X002170Y022172D03*
X006672Y025690D03*
X008672Y025690D03*
X010672Y025690D03*
X012672Y025690D03*
X014672Y025690D03*
X016672Y025690D03*
X018672Y025690D03*
X020672Y025690D03*
X022672Y025690D03*
X024672Y025690D03*
X026672Y025690D03*
X028672Y025690D03*
X030672Y025690D03*
X032672Y025690D03*
X034672Y025690D03*
X036672Y025690D03*
X038672Y025690D03*
X040672Y025690D03*
X042672Y025690D03*
X044672Y025690D03*
X046672Y025690D03*
X048672Y025690D03*
X050672Y025690D03*
X052672Y025690D03*
D29*
X005055Y023180D03*
X005055Y019180D03*
D30*
X002180Y002180D03*
X002180Y025680D03*
X056180Y025680D03*
X056180Y002180D03*
M02*
