G75*
%MOIN*%
%OFA0B0*%
%FSLAX24Y24*%
%IPPOS*%
%LPD*%
%AMOC8*
5,1,8,0,0,1.08239X$1,22.5*
%
%ADD10C,0.0000*%
D10*
X002180Y000180D02*
X056180Y000180D01*
X056267Y000182D01*
X056354Y000188D01*
X056441Y000197D01*
X056527Y000210D01*
X056613Y000227D01*
X056698Y000248D01*
X056781Y000273D01*
X056864Y000301D01*
X056945Y000332D01*
X057025Y000367D01*
X057103Y000406D01*
X057180Y000448D01*
X057255Y000493D01*
X057327Y000542D01*
X057398Y000593D01*
X057466Y000648D01*
X057531Y000705D01*
X057594Y000766D01*
X057655Y000829D01*
X057712Y000894D01*
X057767Y000962D01*
X057818Y001033D01*
X057867Y001105D01*
X057912Y001180D01*
X057954Y001257D01*
X057993Y001335D01*
X058028Y001415D01*
X058059Y001496D01*
X058087Y001579D01*
X058112Y001662D01*
X058133Y001747D01*
X058150Y001833D01*
X058163Y001919D01*
X058172Y002006D01*
X058178Y002093D01*
X058180Y002180D01*
X058180Y025676D01*
X058178Y025763D01*
X058172Y025851D01*
X058163Y025937D01*
X058150Y026024D01*
X058132Y026109D01*
X058112Y026194D01*
X058087Y026278D01*
X058059Y026361D01*
X058027Y026442D01*
X057992Y026522D01*
X057953Y026601D01*
X057911Y026677D01*
X057866Y026752D01*
X057817Y026825D01*
X057766Y026895D01*
X057711Y026963D01*
X057653Y027029D01*
X057593Y027092D01*
X057529Y027152D01*
X057464Y027210D01*
X057395Y027264D01*
X057325Y027316D01*
X057252Y027364D01*
X057177Y027410D01*
X057101Y027451D01*
X057022Y027490D01*
X056942Y027525D01*
X056861Y027557D01*
X056778Y027585D01*
X056694Y027609D01*
X056609Y027629D01*
X056523Y027646D01*
X056437Y027659D01*
X056350Y027669D01*
X056263Y027674D01*
X056176Y027676D01*
X002046Y027554D01*
X001960Y027552D01*
X001873Y027546D01*
X001788Y027536D01*
X001703Y027521D01*
X001618Y027503D01*
X001535Y027482D01*
X001453Y027456D01*
X001371Y027427D01*
X001292Y027393D01*
X001214Y027357D01*
X001138Y027316D01*
X001063Y027272D01*
X000991Y027225D01*
X000921Y027175D01*
X000854Y027121D01*
X000789Y027064D01*
X000726Y027005D01*
X000667Y026942D01*
X000610Y026877D01*
X000557Y026810D01*
X000506Y026739D01*
X000459Y026667D01*
X000416Y026593D01*
X000376Y026516D01*
X000339Y026438D01*
X000306Y026359D01*
X000277Y026277D01*
X000251Y026195D01*
X000230Y026112D01*
X000212Y026027D01*
X000198Y025942D01*
X000188Y025856D01*
X000182Y025770D01*
X000180Y025684D01*
X000180Y002180D01*
X000182Y002093D01*
X000188Y002006D01*
X000197Y001919D01*
X000210Y001833D01*
X000227Y001747D01*
X000248Y001662D01*
X000273Y001579D01*
X000301Y001496D01*
X000332Y001415D01*
X000367Y001335D01*
X000406Y001257D01*
X000448Y001180D01*
X000493Y001105D01*
X000542Y001033D01*
X000593Y000962D01*
X000648Y000894D01*
X000705Y000829D01*
X000766Y000766D01*
X000829Y000705D01*
X000894Y000648D01*
X000962Y000593D01*
X001033Y000542D01*
X001105Y000493D01*
X001180Y000448D01*
X001257Y000406D01*
X001335Y000367D01*
X001415Y000332D01*
X001496Y000301D01*
X001579Y000273D01*
X001662Y000248D01*
X001747Y000227D01*
X001833Y000210D01*
X001919Y000197D01*
X002006Y000188D01*
X002093Y000182D01*
X002180Y000180D01*
M02*
