G75*
%MOIN*%
%OFA0B0*%
%FSLAX24Y24*%
%IPPOS*%
%LPD*%
%AMOC8*
5,1,8,0,0,1.08239X$1,22.5*
%
%ADD10C,0.0080*%
%ADD11C,0.0040*%
D10*
X000430Y003430D02*
X014430Y003430D01*
X014430Y010430D01*
X000430Y010430D01*
X000430Y007430D01*
X000930Y007430D01*
X000930Y006430D01*
X000430Y006430D01*
X000430Y003430D01*
D11*
X003575Y005152D02*
X003575Y005305D01*
X003652Y005382D01*
X003575Y005535D02*
X003575Y005842D01*
X003575Y005689D02*
X004035Y005689D01*
X003882Y005535D01*
X003959Y005382D02*
X004035Y005305D01*
X004035Y005152D01*
X003959Y005075D01*
X003652Y005075D01*
X003575Y005152D01*
X003652Y005996D02*
X003959Y006303D01*
X003652Y006303D01*
X003575Y006226D01*
X003575Y006073D01*
X003652Y005996D01*
X003959Y005996D01*
X004035Y006073D01*
X004035Y006226D01*
X003959Y006303D01*
X015075Y006325D02*
X015535Y006325D01*
X015535Y006555D01*
X015459Y006632D01*
X015305Y006632D01*
X015228Y006555D01*
X015228Y006325D01*
X015228Y006478D02*
X015075Y006632D01*
X015075Y006785D02*
X015535Y006785D01*
X015535Y007016D01*
X015459Y007092D01*
X015305Y007092D01*
X015228Y007016D01*
X015228Y006785D01*
X015075Y007246D02*
X015075Y007553D01*
X015075Y007399D02*
X015535Y007399D01*
X015382Y007246D01*
X015535Y007944D02*
X015075Y007944D01*
X015228Y007944D02*
X015228Y008174D01*
X015305Y008251D01*
X015459Y008251D01*
X015535Y008174D01*
X015535Y007944D01*
X015228Y008097D02*
X015075Y008251D01*
X015075Y008404D02*
X015535Y008404D01*
X015535Y008634D01*
X015459Y008711D01*
X015305Y008711D01*
X015228Y008634D01*
X015228Y008404D01*
X015075Y008865D02*
X015382Y009172D01*
X015459Y009172D01*
X015535Y009095D01*
X015535Y008941D01*
X015459Y008865D01*
X015075Y008865D02*
X015075Y009172D01*
M02*
