G75*
%MOIN*%
%OFA0B0*%
%FSLAX24Y24*%
%IPPOS*%
%LPD*%
%AMOC8*
5,1,8,0,0,1.08239X$1,22.5*
%
%ADD10C,0.0060*%
%ADD11C,0.0080*%
%ADD12C,0.0160*%
%ADD13C,0.0050*%
%ADD14C,0.0030*%
%ADD15R,0.0620X0.0240*%
%ADD16C,0.0040*%
%ADD17C,0.0020*%
%ADD18R,0.0340X0.0300*%
%ADD19R,0.1000X0.0200*%
%ADD20R,0.0300X0.0750*%
D10*
X004460Y006710D02*
X004460Y007351D01*
X004887Y007351D01*
X005105Y007351D02*
X005318Y007351D01*
X005211Y007351D02*
X005211Y006710D01*
X005105Y006710D02*
X005318Y006710D01*
X005748Y006710D02*
X005748Y007351D01*
X005961Y007351D02*
X005534Y007351D01*
X004674Y007030D02*
X004460Y007030D01*
X006823Y006817D02*
X006930Y006710D01*
X007144Y006710D01*
X007250Y006817D01*
X007250Y007244D01*
X007144Y007351D01*
X006930Y007351D01*
X006823Y007244D01*
X006823Y006817D01*
X007468Y006710D02*
X007468Y007351D01*
X007895Y006710D01*
X007895Y007351D01*
X008757Y007351D02*
X008757Y006710D01*
X008757Y006924D02*
X009077Y006924D01*
X009184Y007030D01*
X009184Y007244D01*
X009077Y007351D01*
X008757Y007351D01*
X009402Y007351D02*
X009402Y006710D01*
X009829Y006710D01*
X010046Y006710D02*
X010046Y007137D01*
X010260Y007351D01*
X010473Y007137D01*
X010473Y006710D01*
X010691Y006710D02*
X010691Y007351D01*
X011011Y007351D01*
X011118Y007244D01*
X011118Y007030D01*
X011011Y006924D01*
X010691Y006924D01*
X010904Y006924D02*
X011118Y006710D01*
X010473Y007030D02*
X010046Y007030D01*
X009829Y007351D02*
X009402Y007351D01*
X009402Y007030D02*
X009615Y007030D01*
X009184Y006710D02*
X008971Y006924D01*
X005555Y020380D02*
X004555Y020380D01*
X004555Y021980D01*
X005555Y021980D01*
X005555Y020380D01*
X005305Y020780D02*
X004805Y020780D01*
X005055Y021180D01*
X004805Y021180D01*
X005055Y021180D02*
X005305Y021180D01*
X005055Y021180D02*
X005305Y020780D01*
X005055Y020580D02*
X005055Y021180D01*
X005055Y021430D01*
X041620Y009999D02*
X041620Y009361D01*
X041657Y009361D01*
X041974Y009361D02*
X042012Y009361D01*
X042348Y009361D02*
X042386Y009361D01*
X042703Y009361D02*
X042740Y009361D01*
X042740Y009999D01*
X042703Y009999D01*
X042386Y009999D02*
X041974Y009999D01*
X041657Y009999D02*
X041620Y009999D01*
X042611Y011620D02*
X042611Y011657D01*
X042611Y011620D02*
X043249Y011620D01*
X043249Y011657D01*
X043249Y011974D02*
X043249Y012386D01*
X043249Y012703D02*
X043249Y012740D01*
X042611Y012740D01*
X042611Y012703D01*
X042611Y012386D02*
X042611Y012349D01*
X042611Y012011D02*
X042611Y011974D01*
D11*
X042390Y019330D02*
X042390Y021690D01*
X040970Y021690D02*
X040970Y019330D01*
X038390Y019330D01*
X038390Y021690D01*
X036970Y021690D02*
X036970Y019330D01*
X034390Y019330D01*
X034390Y021690D01*
X032970Y021690D02*
X032970Y019330D01*
X030390Y019330D01*
X030390Y021690D01*
X028970Y021690D02*
X028970Y019330D01*
X026390Y019330D01*
X026390Y021690D01*
X024970Y021690D02*
X024970Y019330D01*
X022390Y019330D01*
X022390Y021690D01*
X020970Y021690D02*
X020970Y019330D01*
X018390Y019330D01*
X018390Y021690D01*
X016970Y021690D02*
X016970Y019330D01*
X014390Y019330D01*
X014390Y021690D01*
X012970Y021690D02*
X012970Y019330D01*
X010390Y019330D01*
X010390Y021690D01*
X008970Y021690D02*
X008970Y019330D01*
X006390Y019330D01*
X006390Y021690D01*
X004152Y020487D02*
X004152Y019873D01*
X003845Y020180D02*
X004459Y020180D01*
X003774Y019172D02*
X003656Y019172D01*
X003656Y023172D01*
X003774Y023172D01*
X003774Y019172D01*
X003656Y019172D02*
X003490Y019172D01*
X003411Y019172D01*
X003411Y023172D01*
X003656Y023172D01*
X003411Y023172D02*
X003144Y023172D01*
X002950Y023172D01*
X001376Y023172D01*
X001186Y023172D01*
X000586Y023172D01*
X000586Y019172D01*
X001186Y019172D01*
X001376Y019172D01*
X002950Y019172D01*
X003144Y019172D01*
X003144Y023172D01*
X001186Y023172D02*
X001186Y019172D01*
X003144Y019172D02*
X003327Y019172D01*
X003411Y019172D01*
X003490Y019172D02*
X003490Y019121D01*
X003549Y019051D01*
X003549Y018947D01*
X003268Y018947D01*
X003268Y019051D01*
X003327Y019121D01*
X003327Y019172D01*
X001416Y020172D02*
X001418Y020226D01*
X001424Y020281D01*
X001434Y020334D01*
X001447Y020387D01*
X001465Y020438D01*
X001486Y020489D01*
X001510Y020537D01*
X001538Y020584D01*
X001570Y020628D01*
X001604Y020670D01*
X001642Y020710D01*
X001682Y020747D01*
X001725Y020780D01*
X001770Y020811D01*
X001817Y020838D01*
X001866Y020862D01*
X001916Y020882D01*
X001968Y020899D01*
X002021Y020911D01*
X002075Y020920D01*
X002129Y020925D01*
X002184Y020926D01*
X002238Y020923D01*
X002292Y020916D01*
X002345Y020905D01*
X002398Y020891D01*
X002449Y020872D01*
X002499Y020850D01*
X002547Y020825D01*
X002593Y020796D01*
X002637Y020764D01*
X002679Y020729D01*
X002717Y020691D01*
X002753Y020650D01*
X002786Y020606D01*
X002816Y020561D01*
X002842Y020513D01*
X002865Y020464D01*
X002885Y020413D01*
X002900Y020361D01*
X002912Y020307D01*
X002920Y020254D01*
X002924Y020199D01*
X002924Y020145D01*
X002920Y020090D01*
X002912Y020037D01*
X002900Y019983D01*
X002885Y019931D01*
X002865Y019880D01*
X002842Y019831D01*
X002816Y019783D01*
X002786Y019738D01*
X002753Y019694D01*
X002717Y019653D01*
X002679Y019615D01*
X002637Y019580D01*
X002593Y019548D01*
X002547Y019519D01*
X002499Y019494D01*
X002449Y019472D01*
X002398Y019453D01*
X002345Y019439D01*
X002292Y019428D01*
X002238Y019421D01*
X002184Y019418D01*
X002129Y019419D01*
X002075Y019424D01*
X002021Y019433D01*
X001968Y019445D01*
X001916Y019462D01*
X001866Y019482D01*
X001817Y019506D01*
X001770Y019533D01*
X001725Y019564D01*
X001682Y019597D01*
X001642Y019634D01*
X001604Y019674D01*
X001570Y019716D01*
X001538Y019760D01*
X001510Y019807D01*
X001486Y019855D01*
X001465Y019906D01*
X001447Y019957D01*
X001434Y020010D01*
X001424Y020063D01*
X001418Y020118D01*
X001416Y020172D01*
X001416Y022172D02*
X001418Y022226D01*
X001424Y022281D01*
X001434Y022334D01*
X001447Y022387D01*
X001465Y022438D01*
X001486Y022489D01*
X001510Y022537D01*
X001538Y022584D01*
X001570Y022628D01*
X001604Y022670D01*
X001642Y022710D01*
X001682Y022747D01*
X001725Y022780D01*
X001770Y022811D01*
X001817Y022838D01*
X001866Y022862D01*
X001916Y022882D01*
X001968Y022899D01*
X002021Y022911D01*
X002075Y022920D01*
X002129Y022925D01*
X002184Y022926D01*
X002238Y022923D01*
X002292Y022916D01*
X002345Y022905D01*
X002398Y022891D01*
X002449Y022872D01*
X002499Y022850D01*
X002547Y022825D01*
X002593Y022796D01*
X002637Y022764D01*
X002679Y022729D01*
X002717Y022691D01*
X002753Y022650D01*
X002786Y022606D01*
X002816Y022561D01*
X002842Y022513D01*
X002865Y022464D01*
X002885Y022413D01*
X002900Y022361D01*
X002912Y022307D01*
X002920Y022254D01*
X002924Y022199D01*
X002924Y022145D01*
X002920Y022090D01*
X002912Y022037D01*
X002900Y021983D01*
X002885Y021931D01*
X002865Y021880D01*
X002842Y021831D01*
X002816Y021783D01*
X002786Y021738D01*
X002753Y021694D01*
X002717Y021653D01*
X002679Y021615D01*
X002637Y021580D01*
X002593Y021548D01*
X002547Y021519D01*
X002499Y021494D01*
X002449Y021472D01*
X002398Y021453D01*
X002345Y021439D01*
X002292Y021428D01*
X002238Y021421D01*
X002184Y021418D01*
X002129Y021419D01*
X002075Y021424D01*
X002021Y021433D01*
X001968Y021445D01*
X001916Y021462D01*
X001866Y021482D01*
X001817Y021506D01*
X001770Y021533D01*
X001725Y021564D01*
X001682Y021597D01*
X001642Y021634D01*
X001604Y021674D01*
X001570Y021716D01*
X001538Y021760D01*
X001510Y021807D01*
X001486Y021855D01*
X001465Y021906D01*
X001447Y021957D01*
X001434Y022010D01*
X001424Y022063D01*
X001418Y022118D01*
X001416Y022172D01*
X005672Y024086D02*
X005672Y024204D01*
X009672Y024204D01*
X009672Y024086D01*
X013672Y024086D01*
X013672Y024204D01*
X017672Y024204D01*
X017672Y024086D01*
X021672Y024086D01*
X021672Y024204D01*
X025672Y024204D01*
X025672Y024086D01*
X029672Y024086D01*
X029672Y024204D01*
X033672Y024204D01*
X033672Y024086D01*
X037672Y024086D01*
X037672Y024204D01*
X041672Y024204D01*
X041672Y024086D01*
X045672Y024086D01*
X045672Y024204D01*
X049672Y024204D01*
X049672Y024086D01*
X053672Y024086D01*
X053672Y024204D01*
X049672Y024204D01*
X049672Y024370D01*
X049672Y024449D01*
X053672Y024449D01*
X053672Y024204D01*
X053672Y024449D02*
X053672Y024716D01*
X053672Y024910D01*
X053672Y026484D01*
X053672Y026674D01*
X053672Y027274D01*
X049672Y027274D01*
X049672Y026674D01*
X049672Y026484D01*
X049672Y024910D01*
X049672Y024716D01*
X053672Y024716D01*
X051918Y025690D02*
X051920Y025744D01*
X051926Y025799D01*
X051936Y025852D01*
X051949Y025905D01*
X051967Y025956D01*
X051988Y026007D01*
X052012Y026055D01*
X052040Y026102D01*
X052072Y026146D01*
X052106Y026188D01*
X052144Y026228D01*
X052184Y026265D01*
X052227Y026298D01*
X052272Y026329D01*
X052319Y026356D01*
X052368Y026380D01*
X052418Y026400D01*
X052470Y026417D01*
X052523Y026429D01*
X052577Y026438D01*
X052631Y026443D01*
X052686Y026444D01*
X052740Y026441D01*
X052794Y026434D01*
X052847Y026423D01*
X052900Y026409D01*
X052951Y026390D01*
X053001Y026368D01*
X053049Y026343D01*
X053095Y026314D01*
X053139Y026282D01*
X053181Y026247D01*
X053219Y026209D01*
X053255Y026168D01*
X053288Y026124D01*
X053318Y026079D01*
X053344Y026031D01*
X053367Y025982D01*
X053387Y025931D01*
X053402Y025879D01*
X053414Y025825D01*
X053422Y025772D01*
X053426Y025717D01*
X053426Y025663D01*
X053422Y025608D01*
X053414Y025555D01*
X053402Y025501D01*
X053387Y025449D01*
X053367Y025398D01*
X053344Y025349D01*
X053318Y025301D01*
X053288Y025256D01*
X053255Y025212D01*
X053219Y025171D01*
X053181Y025133D01*
X053139Y025098D01*
X053095Y025066D01*
X053049Y025037D01*
X053001Y025012D01*
X052951Y024990D01*
X052900Y024971D01*
X052847Y024957D01*
X052794Y024946D01*
X052740Y024939D01*
X052686Y024936D01*
X052631Y024937D01*
X052577Y024942D01*
X052523Y024951D01*
X052470Y024963D01*
X052418Y024980D01*
X052368Y025000D01*
X052319Y025024D01*
X052272Y025051D01*
X052227Y025082D01*
X052184Y025115D01*
X052144Y025152D01*
X052106Y025192D01*
X052072Y025234D01*
X052040Y025278D01*
X052012Y025325D01*
X051988Y025373D01*
X051967Y025424D01*
X051949Y025475D01*
X051936Y025528D01*
X051926Y025581D01*
X051920Y025636D01*
X051918Y025690D01*
X049918Y025690D02*
X049920Y025744D01*
X049926Y025799D01*
X049936Y025852D01*
X049949Y025905D01*
X049967Y025956D01*
X049988Y026007D01*
X050012Y026055D01*
X050040Y026102D01*
X050072Y026146D01*
X050106Y026188D01*
X050144Y026228D01*
X050184Y026265D01*
X050227Y026298D01*
X050272Y026329D01*
X050319Y026356D01*
X050368Y026380D01*
X050418Y026400D01*
X050470Y026417D01*
X050523Y026429D01*
X050577Y026438D01*
X050631Y026443D01*
X050686Y026444D01*
X050740Y026441D01*
X050794Y026434D01*
X050847Y026423D01*
X050900Y026409D01*
X050951Y026390D01*
X051001Y026368D01*
X051049Y026343D01*
X051095Y026314D01*
X051139Y026282D01*
X051181Y026247D01*
X051219Y026209D01*
X051255Y026168D01*
X051288Y026124D01*
X051318Y026079D01*
X051344Y026031D01*
X051367Y025982D01*
X051387Y025931D01*
X051402Y025879D01*
X051414Y025825D01*
X051422Y025772D01*
X051426Y025717D01*
X051426Y025663D01*
X051422Y025608D01*
X051414Y025555D01*
X051402Y025501D01*
X051387Y025449D01*
X051367Y025398D01*
X051344Y025349D01*
X051318Y025301D01*
X051288Y025256D01*
X051255Y025212D01*
X051219Y025171D01*
X051181Y025133D01*
X051139Y025098D01*
X051095Y025066D01*
X051049Y025037D01*
X051001Y025012D01*
X050951Y024990D01*
X050900Y024971D01*
X050847Y024957D01*
X050794Y024946D01*
X050740Y024939D01*
X050686Y024936D01*
X050631Y024937D01*
X050577Y024942D01*
X050523Y024951D01*
X050470Y024963D01*
X050418Y024980D01*
X050368Y025000D01*
X050319Y025024D01*
X050272Y025051D01*
X050227Y025082D01*
X050184Y025115D01*
X050144Y025152D01*
X050106Y025192D01*
X050072Y025234D01*
X050040Y025278D01*
X050012Y025325D01*
X049988Y025373D01*
X049967Y025424D01*
X049949Y025475D01*
X049936Y025528D01*
X049926Y025581D01*
X049920Y025636D01*
X049918Y025690D01*
X047918Y025690D02*
X047920Y025744D01*
X047926Y025799D01*
X047936Y025852D01*
X047949Y025905D01*
X047967Y025956D01*
X047988Y026007D01*
X048012Y026055D01*
X048040Y026102D01*
X048072Y026146D01*
X048106Y026188D01*
X048144Y026228D01*
X048184Y026265D01*
X048227Y026298D01*
X048272Y026329D01*
X048319Y026356D01*
X048368Y026380D01*
X048418Y026400D01*
X048470Y026417D01*
X048523Y026429D01*
X048577Y026438D01*
X048631Y026443D01*
X048686Y026444D01*
X048740Y026441D01*
X048794Y026434D01*
X048847Y026423D01*
X048900Y026409D01*
X048951Y026390D01*
X049001Y026368D01*
X049049Y026343D01*
X049095Y026314D01*
X049139Y026282D01*
X049181Y026247D01*
X049219Y026209D01*
X049255Y026168D01*
X049288Y026124D01*
X049318Y026079D01*
X049344Y026031D01*
X049367Y025982D01*
X049387Y025931D01*
X049402Y025879D01*
X049414Y025825D01*
X049422Y025772D01*
X049426Y025717D01*
X049426Y025663D01*
X049422Y025608D01*
X049414Y025555D01*
X049402Y025501D01*
X049387Y025449D01*
X049367Y025398D01*
X049344Y025349D01*
X049318Y025301D01*
X049288Y025256D01*
X049255Y025212D01*
X049219Y025171D01*
X049181Y025133D01*
X049139Y025098D01*
X049095Y025066D01*
X049049Y025037D01*
X049001Y025012D01*
X048951Y024990D01*
X048900Y024971D01*
X048847Y024957D01*
X048794Y024946D01*
X048740Y024939D01*
X048686Y024936D01*
X048631Y024937D01*
X048577Y024942D01*
X048523Y024951D01*
X048470Y024963D01*
X048418Y024980D01*
X048368Y025000D01*
X048319Y025024D01*
X048272Y025051D01*
X048227Y025082D01*
X048184Y025115D01*
X048144Y025152D01*
X048106Y025192D01*
X048072Y025234D01*
X048040Y025278D01*
X048012Y025325D01*
X047988Y025373D01*
X047967Y025424D01*
X047949Y025475D01*
X047936Y025528D01*
X047926Y025581D01*
X047920Y025636D01*
X047918Y025690D01*
X045918Y025690D02*
X045920Y025744D01*
X045926Y025799D01*
X045936Y025852D01*
X045949Y025905D01*
X045967Y025956D01*
X045988Y026007D01*
X046012Y026055D01*
X046040Y026102D01*
X046072Y026146D01*
X046106Y026188D01*
X046144Y026228D01*
X046184Y026265D01*
X046227Y026298D01*
X046272Y026329D01*
X046319Y026356D01*
X046368Y026380D01*
X046418Y026400D01*
X046470Y026417D01*
X046523Y026429D01*
X046577Y026438D01*
X046631Y026443D01*
X046686Y026444D01*
X046740Y026441D01*
X046794Y026434D01*
X046847Y026423D01*
X046900Y026409D01*
X046951Y026390D01*
X047001Y026368D01*
X047049Y026343D01*
X047095Y026314D01*
X047139Y026282D01*
X047181Y026247D01*
X047219Y026209D01*
X047255Y026168D01*
X047288Y026124D01*
X047318Y026079D01*
X047344Y026031D01*
X047367Y025982D01*
X047387Y025931D01*
X047402Y025879D01*
X047414Y025825D01*
X047422Y025772D01*
X047426Y025717D01*
X047426Y025663D01*
X047422Y025608D01*
X047414Y025555D01*
X047402Y025501D01*
X047387Y025449D01*
X047367Y025398D01*
X047344Y025349D01*
X047318Y025301D01*
X047288Y025256D01*
X047255Y025212D01*
X047219Y025171D01*
X047181Y025133D01*
X047139Y025098D01*
X047095Y025066D01*
X047049Y025037D01*
X047001Y025012D01*
X046951Y024990D01*
X046900Y024971D01*
X046847Y024957D01*
X046794Y024946D01*
X046740Y024939D01*
X046686Y024936D01*
X046631Y024937D01*
X046577Y024942D01*
X046523Y024951D01*
X046470Y024963D01*
X046418Y024980D01*
X046368Y025000D01*
X046319Y025024D01*
X046272Y025051D01*
X046227Y025082D01*
X046184Y025115D01*
X046144Y025152D01*
X046106Y025192D01*
X046072Y025234D01*
X046040Y025278D01*
X046012Y025325D01*
X045988Y025373D01*
X045967Y025424D01*
X045949Y025475D01*
X045936Y025528D01*
X045926Y025581D01*
X045920Y025636D01*
X045918Y025690D01*
X043918Y025690D02*
X043920Y025744D01*
X043926Y025799D01*
X043936Y025852D01*
X043949Y025905D01*
X043967Y025956D01*
X043988Y026007D01*
X044012Y026055D01*
X044040Y026102D01*
X044072Y026146D01*
X044106Y026188D01*
X044144Y026228D01*
X044184Y026265D01*
X044227Y026298D01*
X044272Y026329D01*
X044319Y026356D01*
X044368Y026380D01*
X044418Y026400D01*
X044470Y026417D01*
X044523Y026429D01*
X044577Y026438D01*
X044631Y026443D01*
X044686Y026444D01*
X044740Y026441D01*
X044794Y026434D01*
X044847Y026423D01*
X044900Y026409D01*
X044951Y026390D01*
X045001Y026368D01*
X045049Y026343D01*
X045095Y026314D01*
X045139Y026282D01*
X045181Y026247D01*
X045219Y026209D01*
X045255Y026168D01*
X045288Y026124D01*
X045318Y026079D01*
X045344Y026031D01*
X045367Y025982D01*
X045387Y025931D01*
X045402Y025879D01*
X045414Y025825D01*
X045422Y025772D01*
X045426Y025717D01*
X045426Y025663D01*
X045422Y025608D01*
X045414Y025555D01*
X045402Y025501D01*
X045387Y025449D01*
X045367Y025398D01*
X045344Y025349D01*
X045318Y025301D01*
X045288Y025256D01*
X045255Y025212D01*
X045219Y025171D01*
X045181Y025133D01*
X045139Y025098D01*
X045095Y025066D01*
X045049Y025037D01*
X045001Y025012D01*
X044951Y024990D01*
X044900Y024971D01*
X044847Y024957D01*
X044794Y024946D01*
X044740Y024939D01*
X044686Y024936D01*
X044631Y024937D01*
X044577Y024942D01*
X044523Y024951D01*
X044470Y024963D01*
X044418Y024980D01*
X044368Y025000D01*
X044319Y025024D01*
X044272Y025051D01*
X044227Y025082D01*
X044184Y025115D01*
X044144Y025152D01*
X044106Y025192D01*
X044072Y025234D01*
X044040Y025278D01*
X044012Y025325D01*
X043988Y025373D01*
X043967Y025424D01*
X043949Y025475D01*
X043936Y025528D01*
X043926Y025581D01*
X043920Y025636D01*
X043918Y025690D01*
X041918Y025690D02*
X041920Y025744D01*
X041926Y025799D01*
X041936Y025852D01*
X041949Y025905D01*
X041967Y025956D01*
X041988Y026007D01*
X042012Y026055D01*
X042040Y026102D01*
X042072Y026146D01*
X042106Y026188D01*
X042144Y026228D01*
X042184Y026265D01*
X042227Y026298D01*
X042272Y026329D01*
X042319Y026356D01*
X042368Y026380D01*
X042418Y026400D01*
X042470Y026417D01*
X042523Y026429D01*
X042577Y026438D01*
X042631Y026443D01*
X042686Y026444D01*
X042740Y026441D01*
X042794Y026434D01*
X042847Y026423D01*
X042900Y026409D01*
X042951Y026390D01*
X043001Y026368D01*
X043049Y026343D01*
X043095Y026314D01*
X043139Y026282D01*
X043181Y026247D01*
X043219Y026209D01*
X043255Y026168D01*
X043288Y026124D01*
X043318Y026079D01*
X043344Y026031D01*
X043367Y025982D01*
X043387Y025931D01*
X043402Y025879D01*
X043414Y025825D01*
X043422Y025772D01*
X043426Y025717D01*
X043426Y025663D01*
X043422Y025608D01*
X043414Y025555D01*
X043402Y025501D01*
X043387Y025449D01*
X043367Y025398D01*
X043344Y025349D01*
X043318Y025301D01*
X043288Y025256D01*
X043255Y025212D01*
X043219Y025171D01*
X043181Y025133D01*
X043139Y025098D01*
X043095Y025066D01*
X043049Y025037D01*
X043001Y025012D01*
X042951Y024990D01*
X042900Y024971D01*
X042847Y024957D01*
X042794Y024946D01*
X042740Y024939D01*
X042686Y024936D01*
X042631Y024937D01*
X042577Y024942D01*
X042523Y024951D01*
X042470Y024963D01*
X042418Y024980D01*
X042368Y025000D01*
X042319Y025024D01*
X042272Y025051D01*
X042227Y025082D01*
X042184Y025115D01*
X042144Y025152D01*
X042106Y025192D01*
X042072Y025234D01*
X042040Y025278D01*
X042012Y025325D01*
X041988Y025373D01*
X041967Y025424D01*
X041949Y025475D01*
X041936Y025528D01*
X041926Y025581D01*
X041920Y025636D01*
X041918Y025690D01*
X039918Y025690D02*
X039920Y025744D01*
X039926Y025799D01*
X039936Y025852D01*
X039949Y025905D01*
X039967Y025956D01*
X039988Y026007D01*
X040012Y026055D01*
X040040Y026102D01*
X040072Y026146D01*
X040106Y026188D01*
X040144Y026228D01*
X040184Y026265D01*
X040227Y026298D01*
X040272Y026329D01*
X040319Y026356D01*
X040368Y026380D01*
X040418Y026400D01*
X040470Y026417D01*
X040523Y026429D01*
X040577Y026438D01*
X040631Y026443D01*
X040686Y026444D01*
X040740Y026441D01*
X040794Y026434D01*
X040847Y026423D01*
X040900Y026409D01*
X040951Y026390D01*
X041001Y026368D01*
X041049Y026343D01*
X041095Y026314D01*
X041139Y026282D01*
X041181Y026247D01*
X041219Y026209D01*
X041255Y026168D01*
X041288Y026124D01*
X041318Y026079D01*
X041344Y026031D01*
X041367Y025982D01*
X041387Y025931D01*
X041402Y025879D01*
X041414Y025825D01*
X041422Y025772D01*
X041426Y025717D01*
X041426Y025663D01*
X041422Y025608D01*
X041414Y025555D01*
X041402Y025501D01*
X041387Y025449D01*
X041367Y025398D01*
X041344Y025349D01*
X041318Y025301D01*
X041288Y025256D01*
X041255Y025212D01*
X041219Y025171D01*
X041181Y025133D01*
X041139Y025098D01*
X041095Y025066D01*
X041049Y025037D01*
X041001Y025012D01*
X040951Y024990D01*
X040900Y024971D01*
X040847Y024957D01*
X040794Y024946D01*
X040740Y024939D01*
X040686Y024936D01*
X040631Y024937D01*
X040577Y024942D01*
X040523Y024951D01*
X040470Y024963D01*
X040418Y024980D01*
X040368Y025000D01*
X040319Y025024D01*
X040272Y025051D01*
X040227Y025082D01*
X040184Y025115D01*
X040144Y025152D01*
X040106Y025192D01*
X040072Y025234D01*
X040040Y025278D01*
X040012Y025325D01*
X039988Y025373D01*
X039967Y025424D01*
X039949Y025475D01*
X039936Y025528D01*
X039926Y025581D01*
X039920Y025636D01*
X039918Y025690D01*
X037918Y025690D02*
X037920Y025744D01*
X037926Y025799D01*
X037936Y025852D01*
X037949Y025905D01*
X037967Y025956D01*
X037988Y026007D01*
X038012Y026055D01*
X038040Y026102D01*
X038072Y026146D01*
X038106Y026188D01*
X038144Y026228D01*
X038184Y026265D01*
X038227Y026298D01*
X038272Y026329D01*
X038319Y026356D01*
X038368Y026380D01*
X038418Y026400D01*
X038470Y026417D01*
X038523Y026429D01*
X038577Y026438D01*
X038631Y026443D01*
X038686Y026444D01*
X038740Y026441D01*
X038794Y026434D01*
X038847Y026423D01*
X038900Y026409D01*
X038951Y026390D01*
X039001Y026368D01*
X039049Y026343D01*
X039095Y026314D01*
X039139Y026282D01*
X039181Y026247D01*
X039219Y026209D01*
X039255Y026168D01*
X039288Y026124D01*
X039318Y026079D01*
X039344Y026031D01*
X039367Y025982D01*
X039387Y025931D01*
X039402Y025879D01*
X039414Y025825D01*
X039422Y025772D01*
X039426Y025717D01*
X039426Y025663D01*
X039422Y025608D01*
X039414Y025555D01*
X039402Y025501D01*
X039387Y025449D01*
X039367Y025398D01*
X039344Y025349D01*
X039318Y025301D01*
X039288Y025256D01*
X039255Y025212D01*
X039219Y025171D01*
X039181Y025133D01*
X039139Y025098D01*
X039095Y025066D01*
X039049Y025037D01*
X039001Y025012D01*
X038951Y024990D01*
X038900Y024971D01*
X038847Y024957D01*
X038794Y024946D01*
X038740Y024939D01*
X038686Y024936D01*
X038631Y024937D01*
X038577Y024942D01*
X038523Y024951D01*
X038470Y024963D01*
X038418Y024980D01*
X038368Y025000D01*
X038319Y025024D01*
X038272Y025051D01*
X038227Y025082D01*
X038184Y025115D01*
X038144Y025152D01*
X038106Y025192D01*
X038072Y025234D01*
X038040Y025278D01*
X038012Y025325D01*
X037988Y025373D01*
X037967Y025424D01*
X037949Y025475D01*
X037936Y025528D01*
X037926Y025581D01*
X037920Y025636D01*
X037918Y025690D01*
X035918Y025690D02*
X035920Y025744D01*
X035926Y025799D01*
X035936Y025852D01*
X035949Y025905D01*
X035967Y025956D01*
X035988Y026007D01*
X036012Y026055D01*
X036040Y026102D01*
X036072Y026146D01*
X036106Y026188D01*
X036144Y026228D01*
X036184Y026265D01*
X036227Y026298D01*
X036272Y026329D01*
X036319Y026356D01*
X036368Y026380D01*
X036418Y026400D01*
X036470Y026417D01*
X036523Y026429D01*
X036577Y026438D01*
X036631Y026443D01*
X036686Y026444D01*
X036740Y026441D01*
X036794Y026434D01*
X036847Y026423D01*
X036900Y026409D01*
X036951Y026390D01*
X037001Y026368D01*
X037049Y026343D01*
X037095Y026314D01*
X037139Y026282D01*
X037181Y026247D01*
X037219Y026209D01*
X037255Y026168D01*
X037288Y026124D01*
X037318Y026079D01*
X037344Y026031D01*
X037367Y025982D01*
X037387Y025931D01*
X037402Y025879D01*
X037414Y025825D01*
X037422Y025772D01*
X037426Y025717D01*
X037426Y025663D01*
X037422Y025608D01*
X037414Y025555D01*
X037402Y025501D01*
X037387Y025449D01*
X037367Y025398D01*
X037344Y025349D01*
X037318Y025301D01*
X037288Y025256D01*
X037255Y025212D01*
X037219Y025171D01*
X037181Y025133D01*
X037139Y025098D01*
X037095Y025066D01*
X037049Y025037D01*
X037001Y025012D01*
X036951Y024990D01*
X036900Y024971D01*
X036847Y024957D01*
X036794Y024946D01*
X036740Y024939D01*
X036686Y024936D01*
X036631Y024937D01*
X036577Y024942D01*
X036523Y024951D01*
X036470Y024963D01*
X036418Y024980D01*
X036368Y025000D01*
X036319Y025024D01*
X036272Y025051D01*
X036227Y025082D01*
X036184Y025115D01*
X036144Y025152D01*
X036106Y025192D01*
X036072Y025234D01*
X036040Y025278D01*
X036012Y025325D01*
X035988Y025373D01*
X035967Y025424D01*
X035949Y025475D01*
X035936Y025528D01*
X035926Y025581D01*
X035920Y025636D01*
X035918Y025690D01*
X033918Y025690D02*
X033920Y025744D01*
X033926Y025799D01*
X033936Y025852D01*
X033949Y025905D01*
X033967Y025956D01*
X033988Y026007D01*
X034012Y026055D01*
X034040Y026102D01*
X034072Y026146D01*
X034106Y026188D01*
X034144Y026228D01*
X034184Y026265D01*
X034227Y026298D01*
X034272Y026329D01*
X034319Y026356D01*
X034368Y026380D01*
X034418Y026400D01*
X034470Y026417D01*
X034523Y026429D01*
X034577Y026438D01*
X034631Y026443D01*
X034686Y026444D01*
X034740Y026441D01*
X034794Y026434D01*
X034847Y026423D01*
X034900Y026409D01*
X034951Y026390D01*
X035001Y026368D01*
X035049Y026343D01*
X035095Y026314D01*
X035139Y026282D01*
X035181Y026247D01*
X035219Y026209D01*
X035255Y026168D01*
X035288Y026124D01*
X035318Y026079D01*
X035344Y026031D01*
X035367Y025982D01*
X035387Y025931D01*
X035402Y025879D01*
X035414Y025825D01*
X035422Y025772D01*
X035426Y025717D01*
X035426Y025663D01*
X035422Y025608D01*
X035414Y025555D01*
X035402Y025501D01*
X035387Y025449D01*
X035367Y025398D01*
X035344Y025349D01*
X035318Y025301D01*
X035288Y025256D01*
X035255Y025212D01*
X035219Y025171D01*
X035181Y025133D01*
X035139Y025098D01*
X035095Y025066D01*
X035049Y025037D01*
X035001Y025012D01*
X034951Y024990D01*
X034900Y024971D01*
X034847Y024957D01*
X034794Y024946D01*
X034740Y024939D01*
X034686Y024936D01*
X034631Y024937D01*
X034577Y024942D01*
X034523Y024951D01*
X034470Y024963D01*
X034418Y024980D01*
X034368Y025000D01*
X034319Y025024D01*
X034272Y025051D01*
X034227Y025082D01*
X034184Y025115D01*
X034144Y025152D01*
X034106Y025192D01*
X034072Y025234D01*
X034040Y025278D01*
X034012Y025325D01*
X033988Y025373D01*
X033967Y025424D01*
X033949Y025475D01*
X033936Y025528D01*
X033926Y025581D01*
X033920Y025636D01*
X033918Y025690D01*
X033672Y024910D02*
X033672Y026484D01*
X033672Y026674D01*
X033672Y027274D01*
X037672Y027274D01*
X037672Y026674D01*
X037672Y026484D01*
X037672Y024910D01*
X037672Y024716D01*
X041672Y024716D01*
X045672Y024716D01*
X049672Y024716D01*
X049672Y024533D01*
X049672Y024449D01*
X049672Y024204D01*
X049672Y024086D01*
X045672Y024086D01*
X045672Y024204D01*
X045672Y024370D01*
X045672Y024449D01*
X049672Y024449D01*
X049672Y024716D01*
X049672Y024910D01*
X049672Y026484D01*
X049672Y026674D01*
X053672Y026674D01*
X049672Y026674D02*
X049672Y027274D01*
X045672Y027274D01*
X045672Y026674D01*
X045672Y026484D01*
X045672Y024910D01*
X045672Y024716D01*
X045672Y024533D01*
X045672Y024449D01*
X045672Y024204D01*
X041672Y024204D01*
X041672Y024370D01*
X041672Y024449D01*
X045672Y024449D01*
X045672Y024716D01*
X045672Y024910D01*
X045672Y026484D01*
X045672Y026674D01*
X049672Y026674D01*
X049551Y024592D02*
X049621Y024533D01*
X049672Y024533D01*
X049551Y024592D02*
X049447Y024592D01*
X049447Y024311D01*
X049551Y024311D01*
X049621Y024370D01*
X049672Y024370D01*
X045672Y024370D02*
X045621Y024370D01*
X045551Y024311D01*
X045447Y024311D01*
X045447Y024592D01*
X045551Y024592D01*
X045621Y024533D01*
X045672Y024533D01*
X045672Y026674D02*
X041672Y026674D01*
X041672Y027274D01*
X045672Y027274D01*
X045672Y026674D01*
X041672Y026674D02*
X041672Y026484D01*
X041672Y024910D01*
X041672Y024716D01*
X041672Y024533D01*
X041672Y024449D01*
X041672Y024204D01*
X041672Y024086D01*
X037672Y024086D01*
X037672Y024204D01*
X037672Y024370D01*
X037672Y024449D01*
X041672Y024449D01*
X041672Y024716D01*
X041672Y024910D01*
X041672Y026484D01*
X041672Y026674D01*
X041672Y027274D01*
X037672Y027274D01*
X037672Y026674D01*
X041672Y026674D01*
X041551Y024592D02*
X041621Y024533D01*
X041672Y024533D01*
X041551Y024592D02*
X041447Y024592D01*
X041447Y024311D01*
X041551Y024311D01*
X041621Y024370D01*
X041672Y024370D01*
X037672Y024370D02*
X037621Y024370D01*
X037551Y024311D01*
X037447Y024311D01*
X037447Y024592D01*
X037551Y024592D01*
X037621Y024533D01*
X037672Y024533D01*
X037672Y024716D01*
X037672Y024449D01*
X037672Y024533D01*
X037672Y024449D02*
X037672Y024204D01*
X033672Y024204D01*
X033672Y024370D01*
X033672Y024449D01*
X037672Y024449D01*
X037672Y024716D02*
X037672Y024910D01*
X037672Y026484D01*
X037672Y026674D01*
X033672Y026674D01*
X033672Y027274D01*
X029672Y027274D01*
X029672Y026674D01*
X029672Y026484D01*
X029672Y024910D01*
X029672Y024716D01*
X033672Y024716D01*
X037672Y024716D01*
X033672Y024716D02*
X033672Y024449D01*
X033672Y024533D01*
X033672Y024716D01*
X033672Y024910D01*
X033672Y026484D01*
X033672Y026674D01*
X029672Y026674D01*
X029672Y027274D01*
X025672Y027274D01*
X025672Y026674D01*
X025672Y026484D01*
X025672Y024910D01*
X025672Y024716D01*
X029672Y024716D01*
X029672Y024533D01*
X029672Y024449D01*
X033672Y024449D01*
X033672Y024204D01*
X033672Y024086D01*
X029672Y024086D01*
X029672Y024204D01*
X029672Y024370D01*
X029672Y024449D01*
X029672Y024204D01*
X025672Y024204D01*
X025672Y024370D01*
X025672Y024449D01*
X029672Y024449D01*
X029672Y024716D01*
X029672Y024910D01*
X029672Y026484D01*
X029672Y026674D01*
X025672Y026674D01*
X025672Y027274D01*
X021672Y027274D01*
X021672Y026674D01*
X021672Y026484D01*
X021672Y024910D01*
X021672Y024716D01*
X025672Y024716D01*
X025672Y024533D01*
X025672Y024449D01*
X025672Y024204D01*
X025672Y024086D01*
X021672Y024086D01*
X021672Y024204D01*
X021672Y024370D01*
X021672Y024449D01*
X025672Y024449D01*
X025672Y024716D01*
X025672Y024910D01*
X025672Y026484D01*
X025672Y026674D01*
X021672Y026674D01*
X021672Y027274D01*
X017672Y027274D01*
X017672Y026674D01*
X017672Y026484D01*
X017672Y024910D01*
X017672Y024716D01*
X021672Y024716D01*
X021672Y024533D01*
X021672Y024449D01*
X021672Y024204D01*
X017672Y024204D01*
X017672Y024370D01*
X017672Y024449D01*
X021672Y024449D01*
X021672Y024716D01*
X021672Y024910D01*
X021672Y026484D01*
X021672Y026674D01*
X017672Y026674D01*
X017672Y027274D01*
X013672Y027274D01*
X013672Y026674D01*
X013672Y026484D01*
X013672Y024910D01*
X013672Y024716D01*
X017672Y024716D01*
X017672Y024533D01*
X017672Y024449D01*
X017672Y024204D01*
X017672Y024086D01*
X013672Y024086D01*
X013672Y024204D01*
X013672Y024370D01*
X013672Y024449D01*
X017672Y024449D01*
X017672Y024716D01*
X017672Y024910D01*
X017672Y026484D01*
X017672Y026674D01*
X013672Y026674D01*
X013672Y027274D01*
X009672Y027274D01*
X009672Y026674D01*
X009672Y026484D01*
X009672Y024910D01*
X009672Y024716D01*
X013672Y024716D01*
X013672Y024533D01*
X013672Y024449D01*
X013672Y024204D01*
X009672Y024204D01*
X009672Y024370D01*
X009672Y024449D01*
X013672Y024449D01*
X013672Y024716D01*
X013672Y024910D01*
X013672Y026484D01*
X013672Y026674D01*
X009672Y026674D01*
X009672Y027274D01*
X005672Y027274D01*
X005672Y026674D01*
X005672Y026484D01*
X005672Y024910D01*
X005672Y024716D01*
X009672Y024716D01*
X009672Y024533D01*
X009672Y024449D01*
X009672Y024204D01*
X009672Y024086D01*
X005672Y024086D01*
X005672Y024204D02*
X005672Y024370D01*
X005672Y024449D01*
X009672Y024449D01*
X009672Y024716D01*
X009672Y024910D01*
X009672Y026484D01*
X009672Y026674D01*
X005672Y026674D01*
X005918Y025690D02*
X005920Y025744D01*
X005926Y025799D01*
X005936Y025852D01*
X005949Y025905D01*
X005967Y025956D01*
X005988Y026007D01*
X006012Y026055D01*
X006040Y026102D01*
X006072Y026146D01*
X006106Y026188D01*
X006144Y026228D01*
X006184Y026265D01*
X006227Y026298D01*
X006272Y026329D01*
X006319Y026356D01*
X006368Y026380D01*
X006418Y026400D01*
X006470Y026417D01*
X006523Y026429D01*
X006577Y026438D01*
X006631Y026443D01*
X006686Y026444D01*
X006740Y026441D01*
X006794Y026434D01*
X006847Y026423D01*
X006900Y026409D01*
X006951Y026390D01*
X007001Y026368D01*
X007049Y026343D01*
X007095Y026314D01*
X007139Y026282D01*
X007181Y026247D01*
X007219Y026209D01*
X007255Y026168D01*
X007288Y026124D01*
X007318Y026079D01*
X007344Y026031D01*
X007367Y025982D01*
X007387Y025931D01*
X007402Y025879D01*
X007414Y025825D01*
X007422Y025772D01*
X007426Y025717D01*
X007426Y025663D01*
X007422Y025608D01*
X007414Y025555D01*
X007402Y025501D01*
X007387Y025449D01*
X007367Y025398D01*
X007344Y025349D01*
X007318Y025301D01*
X007288Y025256D01*
X007255Y025212D01*
X007219Y025171D01*
X007181Y025133D01*
X007139Y025098D01*
X007095Y025066D01*
X007049Y025037D01*
X007001Y025012D01*
X006951Y024990D01*
X006900Y024971D01*
X006847Y024957D01*
X006794Y024946D01*
X006740Y024939D01*
X006686Y024936D01*
X006631Y024937D01*
X006577Y024942D01*
X006523Y024951D01*
X006470Y024963D01*
X006418Y024980D01*
X006368Y025000D01*
X006319Y025024D01*
X006272Y025051D01*
X006227Y025082D01*
X006184Y025115D01*
X006144Y025152D01*
X006106Y025192D01*
X006072Y025234D01*
X006040Y025278D01*
X006012Y025325D01*
X005988Y025373D01*
X005967Y025424D01*
X005949Y025475D01*
X005936Y025528D01*
X005926Y025581D01*
X005920Y025636D01*
X005918Y025690D01*
X005672Y024716D02*
X005672Y024533D01*
X005672Y024449D01*
X005672Y024370D02*
X005621Y024370D01*
X005551Y024311D01*
X005447Y024311D01*
X005447Y024592D01*
X005551Y024592D01*
X005621Y024533D01*
X005672Y024533D01*
X007918Y025690D02*
X007920Y025744D01*
X007926Y025799D01*
X007936Y025852D01*
X007949Y025905D01*
X007967Y025956D01*
X007988Y026007D01*
X008012Y026055D01*
X008040Y026102D01*
X008072Y026146D01*
X008106Y026188D01*
X008144Y026228D01*
X008184Y026265D01*
X008227Y026298D01*
X008272Y026329D01*
X008319Y026356D01*
X008368Y026380D01*
X008418Y026400D01*
X008470Y026417D01*
X008523Y026429D01*
X008577Y026438D01*
X008631Y026443D01*
X008686Y026444D01*
X008740Y026441D01*
X008794Y026434D01*
X008847Y026423D01*
X008900Y026409D01*
X008951Y026390D01*
X009001Y026368D01*
X009049Y026343D01*
X009095Y026314D01*
X009139Y026282D01*
X009181Y026247D01*
X009219Y026209D01*
X009255Y026168D01*
X009288Y026124D01*
X009318Y026079D01*
X009344Y026031D01*
X009367Y025982D01*
X009387Y025931D01*
X009402Y025879D01*
X009414Y025825D01*
X009422Y025772D01*
X009426Y025717D01*
X009426Y025663D01*
X009422Y025608D01*
X009414Y025555D01*
X009402Y025501D01*
X009387Y025449D01*
X009367Y025398D01*
X009344Y025349D01*
X009318Y025301D01*
X009288Y025256D01*
X009255Y025212D01*
X009219Y025171D01*
X009181Y025133D01*
X009139Y025098D01*
X009095Y025066D01*
X009049Y025037D01*
X009001Y025012D01*
X008951Y024990D01*
X008900Y024971D01*
X008847Y024957D01*
X008794Y024946D01*
X008740Y024939D01*
X008686Y024936D01*
X008631Y024937D01*
X008577Y024942D01*
X008523Y024951D01*
X008470Y024963D01*
X008418Y024980D01*
X008368Y025000D01*
X008319Y025024D01*
X008272Y025051D01*
X008227Y025082D01*
X008184Y025115D01*
X008144Y025152D01*
X008106Y025192D01*
X008072Y025234D01*
X008040Y025278D01*
X008012Y025325D01*
X007988Y025373D01*
X007967Y025424D01*
X007949Y025475D01*
X007936Y025528D01*
X007926Y025581D01*
X007920Y025636D01*
X007918Y025690D01*
X009447Y024592D02*
X009447Y024311D01*
X009551Y024311D01*
X009621Y024370D01*
X009672Y024370D01*
X009672Y024533D02*
X009621Y024533D01*
X009551Y024592D01*
X009447Y024592D01*
X009918Y025690D02*
X009920Y025744D01*
X009926Y025799D01*
X009936Y025852D01*
X009949Y025905D01*
X009967Y025956D01*
X009988Y026007D01*
X010012Y026055D01*
X010040Y026102D01*
X010072Y026146D01*
X010106Y026188D01*
X010144Y026228D01*
X010184Y026265D01*
X010227Y026298D01*
X010272Y026329D01*
X010319Y026356D01*
X010368Y026380D01*
X010418Y026400D01*
X010470Y026417D01*
X010523Y026429D01*
X010577Y026438D01*
X010631Y026443D01*
X010686Y026444D01*
X010740Y026441D01*
X010794Y026434D01*
X010847Y026423D01*
X010900Y026409D01*
X010951Y026390D01*
X011001Y026368D01*
X011049Y026343D01*
X011095Y026314D01*
X011139Y026282D01*
X011181Y026247D01*
X011219Y026209D01*
X011255Y026168D01*
X011288Y026124D01*
X011318Y026079D01*
X011344Y026031D01*
X011367Y025982D01*
X011387Y025931D01*
X011402Y025879D01*
X011414Y025825D01*
X011422Y025772D01*
X011426Y025717D01*
X011426Y025663D01*
X011422Y025608D01*
X011414Y025555D01*
X011402Y025501D01*
X011387Y025449D01*
X011367Y025398D01*
X011344Y025349D01*
X011318Y025301D01*
X011288Y025256D01*
X011255Y025212D01*
X011219Y025171D01*
X011181Y025133D01*
X011139Y025098D01*
X011095Y025066D01*
X011049Y025037D01*
X011001Y025012D01*
X010951Y024990D01*
X010900Y024971D01*
X010847Y024957D01*
X010794Y024946D01*
X010740Y024939D01*
X010686Y024936D01*
X010631Y024937D01*
X010577Y024942D01*
X010523Y024951D01*
X010470Y024963D01*
X010418Y024980D01*
X010368Y025000D01*
X010319Y025024D01*
X010272Y025051D01*
X010227Y025082D01*
X010184Y025115D01*
X010144Y025152D01*
X010106Y025192D01*
X010072Y025234D01*
X010040Y025278D01*
X010012Y025325D01*
X009988Y025373D01*
X009967Y025424D01*
X009949Y025475D01*
X009936Y025528D01*
X009926Y025581D01*
X009920Y025636D01*
X009918Y025690D01*
X011918Y025690D02*
X011920Y025744D01*
X011926Y025799D01*
X011936Y025852D01*
X011949Y025905D01*
X011967Y025956D01*
X011988Y026007D01*
X012012Y026055D01*
X012040Y026102D01*
X012072Y026146D01*
X012106Y026188D01*
X012144Y026228D01*
X012184Y026265D01*
X012227Y026298D01*
X012272Y026329D01*
X012319Y026356D01*
X012368Y026380D01*
X012418Y026400D01*
X012470Y026417D01*
X012523Y026429D01*
X012577Y026438D01*
X012631Y026443D01*
X012686Y026444D01*
X012740Y026441D01*
X012794Y026434D01*
X012847Y026423D01*
X012900Y026409D01*
X012951Y026390D01*
X013001Y026368D01*
X013049Y026343D01*
X013095Y026314D01*
X013139Y026282D01*
X013181Y026247D01*
X013219Y026209D01*
X013255Y026168D01*
X013288Y026124D01*
X013318Y026079D01*
X013344Y026031D01*
X013367Y025982D01*
X013387Y025931D01*
X013402Y025879D01*
X013414Y025825D01*
X013422Y025772D01*
X013426Y025717D01*
X013426Y025663D01*
X013422Y025608D01*
X013414Y025555D01*
X013402Y025501D01*
X013387Y025449D01*
X013367Y025398D01*
X013344Y025349D01*
X013318Y025301D01*
X013288Y025256D01*
X013255Y025212D01*
X013219Y025171D01*
X013181Y025133D01*
X013139Y025098D01*
X013095Y025066D01*
X013049Y025037D01*
X013001Y025012D01*
X012951Y024990D01*
X012900Y024971D01*
X012847Y024957D01*
X012794Y024946D01*
X012740Y024939D01*
X012686Y024936D01*
X012631Y024937D01*
X012577Y024942D01*
X012523Y024951D01*
X012470Y024963D01*
X012418Y024980D01*
X012368Y025000D01*
X012319Y025024D01*
X012272Y025051D01*
X012227Y025082D01*
X012184Y025115D01*
X012144Y025152D01*
X012106Y025192D01*
X012072Y025234D01*
X012040Y025278D01*
X012012Y025325D01*
X011988Y025373D01*
X011967Y025424D01*
X011949Y025475D01*
X011936Y025528D01*
X011926Y025581D01*
X011920Y025636D01*
X011918Y025690D01*
X013447Y024592D02*
X013447Y024311D01*
X013551Y024311D01*
X013621Y024370D01*
X013672Y024370D01*
X013672Y024533D02*
X013621Y024533D01*
X013551Y024592D01*
X013447Y024592D01*
X013918Y025690D02*
X013920Y025744D01*
X013926Y025799D01*
X013936Y025852D01*
X013949Y025905D01*
X013967Y025956D01*
X013988Y026007D01*
X014012Y026055D01*
X014040Y026102D01*
X014072Y026146D01*
X014106Y026188D01*
X014144Y026228D01*
X014184Y026265D01*
X014227Y026298D01*
X014272Y026329D01*
X014319Y026356D01*
X014368Y026380D01*
X014418Y026400D01*
X014470Y026417D01*
X014523Y026429D01*
X014577Y026438D01*
X014631Y026443D01*
X014686Y026444D01*
X014740Y026441D01*
X014794Y026434D01*
X014847Y026423D01*
X014900Y026409D01*
X014951Y026390D01*
X015001Y026368D01*
X015049Y026343D01*
X015095Y026314D01*
X015139Y026282D01*
X015181Y026247D01*
X015219Y026209D01*
X015255Y026168D01*
X015288Y026124D01*
X015318Y026079D01*
X015344Y026031D01*
X015367Y025982D01*
X015387Y025931D01*
X015402Y025879D01*
X015414Y025825D01*
X015422Y025772D01*
X015426Y025717D01*
X015426Y025663D01*
X015422Y025608D01*
X015414Y025555D01*
X015402Y025501D01*
X015387Y025449D01*
X015367Y025398D01*
X015344Y025349D01*
X015318Y025301D01*
X015288Y025256D01*
X015255Y025212D01*
X015219Y025171D01*
X015181Y025133D01*
X015139Y025098D01*
X015095Y025066D01*
X015049Y025037D01*
X015001Y025012D01*
X014951Y024990D01*
X014900Y024971D01*
X014847Y024957D01*
X014794Y024946D01*
X014740Y024939D01*
X014686Y024936D01*
X014631Y024937D01*
X014577Y024942D01*
X014523Y024951D01*
X014470Y024963D01*
X014418Y024980D01*
X014368Y025000D01*
X014319Y025024D01*
X014272Y025051D01*
X014227Y025082D01*
X014184Y025115D01*
X014144Y025152D01*
X014106Y025192D01*
X014072Y025234D01*
X014040Y025278D01*
X014012Y025325D01*
X013988Y025373D01*
X013967Y025424D01*
X013949Y025475D01*
X013936Y025528D01*
X013926Y025581D01*
X013920Y025636D01*
X013918Y025690D01*
X015918Y025690D02*
X015920Y025744D01*
X015926Y025799D01*
X015936Y025852D01*
X015949Y025905D01*
X015967Y025956D01*
X015988Y026007D01*
X016012Y026055D01*
X016040Y026102D01*
X016072Y026146D01*
X016106Y026188D01*
X016144Y026228D01*
X016184Y026265D01*
X016227Y026298D01*
X016272Y026329D01*
X016319Y026356D01*
X016368Y026380D01*
X016418Y026400D01*
X016470Y026417D01*
X016523Y026429D01*
X016577Y026438D01*
X016631Y026443D01*
X016686Y026444D01*
X016740Y026441D01*
X016794Y026434D01*
X016847Y026423D01*
X016900Y026409D01*
X016951Y026390D01*
X017001Y026368D01*
X017049Y026343D01*
X017095Y026314D01*
X017139Y026282D01*
X017181Y026247D01*
X017219Y026209D01*
X017255Y026168D01*
X017288Y026124D01*
X017318Y026079D01*
X017344Y026031D01*
X017367Y025982D01*
X017387Y025931D01*
X017402Y025879D01*
X017414Y025825D01*
X017422Y025772D01*
X017426Y025717D01*
X017426Y025663D01*
X017422Y025608D01*
X017414Y025555D01*
X017402Y025501D01*
X017387Y025449D01*
X017367Y025398D01*
X017344Y025349D01*
X017318Y025301D01*
X017288Y025256D01*
X017255Y025212D01*
X017219Y025171D01*
X017181Y025133D01*
X017139Y025098D01*
X017095Y025066D01*
X017049Y025037D01*
X017001Y025012D01*
X016951Y024990D01*
X016900Y024971D01*
X016847Y024957D01*
X016794Y024946D01*
X016740Y024939D01*
X016686Y024936D01*
X016631Y024937D01*
X016577Y024942D01*
X016523Y024951D01*
X016470Y024963D01*
X016418Y024980D01*
X016368Y025000D01*
X016319Y025024D01*
X016272Y025051D01*
X016227Y025082D01*
X016184Y025115D01*
X016144Y025152D01*
X016106Y025192D01*
X016072Y025234D01*
X016040Y025278D01*
X016012Y025325D01*
X015988Y025373D01*
X015967Y025424D01*
X015949Y025475D01*
X015936Y025528D01*
X015926Y025581D01*
X015920Y025636D01*
X015918Y025690D01*
X017447Y024592D02*
X017447Y024311D01*
X017551Y024311D01*
X017621Y024370D01*
X017672Y024370D01*
X017672Y024533D02*
X017621Y024533D01*
X017551Y024592D01*
X017447Y024592D01*
X017918Y025690D02*
X017920Y025744D01*
X017926Y025799D01*
X017936Y025852D01*
X017949Y025905D01*
X017967Y025956D01*
X017988Y026007D01*
X018012Y026055D01*
X018040Y026102D01*
X018072Y026146D01*
X018106Y026188D01*
X018144Y026228D01*
X018184Y026265D01*
X018227Y026298D01*
X018272Y026329D01*
X018319Y026356D01*
X018368Y026380D01*
X018418Y026400D01*
X018470Y026417D01*
X018523Y026429D01*
X018577Y026438D01*
X018631Y026443D01*
X018686Y026444D01*
X018740Y026441D01*
X018794Y026434D01*
X018847Y026423D01*
X018900Y026409D01*
X018951Y026390D01*
X019001Y026368D01*
X019049Y026343D01*
X019095Y026314D01*
X019139Y026282D01*
X019181Y026247D01*
X019219Y026209D01*
X019255Y026168D01*
X019288Y026124D01*
X019318Y026079D01*
X019344Y026031D01*
X019367Y025982D01*
X019387Y025931D01*
X019402Y025879D01*
X019414Y025825D01*
X019422Y025772D01*
X019426Y025717D01*
X019426Y025663D01*
X019422Y025608D01*
X019414Y025555D01*
X019402Y025501D01*
X019387Y025449D01*
X019367Y025398D01*
X019344Y025349D01*
X019318Y025301D01*
X019288Y025256D01*
X019255Y025212D01*
X019219Y025171D01*
X019181Y025133D01*
X019139Y025098D01*
X019095Y025066D01*
X019049Y025037D01*
X019001Y025012D01*
X018951Y024990D01*
X018900Y024971D01*
X018847Y024957D01*
X018794Y024946D01*
X018740Y024939D01*
X018686Y024936D01*
X018631Y024937D01*
X018577Y024942D01*
X018523Y024951D01*
X018470Y024963D01*
X018418Y024980D01*
X018368Y025000D01*
X018319Y025024D01*
X018272Y025051D01*
X018227Y025082D01*
X018184Y025115D01*
X018144Y025152D01*
X018106Y025192D01*
X018072Y025234D01*
X018040Y025278D01*
X018012Y025325D01*
X017988Y025373D01*
X017967Y025424D01*
X017949Y025475D01*
X017936Y025528D01*
X017926Y025581D01*
X017920Y025636D01*
X017918Y025690D01*
X019918Y025690D02*
X019920Y025744D01*
X019926Y025799D01*
X019936Y025852D01*
X019949Y025905D01*
X019967Y025956D01*
X019988Y026007D01*
X020012Y026055D01*
X020040Y026102D01*
X020072Y026146D01*
X020106Y026188D01*
X020144Y026228D01*
X020184Y026265D01*
X020227Y026298D01*
X020272Y026329D01*
X020319Y026356D01*
X020368Y026380D01*
X020418Y026400D01*
X020470Y026417D01*
X020523Y026429D01*
X020577Y026438D01*
X020631Y026443D01*
X020686Y026444D01*
X020740Y026441D01*
X020794Y026434D01*
X020847Y026423D01*
X020900Y026409D01*
X020951Y026390D01*
X021001Y026368D01*
X021049Y026343D01*
X021095Y026314D01*
X021139Y026282D01*
X021181Y026247D01*
X021219Y026209D01*
X021255Y026168D01*
X021288Y026124D01*
X021318Y026079D01*
X021344Y026031D01*
X021367Y025982D01*
X021387Y025931D01*
X021402Y025879D01*
X021414Y025825D01*
X021422Y025772D01*
X021426Y025717D01*
X021426Y025663D01*
X021422Y025608D01*
X021414Y025555D01*
X021402Y025501D01*
X021387Y025449D01*
X021367Y025398D01*
X021344Y025349D01*
X021318Y025301D01*
X021288Y025256D01*
X021255Y025212D01*
X021219Y025171D01*
X021181Y025133D01*
X021139Y025098D01*
X021095Y025066D01*
X021049Y025037D01*
X021001Y025012D01*
X020951Y024990D01*
X020900Y024971D01*
X020847Y024957D01*
X020794Y024946D01*
X020740Y024939D01*
X020686Y024936D01*
X020631Y024937D01*
X020577Y024942D01*
X020523Y024951D01*
X020470Y024963D01*
X020418Y024980D01*
X020368Y025000D01*
X020319Y025024D01*
X020272Y025051D01*
X020227Y025082D01*
X020184Y025115D01*
X020144Y025152D01*
X020106Y025192D01*
X020072Y025234D01*
X020040Y025278D01*
X020012Y025325D01*
X019988Y025373D01*
X019967Y025424D01*
X019949Y025475D01*
X019936Y025528D01*
X019926Y025581D01*
X019920Y025636D01*
X019918Y025690D01*
X021447Y024592D02*
X021447Y024311D01*
X021551Y024311D01*
X021621Y024370D01*
X021672Y024370D01*
X021672Y024533D02*
X021621Y024533D01*
X021551Y024592D01*
X021447Y024592D01*
X021918Y025690D02*
X021920Y025744D01*
X021926Y025799D01*
X021936Y025852D01*
X021949Y025905D01*
X021967Y025956D01*
X021988Y026007D01*
X022012Y026055D01*
X022040Y026102D01*
X022072Y026146D01*
X022106Y026188D01*
X022144Y026228D01*
X022184Y026265D01*
X022227Y026298D01*
X022272Y026329D01*
X022319Y026356D01*
X022368Y026380D01*
X022418Y026400D01*
X022470Y026417D01*
X022523Y026429D01*
X022577Y026438D01*
X022631Y026443D01*
X022686Y026444D01*
X022740Y026441D01*
X022794Y026434D01*
X022847Y026423D01*
X022900Y026409D01*
X022951Y026390D01*
X023001Y026368D01*
X023049Y026343D01*
X023095Y026314D01*
X023139Y026282D01*
X023181Y026247D01*
X023219Y026209D01*
X023255Y026168D01*
X023288Y026124D01*
X023318Y026079D01*
X023344Y026031D01*
X023367Y025982D01*
X023387Y025931D01*
X023402Y025879D01*
X023414Y025825D01*
X023422Y025772D01*
X023426Y025717D01*
X023426Y025663D01*
X023422Y025608D01*
X023414Y025555D01*
X023402Y025501D01*
X023387Y025449D01*
X023367Y025398D01*
X023344Y025349D01*
X023318Y025301D01*
X023288Y025256D01*
X023255Y025212D01*
X023219Y025171D01*
X023181Y025133D01*
X023139Y025098D01*
X023095Y025066D01*
X023049Y025037D01*
X023001Y025012D01*
X022951Y024990D01*
X022900Y024971D01*
X022847Y024957D01*
X022794Y024946D01*
X022740Y024939D01*
X022686Y024936D01*
X022631Y024937D01*
X022577Y024942D01*
X022523Y024951D01*
X022470Y024963D01*
X022418Y024980D01*
X022368Y025000D01*
X022319Y025024D01*
X022272Y025051D01*
X022227Y025082D01*
X022184Y025115D01*
X022144Y025152D01*
X022106Y025192D01*
X022072Y025234D01*
X022040Y025278D01*
X022012Y025325D01*
X021988Y025373D01*
X021967Y025424D01*
X021949Y025475D01*
X021936Y025528D01*
X021926Y025581D01*
X021920Y025636D01*
X021918Y025690D01*
X023918Y025690D02*
X023920Y025744D01*
X023926Y025799D01*
X023936Y025852D01*
X023949Y025905D01*
X023967Y025956D01*
X023988Y026007D01*
X024012Y026055D01*
X024040Y026102D01*
X024072Y026146D01*
X024106Y026188D01*
X024144Y026228D01*
X024184Y026265D01*
X024227Y026298D01*
X024272Y026329D01*
X024319Y026356D01*
X024368Y026380D01*
X024418Y026400D01*
X024470Y026417D01*
X024523Y026429D01*
X024577Y026438D01*
X024631Y026443D01*
X024686Y026444D01*
X024740Y026441D01*
X024794Y026434D01*
X024847Y026423D01*
X024900Y026409D01*
X024951Y026390D01*
X025001Y026368D01*
X025049Y026343D01*
X025095Y026314D01*
X025139Y026282D01*
X025181Y026247D01*
X025219Y026209D01*
X025255Y026168D01*
X025288Y026124D01*
X025318Y026079D01*
X025344Y026031D01*
X025367Y025982D01*
X025387Y025931D01*
X025402Y025879D01*
X025414Y025825D01*
X025422Y025772D01*
X025426Y025717D01*
X025426Y025663D01*
X025422Y025608D01*
X025414Y025555D01*
X025402Y025501D01*
X025387Y025449D01*
X025367Y025398D01*
X025344Y025349D01*
X025318Y025301D01*
X025288Y025256D01*
X025255Y025212D01*
X025219Y025171D01*
X025181Y025133D01*
X025139Y025098D01*
X025095Y025066D01*
X025049Y025037D01*
X025001Y025012D01*
X024951Y024990D01*
X024900Y024971D01*
X024847Y024957D01*
X024794Y024946D01*
X024740Y024939D01*
X024686Y024936D01*
X024631Y024937D01*
X024577Y024942D01*
X024523Y024951D01*
X024470Y024963D01*
X024418Y024980D01*
X024368Y025000D01*
X024319Y025024D01*
X024272Y025051D01*
X024227Y025082D01*
X024184Y025115D01*
X024144Y025152D01*
X024106Y025192D01*
X024072Y025234D01*
X024040Y025278D01*
X024012Y025325D01*
X023988Y025373D01*
X023967Y025424D01*
X023949Y025475D01*
X023936Y025528D01*
X023926Y025581D01*
X023920Y025636D01*
X023918Y025690D01*
X025447Y024592D02*
X025447Y024311D01*
X025551Y024311D01*
X025621Y024370D01*
X025672Y024370D01*
X025672Y024533D02*
X025621Y024533D01*
X025551Y024592D01*
X025447Y024592D01*
X025918Y025690D02*
X025920Y025744D01*
X025926Y025799D01*
X025936Y025852D01*
X025949Y025905D01*
X025967Y025956D01*
X025988Y026007D01*
X026012Y026055D01*
X026040Y026102D01*
X026072Y026146D01*
X026106Y026188D01*
X026144Y026228D01*
X026184Y026265D01*
X026227Y026298D01*
X026272Y026329D01*
X026319Y026356D01*
X026368Y026380D01*
X026418Y026400D01*
X026470Y026417D01*
X026523Y026429D01*
X026577Y026438D01*
X026631Y026443D01*
X026686Y026444D01*
X026740Y026441D01*
X026794Y026434D01*
X026847Y026423D01*
X026900Y026409D01*
X026951Y026390D01*
X027001Y026368D01*
X027049Y026343D01*
X027095Y026314D01*
X027139Y026282D01*
X027181Y026247D01*
X027219Y026209D01*
X027255Y026168D01*
X027288Y026124D01*
X027318Y026079D01*
X027344Y026031D01*
X027367Y025982D01*
X027387Y025931D01*
X027402Y025879D01*
X027414Y025825D01*
X027422Y025772D01*
X027426Y025717D01*
X027426Y025663D01*
X027422Y025608D01*
X027414Y025555D01*
X027402Y025501D01*
X027387Y025449D01*
X027367Y025398D01*
X027344Y025349D01*
X027318Y025301D01*
X027288Y025256D01*
X027255Y025212D01*
X027219Y025171D01*
X027181Y025133D01*
X027139Y025098D01*
X027095Y025066D01*
X027049Y025037D01*
X027001Y025012D01*
X026951Y024990D01*
X026900Y024971D01*
X026847Y024957D01*
X026794Y024946D01*
X026740Y024939D01*
X026686Y024936D01*
X026631Y024937D01*
X026577Y024942D01*
X026523Y024951D01*
X026470Y024963D01*
X026418Y024980D01*
X026368Y025000D01*
X026319Y025024D01*
X026272Y025051D01*
X026227Y025082D01*
X026184Y025115D01*
X026144Y025152D01*
X026106Y025192D01*
X026072Y025234D01*
X026040Y025278D01*
X026012Y025325D01*
X025988Y025373D01*
X025967Y025424D01*
X025949Y025475D01*
X025936Y025528D01*
X025926Y025581D01*
X025920Y025636D01*
X025918Y025690D01*
X027918Y025690D02*
X027920Y025744D01*
X027926Y025799D01*
X027936Y025852D01*
X027949Y025905D01*
X027967Y025956D01*
X027988Y026007D01*
X028012Y026055D01*
X028040Y026102D01*
X028072Y026146D01*
X028106Y026188D01*
X028144Y026228D01*
X028184Y026265D01*
X028227Y026298D01*
X028272Y026329D01*
X028319Y026356D01*
X028368Y026380D01*
X028418Y026400D01*
X028470Y026417D01*
X028523Y026429D01*
X028577Y026438D01*
X028631Y026443D01*
X028686Y026444D01*
X028740Y026441D01*
X028794Y026434D01*
X028847Y026423D01*
X028900Y026409D01*
X028951Y026390D01*
X029001Y026368D01*
X029049Y026343D01*
X029095Y026314D01*
X029139Y026282D01*
X029181Y026247D01*
X029219Y026209D01*
X029255Y026168D01*
X029288Y026124D01*
X029318Y026079D01*
X029344Y026031D01*
X029367Y025982D01*
X029387Y025931D01*
X029402Y025879D01*
X029414Y025825D01*
X029422Y025772D01*
X029426Y025717D01*
X029426Y025663D01*
X029422Y025608D01*
X029414Y025555D01*
X029402Y025501D01*
X029387Y025449D01*
X029367Y025398D01*
X029344Y025349D01*
X029318Y025301D01*
X029288Y025256D01*
X029255Y025212D01*
X029219Y025171D01*
X029181Y025133D01*
X029139Y025098D01*
X029095Y025066D01*
X029049Y025037D01*
X029001Y025012D01*
X028951Y024990D01*
X028900Y024971D01*
X028847Y024957D01*
X028794Y024946D01*
X028740Y024939D01*
X028686Y024936D01*
X028631Y024937D01*
X028577Y024942D01*
X028523Y024951D01*
X028470Y024963D01*
X028418Y024980D01*
X028368Y025000D01*
X028319Y025024D01*
X028272Y025051D01*
X028227Y025082D01*
X028184Y025115D01*
X028144Y025152D01*
X028106Y025192D01*
X028072Y025234D01*
X028040Y025278D01*
X028012Y025325D01*
X027988Y025373D01*
X027967Y025424D01*
X027949Y025475D01*
X027936Y025528D01*
X027926Y025581D01*
X027920Y025636D01*
X027918Y025690D01*
X029447Y024592D02*
X029447Y024311D01*
X029551Y024311D01*
X029621Y024370D01*
X029672Y024370D01*
X029672Y024533D02*
X029621Y024533D01*
X029551Y024592D01*
X029447Y024592D01*
X029918Y025690D02*
X029920Y025744D01*
X029926Y025799D01*
X029936Y025852D01*
X029949Y025905D01*
X029967Y025956D01*
X029988Y026007D01*
X030012Y026055D01*
X030040Y026102D01*
X030072Y026146D01*
X030106Y026188D01*
X030144Y026228D01*
X030184Y026265D01*
X030227Y026298D01*
X030272Y026329D01*
X030319Y026356D01*
X030368Y026380D01*
X030418Y026400D01*
X030470Y026417D01*
X030523Y026429D01*
X030577Y026438D01*
X030631Y026443D01*
X030686Y026444D01*
X030740Y026441D01*
X030794Y026434D01*
X030847Y026423D01*
X030900Y026409D01*
X030951Y026390D01*
X031001Y026368D01*
X031049Y026343D01*
X031095Y026314D01*
X031139Y026282D01*
X031181Y026247D01*
X031219Y026209D01*
X031255Y026168D01*
X031288Y026124D01*
X031318Y026079D01*
X031344Y026031D01*
X031367Y025982D01*
X031387Y025931D01*
X031402Y025879D01*
X031414Y025825D01*
X031422Y025772D01*
X031426Y025717D01*
X031426Y025663D01*
X031422Y025608D01*
X031414Y025555D01*
X031402Y025501D01*
X031387Y025449D01*
X031367Y025398D01*
X031344Y025349D01*
X031318Y025301D01*
X031288Y025256D01*
X031255Y025212D01*
X031219Y025171D01*
X031181Y025133D01*
X031139Y025098D01*
X031095Y025066D01*
X031049Y025037D01*
X031001Y025012D01*
X030951Y024990D01*
X030900Y024971D01*
X030847Y024957D01*
X030794Y024946D01*
X030740Y024939D01*
X030686Y024936D01*
X030631Y024937D01*
X030577Y024942D01*
X030523Y024951D01*
X030470Y024963D01*
X030418Y024980D01*
X030368Y025000D01*
X030319Y025024D01*
X030272Y025051D01*
X030227Y025082D01*
X030184Y025115D01*
X030144Y025152D01*
X030106Y025192D01*
X030072Y025234D01*
X030040Y025278D01*
X030012Y025325D01*
X029988Y025373D01*
X029967Y025424D01*
X029949Y025475D01*
X029936Y025528D01*
X029926Y025581D01*
X029920Y025636D01*
X029918Y025690D01*
X031918Y025690D02*
X031920Y025744D01*
X031926Y025799D01*
X031936Y025852D01*
X031949Y025905D01*
X031967Y025956D01*
X031988Y026007D01*
X032012Y026055D01*
X032040Y026102D01*
X032072Y026146D01*
X032106Y026188D01*
X032144Y026228D01*
X032184Y026265D01*
X032227Y026298D01*
X032272Y026329D01*
X032319Y026356D01*
X032368Y026380D01*
X032418Y026400D01*
X032470Y026417D01*
X032523Y026429D01*
X032577Y026438D01*
X032631Y026443D01*
X032686Y026444D01*
X032740Y026441D01*
X032794Y026434D01*
X032847Y026423D01*
X032900Y026409D01*
X032951Y026390D01*
X033001Y026368D01*
X033049Y026343D01*
X033095Y026314D01*
X033139Y026282D01*
X033181Y026247D01*
X033219Y026209D01*
X033255Y026168D01*
X033288Y026124D01*
X033318Y026079D01*
X033344Y026031D01*
X033367Y025982D01*
X033387Y025931D01*
X033402Y025879D01*
X033414Y025825D01*
X033422Y025772D01*
X033426Y025717D01*
X033426Y025663D01*
X033422Y025608D01*
X033414Y025555D01*
X033402Y025501D01*
X033387Y025449D01*
X033367Y025398D01*
X033344Y025349D01*
X033318Y025301D01*
X033288Y025256D01*
X033255Y025212D01*
X033219Y025171D01*
X033181Y025133D01*
X033139Y025098D01*
X033095Y025066D01*
X033049Y025037D01*
X033001Y025012D01*
X032951Y024990D01*
X032900Y024971D01*
X032847Y024957D01*
X032794Y024946D01*
X032740Y024939D01*
X032686Y024936D01*
X032631Y024937D01*
X032577Y024942D01*
X032523Y024951D01*
X032470Y024963D01*
X032418Y024980D01*
X032368Y025000D01*
X032319Y025024D01*
X032272Y025051D01*
X032227Y025082D01*
X032184Y025115D01*
X032144Y025152D01*
X032106Y025192D01*
X032072Y025234D01*
X032040Y025278D01*
X032012Y025325D01*
X031988Y025373D01*
X031967Y025424D01*
X031949Y025475D01*
X031936Y025528D01*
X031926Y025581D01*
X031920Y025636D01*
X031918Y025690D01*
X033672Y024910D02*
X033672Y024716D01*
X033551Y024592D02*
X033621Y024533D01*
X033672Y024533D01*
X033551Y024592D02*
X033447Y024592D01*
X033447Y024311D01*
X033551Y024311D01*
X033621Y024370D01*
X033672Y024370D01*
X042390Y019330D02*
X044970Y019330D01*
X044970Y021690D01*
X046390Y021690D02*
X046390Y019330D01*
X048970Y019330D01*
X048970Y021690D01*
X050390Y021690D02*
X050390Y019330D01*
X052970Y019330D01*
X052970Y021690D01*
X049930Y003827D02*
X049694Y003433D01*
X050166Y003433D01*
X049930Y003827D01*
X003970Y012980D02*
X001390Y012980D01*
X001390Y014380D01*
X003970Y014380D01*
X003970Y012980D01*
D12*
X004054Y021885D02*
X004054Y023113D01*
D13*
X017180Y010080D02*
X017180Y005280D01*
X032180Y005280D01*
X032180Y010080D01*
X017180Y010080D01*
X019180Y009930D02*
X019180Y005430D01*
X030930Y005430D01*
X030930Y009930D01*
X019180Y009930D01*
X019930Y009080D02*
X019930Y006880D01*
X028780Y006880D01*
X028780Y009080D01*
X019930Y009080D01*
X034739Y010528D02*
X034739Y005332D01*
X039621Y005332D01*
X039621Y010528D01*
X034739Y010528D01*
X036156Y008521D02*
X038204Y008521D01*
X035999Y007930D02*
X036001Y007999D01*
X036007Y008067D01*
X036017Y008135D01*
X036031Y008202D01*
X036049Y008269D01*
X036070Y008334D01*
X036096Y008398D01*
X036125Y008460D01*
X036157Y008520D01*
X036193Y008579D01*
X036233Y008635D01*
X036275Y008689D01*
X036321Y008740D01*
X036370Y008789D01*
X036421Y008835D01*
X036475Y008877D01*
X036531Y008917D01*
X036589Y008953D01*
X036650Y008985D01*
X036712Y009014D01*
X036776Y009040D01*
X036841Y009061D01*
X036908Y009079D01*
X036975Y009093D01*
X037043Y009103D01*
X037111Y009109D01*
X037180Y009111D01*
X037249Y009109D01*
X037317Y009103D01*
X037385Y009093D01*
X037452Y009079D01*
X037519Y009061D01*
X037584Y009040D01*
X037648Y009014D01*
X037710Y008985D01*
X037770Y008953D01*
X037829Y008917D01*
X037885Y008877D01*
X037939Y008835D01*
X037990Y008789D01*
X038039Y008740D01*
X038085Y008689D01*
X038127Y008635D01*
X038167Y008579D01*
X038203Y008520D01*
X038235Y008460D01*
X038264Y008398D01*
X038290Y008334D01*
X038311Y008269D01*
X038329Y008202D01*
X038343Y008135D01*
X038353Y008067D01*
X038359Y007999D01*
X038361Y007930D01*
X038359Y007861D01*
X038353Y007793D01*
X038343Y007725D01*
X038329Y007658D01*
X038311Y007591D01*
X038290Y007526D01*
X038264Y007462D01*
X038235Y007400D01*
X038203Y007339D01*
X038167Y007281D01*
X038127Y007225D01*
X038085Y007171D01*
X038039Y007120D01*
X037990Y007071D01*
X037939Y007025D01*
X037885Y006983D01*
X037829Y006943D01*
X037771Y006907D01*
X037710Y006875D01*
X037648Y006846D01*
X037584Y006820D01*
X037519Y006799D01*
X037452Y006781D01*
X037385Y006767D01*
X037317Y006757D01*
X037249Y006751D01*
X037180Y006749D01*
X037111Y006751D01*
X037043Y006757D01*
X036975Y006767D01*
X036908Y006781D01*
X036841Y006799D01*
X036776Y006820D01*
X036712Y006846D01*
X036650Y006875D01*
X036589Y006907D01*
X036531Y006943D01*
X036475Y006983D01*
X036421Y007025D01*
X036370Y007071D01*
X036321Y007120D01*
X036275Y007171D01*
X036233Y007225D01*
X036193Y007281D01*
X036157Y007339D01*
X036125Y007400D01*
X036096Y007462D01*
X036070Y007526D01*
X036049Y007591D01*
X036031Y007658D01*
X036017Y007725D01*
X036007Y007793D01*
X036001Y007861D01*
X035999Y007930D01*
X043408Y006355D02*
X043408Y006158D01*
X043605Y006158D01*
X044121Y007930D02*
X044123Y007995D01*
X044129Y008059D01*
X044139Y008123D01*
X044152Y008186D01*
X044170Y008248D01*
X044191Y008309D01*
X044216Y008369D01*
X044245Y008427D01*
X044277Y008483D01*
X044312Y008537D01*
X044351Y008588D01*
X044392Y008638D01*
X044437Y008685D01*
X044484Y008728D01*
X044534Y008769D01*
X044587Y008807D01*
X044641Y008842D01*
X044698Y008873D01*
X044756Y008900D01*
X044816Y008925D01*
X044877Y008945D01*
X044940Y008961D01*
X045003Y008974D01*
X045067Y008983D01*
X045132Y008988D01*
X045196Y008989D01*
X045261Y008986D01*
X045325Y008979D01*
X045389Y008968D01*
X045451Y008954D01*
X045513Y008935D01*
X045574Y008913D01*
X045633Y008887D01*
X045691Y008858D01*
X045746Y008825D01*
X045800Y008789D01*
X045851Y008749D01*
X045900Y008707D01*
X045946Y008662D01*
X045989Y008613D01*
X046029Y008563D01*
X046066Y008510D01*
X046100Y008455D01*
X046130Y008398D01*
X046157Y008339D01*
X046180Y008279D01*
X046199Y008217D01*
X046215Y008154D01*
X046227Y008091D01*
X046235Y008027D01*
X046239Y007962D01*
X046239Y007898D01*
X046235Y007833D01*
X046227Y007769D01*
X046215Y007706D01*
X046199Y007643D01*
X046180Y007581D01*
X046157Y007521D01*
X046130Y007462D01*
X046100Y007405D01*
X046066Y007350D01*
X046029Y007297D01*
X045989Y007247D01*
X045946Y007198D01*
X045900Y007153D01*
X045851Y007111D01*
X045800Y007071D01*
X045746Y007035D01*
X045691Y007002D01*
X045633Y006973D01*
X045574Y006947D01*
X045513Y006925D01*
X045451Y006906D01*
X045389Y006892D01*
X045325Y006881D01*
X045261Y006874D01*
X045196Y006871D01*
X045132Y006872D01*
X045067Y006877D01*
X045003Y006886D01*
X044940Y006899D01*
X044877Y006915D01*
X044816Y006935D01*
X044756Y006960D01*
X044698Y006987D01*
X044641Y007018D01*
X044587Y007053D01*
X044534Y007091D01*
X044484Y007132D01*
X044437Y007175D01*
X044392Y007222D01*
X044351Y007272D01*
X044312Y007323D01*
X044277Y007377D01*
X044245Y007433D01*
X044216Y007491D01*
X044191Y007551D01*
X044170Y007612D01*
X044152Y007674D01*
X044139Y007737D01*
X044129Y007801D01*
X044123Y007865D01*
X044121Y007930D01*
X046755Y006158D02*
X046952Y006158D01*
X046952Y006355D01*
X049408Y006355D02*
X049408Y006158D01*
X049605Y006158D01*
X050121Y007930D02*
X050123Y007995D01*
X050129Y008059D01*
X050139Y008123D01*
X050152Y008186D01*
X050170Y008248D01*
X050191Y008309D01*
X050216Y008369D01*
X050245Y008427D01*
X050277Y008483D01*
X050312Y008537D01*
X050351Y008588D01*
X050392Y008638D01*
X050437Y008685D01*
X050484Y008728D01*
X050534Y008769D01*
X050587Y008807D01*
X050641Y008842D01*
X050698Y008873D01*
X050756Y008900D01*
X050816Y008925D01*
X050877Y008945D01*
X050940Y008961D01*
X051003Y008974D01*
X051067Y008983D01*
X051132Y008988D01*
X051196Y008989D01*
X051261Y008986D01*
X051325Y008979D01*
X051389Y008968D01*
X051451Y008954D01*
X051513Y008935D01*
X051574Y008913D01*
X051633Y008887D01*
X051691Y008858D01*
X051746Y008825D01*
X051800Y008789D01*
X051851Y008749D01*
X051900Y008707D01*
X051946Y008662D01*
X051989Y008613D01*
X052029Y008563D01*
X052066Y008510D01*
X052100Y008455D01*
X052130Y008398D01*
X052157Y008339D01*
X052180Y008279D01*
X052199Y008217D01*
X052215Y008154D01*
X052227Y008091D01*
X052235Y008027D01*
X052239Y007962D01*
X052239Y007898D01*
X052235Y007833D01*
X052227Y007769D01*
X052215Y007706D01*
X052199Y007643D01*
X052180Y007581D01*
X052157Y007521D01*
X052130Y007462D01*
X052100Y007405D01*
X052066Y007350D01*
X052029Y007297D01*
X051989Y007247D01*
X051946Y007198D01*
X051900Y007153D01*
X051851Y007111D01*
X051800Y007071D01*
X051746Y007035D01*
X051691Y007002D01*
X051633Y006973D01*
X051574Y006947D01*
X051513Y006925D01*
X051451Y006906D01*
X051389Y006892D01*
X051325Y006881D01*
X051261Y006874D01*
X051196Y006871D01*
X051132Y006872D01*
X051067Y006877D01*
X051003Y006886D01*
X050940Y006899D01*
X050877Y006915D01*
X050816Y006935D01*
X050756Y006960D01*
X050698Y006987D01*
X050641Y007018D01*
X050587Y007053D01*
X050534Y007091D01*
X050484Y007132D01*
X050437Y007175D01*
X050392Y007222D01*
X050351Y007272D01*
X050312Y007323D01*
X050277Y007377D01*
X050245Y007433D01*
X050216Y007491D01*
X050191Y007551D01*
X050170Y007612D01*
X050152Y007674D01*
X050139Y007737D01*
X050129Y007801D01*
X050123Y007865D01*
X050121Y007930D01*
X052755Y006158D02*
X052952Y006158D01*
X052952Y006355D01*
X052952Y010095D02*
X052952Y010292D01*
X052755Y010292D01*
X049605Y010292D02*
X049408Y010292D01*
X049408Y010095D01*
X046952Y010095D02*
X046952Y010292D01*
X046755Y010292D01*
X043605Y010292D02*
X043408Y010292D01*
X043408Y010095D01*
D14*
X042435Y010632D02*
X042373Y010570D01*
X042250Y010570D01*
X042188Y010632D01*
X042067Y010632D02*
X042067Y010940D01*
X042188Y010879D02*
X042250Y010940D01*
X042373Y010940D01*
X042435Y010879D01*
X042435Y010817D01*
X042373Y010755D01*
X042435Y010693D01*
X042435Y010632D01*
X042373Y010755D02*
X042312Y010755D01*
X042067Y010632D02*
X042005Y010570D01*
X041882Y010570D01*
X041820Y010632D01*
X041820Y010940D01*
X040837Y010022D02*
X040775Y010084D01*
X040652Y010084D01*
X040590Y010022D01*
X040590Y009961D01*
X040652Y009899D01*
X040837Y009899D01*
X040837Y010022D02*
X040837Y009775D01*
X040775Y009714D01*
X040652Y009714D01*
X040590Y009775D01*
X040468Y009775D02*
X040407Y009714D01*
X040283Y009714D01*
X040222Y009775D01*
X040222Y010022D01*
X040283Y010084D01*
X040407Y010084D01*
X040468Y010022D01*
X038310Y011570D02*
X038063Y011570D01*
X037942Y011570D02*
X037695Y011570D01*
X037695Y011940D01*
X038063Y011817D02*
X038187Y011940D01*
X038187Y011570D01*
X038981Y012820D02*
X039228Y012820D01*
X039290Y012882D01*
X039290Y013005D01*
X039228Y013067D01*
X039228Y013188D02*
X039290Y013250D01*
X039290Y013373D01*
X039228Y013435D01*
X039105Y013435D01*
X039043Y013373D01*
X039043Y013312D01*
X039105Y013188D01*
X038920Y013188D01*
X038920Y013435D01*
X038981Y013067D02*
X038920Y013005D01*
X038920Y012882D01*
X038981Y012820D01*
X040833Y012982D02*
X040895Y012920D01*
X041019Y012920D01*
X041080Y012982D01*
X041202Y012982D02*
X041263Y012920D01*
X041387Y012920D01*
X041449Y012982D01*
X041449Y013043D01*
X041387Y013105D01*
X041202Y013105D01*
X041202Y012982D01*
X041202Y013105D02*
X041325Y013229D01*
X041449Y013290D01*
X041080Y013229D02*
X041019Y013290D01*
X040895Y013290D01*
X040833Y013229D01*
X040833Y012982D01*
X042570Y013007D02*
X042632Y012945D01*
X042755Y012945D01*
X042817Y013007D01*
X042817Y013315D01*
X042938Y013254D02*
X043000Y013315D01*
X043123Y013315D01*
X043185Y013254D01*
X043185Y013192D01*
X042938Y012945D01*
X043185Y012945D01*
X042570Y013007D02*
X042570Y013315D01*
X044170Y013060D02*
X044170Y012813D01*
X044231Y012692D02*
X044170Y012630D01*
X044170Y012507D01*
X044231Y012445D01*
X044478Y012445D01*
X044540Y012507D01*
X044540Y012630D01*
X044478Y012692D01*
X044478Y012813D02*
X044540Y012813D01*
X044478Y012813D02*
X044231Y013060D01*
X044170Y013060D01*
X046070Y013004D02*
X046070Y012757D01*
X046132Y012695D01*
X046255Y012695D01*
X046317Y012757D01*
X046438Y012757D02*
X046438Y012818D01*
X046500Y012880D01*
X046623Y012880D01*
X046685Y012818D01*
X046685Y012757D01*
X046623Y012695D01*
X046500Y012695D01*
X046438Y012757D01*
X046500Y012880D02*
X046438Y012942D01*
X046438Y013004D01*
X046500Y013065D01*
X046623Y013065D01*
X046685Y013004D01*
X046685Y012942D01*
X046623Y012880D01*
X046317Y013004D02*
X046255Y013065D01*
X046132Y013065D01*
X046070Y013004D01*
X046445Y014320D02*
X046445Y014690D01*
X046630Y014690D01*
X046692Y014629D01*
X046692Y014505D01*
X046630Y014443D01*
X046445Y014443D01*
X046568Y014443D02*
X046692Y014320D01*
X046813Y014320D02*
X047060Y014567D01*
X047060Y014629D01*
X046998Y014690D01*
X046875Y014690D01*
X046813Y014629D01*
X046813Y014320D02*
X047060Y014320D01*
X047182Y014320D02*
X047429Y014567D01*
X047429Y014629D01*
X047367Y014690D01*
X047243Y014690D01*
X047182Y014629D01*
X047182Y014320D02*
X047429Y014320D01*
X048195Y014320D02*
X048195Y014690D01*
X048380Y014690D01*
X048442Y014629D01*
X048442Y014505D01*
X048380Y014443D01*
X048195Y014443D01*
X048318Y014443D02*
X048442Y014320D01*
X048563Y014320D02*
X048810Y014567D01*
X048810Y014629D01*
X048748Y014690D01*
X048625Y014690D01*
X048563Y014629D01*
X048563Y014320D02*
X048810Y014320D01*
X048932Y014382D02*
X048993Y014320D01*
X049117Y014320D01*
X049179Y014382D01*
X049179Y014443D01*
X049117Y014505D01*
X049055Y014505D01*
X049117Y014505D02*
X049179Y014567D01*
X049179Y014629D01*
X049117Y014690D01*
X048993Y014690D01*
X048932Y014629D01*
X050195Y014690D02*
X050195Y014320D01*
X050195Y014443D02*
X050380Y014443D01*
X050442Y014505D01*
X050442Y014629D01*
X050380Y014690D01*
X050195Y014690D01*
X050318Y014443D02*
X050442Y014320D01*
X050563Y014320D02*
X050810Y014567D01*
X050810Y014629D01*
X050748Y014690D01*
X050625Y014690D01*
X050563Y014629D01*
X050563Y014320D02*
X050810Y014320D01*
X050932Y014505D02*
X051179Y014505D01*
X051117Y014320D02*
X051117Y014690D01*
X050932Y014505D01*
X052195Y014443D02*
X052380Y014443D01*
X052442Y014505D01*
X052442Y014629D01*
X052380Y014690D01*
X052195Y014690D01*
X052195Y014320D01*
X052318Y014443D02*
X052442Y014320D01*
X052563Y014320D02*
X052810Y014567D01*
X052810Y014629D01*
X052748Y014690D01*
X052625Y014690D01*
X052563Y014629D01*
X052563Y014320D02*
X052810Y014320D01*
X052932Y014382D02*
X052993Y014320D01*
X053117Y014320D01*
X053179Y014382D01*
X053179Y014505D01*
X053117Y014567D01*
X053055Y014567D01*
X052932Y014505D01*
X052932Y014690D01*
X053179Y014690D01*
X052540Y015945D02*
X052293Y015945D01*
X052540Y016192D01*
X052540Y016254D01*
X052478Y016315D01*
X052355Y016315D01*
X052293Y016254D01*
X052048Y016315D02*
X052048Y015945D01*
X051925Y015945D02*
X052172Y015945D01*
X051925Y016192D02*
X052048Y016315D01*
X051804Y016254D02*
X051742Y016315D01*
X051618Y016315D01*
X051557Y016254D01*
X051557Y016192D01*
X051618Y016130D01*
X051742Y016130D01*
X051804Y016068D01*
X051804Y016007D01*
X051742Y015945D01*
X051618Y015945D01*
X051557Y016007D01*
X051435Y016007D02*
X051435Y016254D01*
X051373Y016315D01*
X051250Y016315D01*
X051188Y016254D01*
X051188Y016007D01*
X051250Y015945D01*
X051373Y015945D01*
X051435Y016007D01*
X051067Y015945D02*
X051067Y016315D01*
X050943Y016192D01*
X050820Y016315D01*
X050820Y015945D01*
X048540Y015945D02*
X048293Y015945D01*
X048172Y015945D02*
X047925Y015945D01*
X048048Y015945D02*
X048048Y016315D01*
X047925Y016192D01*
X047804Y016254D02*
X047742Y016315D01*
X047618Y016315D01*
X047557Y016254D01*
X047557Y016192D01*
X047618Y016130D01*
X047742Y016130D01*
X047804Y016068D01*
X047804Y016007D01*
X047742Y015945D01*
X047618Y015945D01*
X047557Y016007D01*
X047435Y016007D02*
X047435Y016254D01*
X047373Y016315D01*
X047250Y016315D01*
X047188Y016254D01*
X047188Y016007D01*
X047250Y015945D01*
X047373Y015945D01*
X047435Y016007D01*
X047067Y015945D02*
X047067Y016315D01*
X046943Y016192D01*
X046820Y016315D01*
X046820Y015945D01*
X048293Y016192D02*
X048417Y016315D01*
X048417Y015945D01*
X045055Y014690D02*
X045055Y014320D01*
X044932Y014320D02*
X045179Y014320D01*
X044932Y014567D02*
X045055Y014690D01*
X044810Y014629D02*
X044748Y014690D01*
X044625Y014690D01*
X044563Y014629D01*
X044442Y014629D02*
X044442Y014505D01*
X044380Y014443D01*
X044195Y014443D01*
X044195Y014320D02*
X044195Y014690D01*
X044380Y014690D01*
X044442Y014629D01*
X044318Y014443D02*
X044442Y014320D01*
X044563Y014320D02*
X044810Y014567D01*
X044810Y014629D01*
X044810Y014320D02*
X044563Y014320D01*
X043179Y014382D02*
X043117Y014320D01*
X042993Y014320D01*
X042932Y014382D01*
X043179Y014629D01*
X043179Y014382D01*
X043179Y014629D02*
X043117Y014690D01*
X042993Y014690D01*
X042932Y014629D01*
X042932Y014382D01*
X042810Y014320D02*
X042563Y014320D01*
X042810Y014567D01*
X042810Y014629D01*
X042748Y014690D01*
X042625Y014690D01*
X042563Y014629D01*
X042442Y014629D02*
X042442Y014505D01*
X042380Y014443D01*
X042195Y014443D01*
X042195Y014320D02*
X042195Y014690D01*
X042380Y014690D01*
X042442Y014629D01*
X042318Y014443D02*
X042442Y014320D01*
X041179Y014380D02*
X040993Y014380D01*
X040932Y014442D01*
X040932Y014504D01*
X040993Y014565D01*
X041117Y014565D01*
X041179Y014504D01*
X041179Y014257D01*
X041117Y014195D01*
X040993Y014195D01*
X040932Y014257D01*
X040810Y014195D02*
X040563Y014195D01*
X040442Y014195D02*
X040318Y014318D01*
X040380Y014318D02*
X040195Y014318D01*
X040195Y014195D02*
X040195Y014565D01*
X040380Y014565D01*
X040442Y014504D01*
X040442Y014380D01*
X040380Y014318D01*
X040563Y014442D02*
X040687Y014565D01*
X040687Y014195D01*
X039179Y014257D02*
X039117Y014195D01*
X038993Y014195D01*
X038932Y014257D01*
X038932Y014318D01*
X038993Y014380D01*
X039117Y014380D01*
X039179Y014318D01*
X039179Y014257D01*
X039117Y014380D02*
X039179Y014442D01*
X039179Y014504D01*
X039117Y014565D01*
X038993Y014565D01*
X038932Y014504D01*
X038932Y014442D01*
X038993Y014380D01*
X038810Y014195D02*
X038563Y014195D01*
X038442Y014195D02*
X038318Y014318D01*
X038380Y014318D02*
X038195Y014318D01*
X038195Y014195D02*
X038195Y014565D01*
X038380Y014565D01*
X038442Y014504D01*
X038442Y014380D01*
X038380Y014318D01*
X038563Y014442D02*
X038687Y014565D01*
X038687Y014195D01*
X037179Y014504D02*
X036932Y014257D01*
X036932Y014195D01*
X036810Y014195D02*
X036563Y014195D01*
X036442Y014195D02*
X036318Y014318D01*
X036380Y014318D02*
X036195Y014318D01*
X036195Y014195D02*
X036195Y014565D01*
X036380Y014565D01*
X036442Y014504D01*
X036442Y014380D01*
X036380Y014318D01*
X036563Y014442D02*
X036687Y014565D01*
X036687Y014195D01*
X036932Y014565D02*
X037179Y014565D01*
X037179Y014504D01*
X035179Y014565D02*
X035055Y014504D01*
X034932Y014380D01*
X035117Y014380D01*
X035179Y014318D01*
X035179Y014257D01*
X035117Y014195D01*
X034993Y014195D01*
X034932Y014257D01*
X034932Y014380D01*
X034810Y014195D02*
X034563Y014195D01*
X034442Y014195D02*
X034318Y014318D01*
X034380Y014318D02*
X034195Y014318D01*
X034195Y014195D02*
X034195Y014565D01*
X034380Y014565D01*
X034442Y014504D01*
X034442Y014380D01*
X034380Y014318D01*
X034563Y014442D02*
X034687Y014565D01*
X034687Y014195D01*
X033179Y014257D02*
X033117Y014195D01*
X032993Y014195D01*
X032932Y014257D01*
X032932Y014380D02*
X033055Y014442D01*
X033117Y014442D01*
X033179Y014380D01*
X033179Y014257D01*
X032932Y014380D02*
X032932Y014565D01*
X033179Y014565D01*
X032687Y014565D02*
X032687Y014195D01*
X032810Y014195D02*
X032563Y014195D01*
X032442Y014195D02*
X032318Y014318D01*
X032380Y014318D02*
X032195Y014318D01*
X032195Y014195D02*
X032195Y014565D01*
X032380Y014565D01*
X032442Y014504D01*
X032442Y014380D01*
X032380Y014318D01*
X032563Y014442D02*
X032687Y014565D01*
X031179Y014380D02*
X030932Y014380D01*
X031117Y014565D01*
X031117Y014195D01*
X030810Y014195D02*
X030563Y014195D01*
X030442Y014195D02*
X030318Y014318D01*
X030380Y014318D02*
X030195Y014318D01*
X030195Y014195D02*
X030195Y014565D01*
X030380Y014565D01*
X030442Y014504D01*
X030442Y014380D01*
X030380Y014318D01*
X030563Y014442D02*
X030687Y014565D01*
X030687Y014195D01*
X029179Y014257D02*
X029117Y014195D01*
X028993Y014195D01*
X028932Y014257D01*
X028810Y014195D02*
X028563Y014195D01*
X028442Y014195D02*
X028318Y014318D01*
X028380Y014318D02*
X028195Y014318D01*
X028195Y014195D02*
X028195Y014565D01*
X028380Y014565D01*
X028442Y014504D01*
X028442Y014380D01*
X028380Y014318D01*
X028563Y014442D02*
X028687Y014565D01*
X028687Y014195D01*
X029055Y014380D02*
X029117Y014380D01*
X029179Y014318D01*
X029179Y014257D01*
X029117Y014380D02*
X029179Y014442D01*
X029179Y014504D01*
X029117Y014565D01*
X028993Y014565D01*
X028932Y014504D01*
X027179Y014504D02*
X027179Y014442D01*
X026932Y014195D01*
X027179Y014195D01*
X026810Y014195D02*
X026563Y014195D01*
X026442Y014195D02*
X026318Y014318D01*
X026380Y014318D02*
X026195Y014318D01*
X026195Y014195D02*
X026195Y014565D01*
X026380Y014565D01*
X026442Y014504D01*
X026442Y014380D01*
X026380Y014318D01*
X026563Y014442D02*
X026687Y014565D01*
X026687Y014195D01*
X026932Y014504D02*
X026993Y014565D01*
X027117Y014565D01*
X027179Y014504D01*
X025179Y014195D02*
X024932Y014195D01*
X024810Y014195D02*
X024563Y014195D01*
X024442Y014195D02*
X024318Y014318D01*
X024380Y014318D02*
X024195Y014318D01*
X024195Y014195D02*
X024195Y014565D01*
X024380Y014565D01*
X024442Y014504D01*
X024442Y014380D01*
X024380Y014318D01*
X024563Y014442D02*
X024687Y014565D01*
X024687Y014195D01*
X024932Y014442D02*
X025055Y014565D01*
X025055Y014195D01*
X023179Y014257D02*
X023117Y014195D01*
X022993Y014195D01*
X022932Y014257D01*
X023179Y014504D01*
X023179Y014257D01*
X023179Y014504D02*
X023117Y014565D01*
X022993Y014565D01*
X022932Y014504D01*
X022932Y014257D01*
X022810Y014195D02*
X022563Y014195D01*
X022442Y014195D02*
X022318Y014318D01*
X022380Y014318D02*
X022195Y014318D01*
X022195Y014195D02*
X022195Y014565D01*
X022380Y014565D01*
X022442Y014504D01*
X022442Y014380D01*
X022380Y014318D01*
X022563Y014442D02*
X022687Y014565D01*
X022687Y014195D01*
X020935Y014257D02*
X020873Y014195D01*
X020750Y014195D01*
X020688Y014257D01*
X020567Y014195D02*
X020443Y014318D01*
X020505Y014318D02*
X020320Y014318D01*
X020320Y014195D02*
X020320Y014565D01*
X020505Y014565D01*
X020567Y014504D01*
X020567Y014380D01*
X020505Y014318D01*
X020688Y014442D02*
X020750Y014380D01*
X020935Y014380D01*
X020935Y014257D02*
X020935Y014504D01*
X020873Y014565D01*
X020750Y014565D01*
X020688Y014504D01*
X020688Y014442D01*
X018935Y014442D02*
X018873Y014380D01*
X018750Y014380D01*
X018688Y014442D01*
X018688Y014504D01*
X018750Y014565D01*
X018873Y014565D01*
X018935Y014504D01*
X018935Y014442D01*
X018873Y014380D02*
X018935Y014318D01*
X018935Y014257D01*
X018873Y014195D01*
X018750Y014195D01*
X018688Y014257D01*
X018688Y014318D01*
X018750Y014380D01*
X018567Y014380D02*
X018567Y014504D01*
X018505Y014565D01*
X018320Y014565D01*
X018320Y014195D01*
X018320Y014318D02*
X018505Y014318D01*
X018567Y014380D01*
X018443Y014318D02*
X018567Y014195D01*
X016935Y014504D02*
X016688Y014257D01*
X016688Y014195D01*
X016567Y014195D02*
X016443Y014318D01*
X016505Y014318D02*
X016320Y014318D01*
X016320Y014195D02*
X016320Y014565D01*
X016505Y014565D01*
X016567Y014504D01*
X016567Y014380D01*
X016505Y014318D01*
X016688Y014565D02*
X016935Y014565D01*
X016935Y014504D01*
X014935Y014565D02*
X014812Y014504D01*
X014688Y014380D01*
X014873Y014380D01*
X014935Y014318D01*
X014935Y014257D01*
X014873Y014195D01*
X014750Y014195D01*
X014688Y014257D01*
X014688Y014380D01*
X014567Y014380D02*
X014567Y014504D01*
X014505Y014565D01*
X014320Y014565D01*
X014320Y014195D01*
X014320Y014318D02*
X014505Y014318D01*
X014567Y014380D01*
X014443Y014318D02*
X014567Y014195D01*
X012935Y014257D02*
X012873Y014195D01*
X012750Y014195D01*
X012688Y014257D01*
X012688Y014380D02*
X012812Y014442D01*
X012873Y014442D01*
X012935Y014380D01*
X012935Y014257D01*
X012688Y014380D02*
X012688Y014565D01*
X012935Y014565D01*
X012567Y014504D02*
X012567Y014380D01*
X012505Y014318D01*
X012320Y014318D01*
X012320Y014195D02*
X012320Y014565D01*
X012505Y014565D01*
X012567Y014504D01*
X012443Y014318D02*
X012567Y014195D01*
X010935Y014380D02*
X010688Y014380D01*
X010873Y014565D01*
X010873Y014195D01*
X010567Y014195D02*
X010443Y014318D01*
X010505Y014318D02*
X010320Y014318D01*
X010320Y014195D02*
X010320Y014565D01*
X010505Y014565D01*
X010567Y014504D01*
X010567Y014380D01*
X010505Y014318D01*
X008935Y014318D02*
X008935Y014257D01*
X008873Y014195D01*
X008750Y014195D01*
X008688Y014257D01*
X008567Y014195D02*
X008443Y014318D01*
X008505Y014318D02*
X008320Y014318D01*
X008320Y014195D02*
X008320Y014565D01*
X008505Y014565D01*
X008567Y014504D01*
X008567Y014380D01*
X008505Y014318D01*
X008688Y014504D02*
X008750Y014565D01*
X008873Y014565D01*
X008935Y014504D01*
X008935Y014442D01*
X008873Y014380D01*
X008935Y014318D01*
X008873Y014380D02*
X008812Y014380D01*
X006935Y014442D02*
X006688Y014195D01*
X006935Y014195D01*
X006935Y014442D02*
X006935Y014504D01*
X006873Y014565D01*
X006750Y014565D01*
X006688Y014504D01*
X006567Y014504D02*
X006567Y014380D01*
X006505Y014318D01*
X006320Y014318D01*
X006320Y014195D02*
X006320Y014565D01*
X006505Y014565D01*
X006567Y014504D01*
X006443Y014318D02*
X006567Y014195D01*
X003935Y015882D02*
X003873Y015820D01*
X003750Y015820D01*
X003688Y015882D01*
X003567Y015882D02*
X003505Y015820D01*
X003382Y015820D01*
X003320Y015882D01*
X003320Y016129D01*
X003382Y016190D01*
X003505Y016190D01*
X003567Y016129D01*
X003688Y016129D02*
X003750Y016190D01*
X003873Y016190D01*
X003935Y016129D01*
X003935Y016067D01*
X003873Y016005D01*
X003935Y015943D01*
X003935Y015882D01*
X003873Y016005D02*
X003812Y016005D01*
X001935Y016067D02*
X001935Y016129D01*
X001873Y016190D01*
X001750Y016190D01*
X001688Y016129D01*
X001567Y016129D02*
X001505Y016190D01*
X001382Y016190D01*
X001320Y016129D01*
X001320Y015882D01*
X001382Y015820D01*
X001505Y015820D01*
X001567Y015882D01*
X001688Y015820D02*
X001935Y016067D01*
X001935Y015820D02*
X001688Y015820D01*
X001688Y017320D02*
X001935Y017320D01*
X001812Y017320D02*
X001812Y017690D01*
X001688Y017567D01*
X001567Y017629D02*
X001505Y017690D01*
X001382Y017690D01*
X001320Y017629D01*
X001320Y017382D01*
X001382Y017320D01*
X001505Y017320D01*
X001567Y017382D01*
X003320Y017382D02*
X003382Y017320D01*
X003505Y017320D01*
X003567Y017382D01*
X003688Y017505D02*
X003935Y017505D01*
X003873Y017320D02*
X003873Y017690D01*
X003688Y017505D01*
X003567Y017629D02*
X003505Y017690D01*
X003382Y017690D01*
X003320Y017629D01*
X003320Y017382D01*
X006945Y016315D02*
X006945Y015945D01*
X007192Y015945D02*
X007192Y016315D01*
X007068Y016192D01*
X006945Y016315D01*
X007313Y016254D02*
X007313Y016007D01*
X007375Y015945D01*
X007498Y015945D01*
X007560Y016007D01*
X007560Y016254D01*
X007498Y016315D01*
X007375Y016315D01*
X007313Y016254D01*
X007682Y016254D02*
X007682Y016192D01*
X007743Y016130D01*
X007867Y016130D01*
X007929Y016068D01*
X007929Y016007D01*
X007867Y015945D01*
X007743Y015945D01*
X007682Y016007D01*
X007682Y016254D02*
X007743Y016315D01*
X007867Y016315D01*
X007929Y016254D01*
X008050Y016192D02*
X008173Y016315D01*
X008173Y015945D01*
X008050Y015945D02*
X008297Y015945D01*
X010945Y015945D02*
X010945Y016315D01*
X011068Y016192D01*
X011192Y016315D01*
X011192Y015945D01*
X011313Y016007D02*
X011375Y015945D01*
X011498Y015945D01*
X011560Y016007D01*
X011560Y016254D01*
X011498Y016315D01*
X011375Y016315D01*
X011313Y016254D01*
X011313Y016007D01*
X011682Y016007D02*
X011743Y015945D01*
X011867Y015945D01*
X011929Y016007D01*
X011929Y016068D01*
X011867Y016130D01*
X011743Y016130D01*
X011682Y016192D01*
X011682Y016254D01*
X011743Y016315D01*
X011867Y016315D01*
X011929Y016254D01*
X012050Y016254D02*
X012112Y016315D01*
X012235Y016315D01*
X012297Y016254D01*
X012297Y016192D01*
X012050Y015945D01*
X012297Y015945D01*
X014945Y015945D02*
X014945Y016315D01*
X015068Y016192D01*
X015192Y016315D01*
X015192Y015945D01*
X015313Y016007D02*
X015375Y015945D01*
X015498Y015945D01*
X015560Y016007D01*
X015560Y016254D01*
X015498Y016315D01*
X015375Y016315D01*
X015313Y016254D01*
X015313Y016007D01*
X015682Y016007D02*
X015743Y015945D01*
X015867Y015945D01*
X015929Y016007D01*
X015929Y016068D01*
X015867Y016130D01*
X015743Y016130D01*
X015682Y016192D01*
X015682Y016254D01*
X015743Y016315D01*
X015867Y016315D01*
X015929Y016254D01*
X016050Y016254D02*
X016112Y016315D01*
X016235Y016315D01*
X016297Y016254D01*
X016297Y016192D01*
X016235Y016130D01*
X016297Y016068D01*
X016297Y016007D01*
X016235Y015945D01*
X016112Y015945D01*
X016050Y016007D01*
X016173Y016130D02*
X016235Y016130D01*
X018945Y015945D02*
X018945Y016315D01*
X019068Y016192D01*
X019192Y016315D01*
X019192Y015945D01*
X019313Y016007D02*
X019313Y016254D01*
X019375Y016315D01*
X019498Y016315D01*
X019560Y016254D01*
X019560Y016007D01*
X019498Y015945D01*
X019375Y015945D01*
X019313Y016007D01*
X019682Y016007D02*
X019743Y015945D01*
X019867Y015945D01*
X019929Y016007D01*
X019929Y016068D01*
X019867Y016130D01*
X019743Y016130D01*
X019682Y016192D01*
X019682Y016254D01*
X019743Y016315D01*
X019867Y016315D01*
X019929Y016254D01*
X020050Y016130D02*
X020235Y016315D01*
X020235Y015945D01*
X020297Y016130D02*
X020050Y016130D01*
X022945Y015945D02*
X022945Y016315D01*
X023068Y016192D01*
X023192Y016315D01*
X023192Y015945D01*
X023313Y016007D02*
X023375Y015945D01*
X023498Y015945D01*
X023560Y016007D01*
X023560Y016254D01*
X023498Y016315D01*
X023375Y016315D01*
X023313Y016254D01*
X023313Y016007D01*
X023682Y016007D02*
X023743Y015945D01*
X023867Y015945D01*
X023929Y016007D01*
X023929Y016068D01*
X023867Y016130D01*
X023743Y016130D01*
X023682Y016192D01*
X023682Y016254D01*
X023743Y016315D01*
X023867Y016315D01*
X023929Y016254D01*
X024050Y016315D02*
X024050Y016130D01*
X024173Y016192D01*
X024235Y016192D01*
X024297Y016130D01*
X024297Y016007D01*
X024235Y015945D01*
X024112Y015945D01*
X024050Y016007D01*
X024050Y016315D02*
X024297Y016315D01*
X026945Y016315D02*
X026945Y015945D01*
X027192Y015945D02*
X027192Y016315D01*
X027068Y016192D01*
X026945Y016315D01*
X027313Y016254D02*
X027313Y016007D01*
X027375Y015945D01*
X027498Y015945D01*
X027560Y016007D01*
X027560Y016254D01*
X027498Y016315D01*
X027375Y016315D01*
X027313Y016254D01*
X027682Y016254D02*
X027682Y016192D01*
X027743Y016130D01*
X027867Y016130D01*
X027929Y016068D01*
X027929Y016007D01*
X027867Y015945D01*
X027743Y015945D01*
X027682Y016007D01*
X027682Y016254D02*
X027743Y016315D01*
X027867Y016315D01*
X027929Y016254D01*
X028050Y016130D02*
X028235Y016130D01*
X028297Y016068D01*
X028297Y016007D01*
X028235Y015945D01*
X028112Y015945D01*
X028050Y016007D01*
X028050Y016130D01*
X028173Y016254D01*
X028297Y016315D01*
X030945Y016315D02*
X030945Y015945D01*
X031192Y015945D02*
X031192Y016315D01*
X031068Y016192D01*
X030945Y016315D01*
X031313Y016254D02*
X031313Y016007D01*
X031375Y015945D01*
X031498Y015945D01*
X031560Y016007D01*
X031560Y016254D01*
X031498Y016315D01*
X031375Y016315D01*
X031313Y016254D01*
X031682Y016254D02*
X031682Y016192D01*
X031743Y016130D01*
X031867Y016130D01*
X031929Y016068D01*
X031929Y016007D01*
X031867Y015945D01*
X031743Y015945D01*
X031682Y016007D01*
X031682Y016254D02*
X031743Y016315D01*
X031867Y016315D01*
X031929Y016254D01*
X032050Y016315D02*
X032297Y016315D01*
X032297Y016254D01*
X032050Y016007D01*
X032050Y015945D01*
X034945Y015945D02*
X034945Y016315D01*
X035068Y016192D01*
X035192Y016315D01*
X035192Y015945D01*
X035313Y016007D02*
X035375Y015945D01*
X035498Y015945D01*
X035560Y016007D01*
X035560Y016254D01*
X035498Y016315D01*
X035375Y016315D01*
X035313Y016254D01*
X035313Y016007D01*
X035682Y016007D02*
X035743Y015945D01*
X035867Y015945D01*
X035929Y016007D01*
X035929Y016068D01*
X035867Y016130D01*
X035743Y016130D01*
X035682Y016192D01*
X035682Y016254D01*
X035743Y016315D01*
X035867Y016315D01*
X035929Y016254D01*
X036050Y016254D02*
X036050Y016192D01*
X036112Y016130D01*
X036235Y016130D01*
X036297Y016068D01*
X036297Y016007D01*
X036235Y015945D01*
X036112Y015945D01*
X036050Y016007D01*
X036050Y016068D01*
X036112Y016130D01*
X036235Y016130D02*
X036297Y016192D01*
X036297Y016254D01*
X036235Y016315D01*
X036112Y016315D01*
X036050Y016254D01*
X038945Y016315D02*
X038945Y015945D01*
X039192Y015945D02*
X039192Y016315D01*
X039068Y016192D01*
X038945Y016315D01*
X039313Y016254D02*
X039313Y016007D01*
X039375Y015945D01*
X039498Y015945D01*
X039560Y016007D01*
X039560Y016254D01*
X039498Y016315D01*
X039375Y016315D01*
X039313Y016254D01*
X039682Y016254D02*
X039682Y016192D01*
X039743Y016130D01*
X039867Y016130D01*
X039929Y016068D01*
X039929Y016007D01*
X039867Y015945D01*
X039743Y015945D01*
X039682Y016007D01*
X039682Y016254D02*
X039743Y016315D01*
X039867Y016315D01*
X039929Y016254D01*
X040050Y016254D02*
X040050Y016192D01*
X040112Y016130D01*
X040297Y016130D01*
X040297Y016007D02*
X040297Y016254D01*
X040235Y016315D01*
X040112Y016315D01*
X040050Y016254D01*
X040050Y016007D02*
X040112Y015945D01*
X040235Y015945D01*
X040297Y016007D01*
X042820Y015945D02*
X042820Y016315D01*
X042943Y016192D01*
X043067Y016315D01*
X043067Y015945D01*
X043188Y016007D02*
X043188Y016254D01*
X043250Y016315D01*
X043373Y016315D01*
X043435Y016254D01*
X043435Y016007D01*
X043373Y015945D01*
X043250Y015945D01*
X043188Y016007D01*
X043557Y016007D02*
X043618Y015945D01*
X043742Y015945D01*
X043804Y016007D01*
X043804Y016068D01*
X043742Y016130D01*
X043618Y016130D01*
X043557Y016192D01*
X043557Y016254D01*
X043618Y016315D01*
X043742Y016315D01*
X043804Y016254D01*
X043925Y016192D02*
X044048Y016315D01*
X044048Y015945D01*
X043925Y015945D02*
X044172Y015945D01*
X044293Y016007D02*
X044540Y016254D01*
X044540Y016007D01*
X044478Y015945D01*
X044355Y015945D01*
X044293Y016007D01*
X044293Y016254D01*
X044355Y016315D01*
X044478Y016315D01*
X044540Y016254D01*
X044887Y023089D02*
X045072Y023089D01*
X045134Y023150D01*
X045134Y023397D01*
X045072Y023459D01*
X044887Y023459D01*
X044887Y023089D01*
X045255Y023089D02*
X045502Y023089D01*
X045624Y023089D02*
X045870Y023089D01*
X045747Y023089D02*
X045747Y023459D01*
X045624Y023336D01*
X045379Y023459D02*
X045379Y023089D01*
X045255Y023336D02*
X045379Y023459D01*
X045824Y023632D02*
X045824Y023879D01*
X045886Y023940D01*
X046010Y023940D01*
X046071Y023879D01*
X046071Y023632D01*
X046010Y023570D01*
X045886Y023570D01*
X045824Y023632D01*
X046193Y023632D02*
X046193Y023940D01*
X046440Y023940D02*
X046440Y023632D01*
X046378Y023570D01*
X046255Y023570D01*
X046193Y023632D01*
X046561Y023940D02*
X046808Y023940D01*
X046685Y023940D02*
X046685Y023570D01*
X046929Y023570D02*
X047176Y023570D01*
X047298Y023570D02*
X047545Y023570D01*
X047421Y023570D02*
X047421Y023940D01*
X047298Y023817D01*
X047053Y023940D02*
X047053Y023570D01*
X046929Y023817D02*
X047053Y023940D01*
X048887Y023459D02*
X048887Y023089D01*
X049072Y023089D01*
X049134Y023150D01*
X049134Y023397D01*
X049072Y023459D01*
X048887Y023459D01*
X049255Y023336D02*
X049379Y023459D01*
X049379Y023089D01*
X049502Y023089D02*
X049255Y023089D01*
X049624Y023089D02*
X049870Y023336D01*
X049870Y023397D01*
X049809Y023459D01*
X049685Y023459D01*
X049624Y023397D01*
X049624Y023089D02*
X049870Y023089D01*
X049886Y023570D02*
X050010Y023570D01*
X050071Y023632D01*
X050071Y023879D01*
X050010Y023940D01*
X049886Y023940D01*
X049824Y023879D01*
X049824Y023632D01*
X049886Y023570D01*
X050193Y023632D02*
X050193Y023940D01*
X050440Y023940D02*
X050440Y023632D01*
X050378Y023570D01*
X050255Y023570D01*
X050193Y023632D01*
X050561Y023940D02*
X050808Y023940D01*
X050685Y023940D02*
X050685Y023570D01*
X050929Y023570D02*
X051176Y023570D01*
X051298Y023570D02*
X051545Y023817D01*
X051545Y023879D01*
X051483Y023940D01*
X051359Y023940D01*
X051298Y023879D01*
X051053Y023940D02*
X051053Y023570D01*
X051298Y023570D02*
X051545Y023570D01*
X051053Y023940D02*
X050929Y023817D01*
X052762Y023459D02*
X052762Y023089D01*
X052947Y023089D01*
X053009Y023150D01*
X053009Y023397D01*
X052947Y023459D01*
X052762Y023459D01*
X053130Y023336D02*
X053254Y023459D01*
X053254Y023089D01*
X053377Y023089D02*
X053130Y023089D01*
X053499Y023150D02*
X053560Y023089D01*
X053684Y023089D01*
X053745Y023150D01*
X053745Y023212D01*
X053684Y023274D01*
X053622Y023274D01*
X053684Y023274D02*
X053745Y023336D01*
X053745Y023397D01*
X053684Y023459D01*
X053560Y023459D01*
X053499Y023397D01*
X043420Y023632D02*
X043358Y023570D01*
X043234Y023570D01*
X043173Y023632D01*
X043420Y023879D01*
X043420Y023632D01*
X043420Y023879D02*
X043358Y023940D01*
X043234Y023940D01*
X043173Y023879D01*
X043173Y023632D01*
X043051Y023570D02*
X042804Y023570D01*
X042928Y023570D02*
X042928Y023940D01*
X042804Y023817D01*
X042683Y023940D02*
X042436Y023940D01*
X042315Y023940D02*
X042315Y023632D01*
X042253Y023570D01*
X042130Y023570D01*
X042068Y023632D01*
X042068Y023940D01*
X041946Y023879D02*
X041946Y023632D01*
X041885Y023570D01*
X041761Y023570D01*
X041699Y023632D01*
X041699Y023879D01*
X041761Y023940D01*
X041885Y023940D01*
X041946Y023879D01*
X041809Y023459D02*
X041870Y023397D01*
X041624Y023150D01*
X041685Y023089D01*
X041809Y023089D01*
X041870Y023150D01*
X041870Y023397D01*
X041809Y023459D02*
X041685Y023459D01*
X041624Y023397D01*
X041624Y023150D01*
X041502Y023089D02*
X041255Y023089D01*
X041379Y023089D02*
X041379Y023459D01*
X041255Y023336D01*
X041134Y023397D02*
X041072Y023459D01*
X040887Y023459D01*
X040887Y023089D01*
X041072Y023089D01*
X041134Y023150D01*
X041134Y023397D01*
X042560Y023570D02*
X042560Y023940D01*
X039051Y023879D02*
X039051Y023632D01*
X038990Y023570D01*
X038866Y023570D01*
X038804Y023632D01*
X038866Y023755D02*
X039051Y023755D01*
X039051Y023879D02*
X038990Y023940D01*
X038866Y023940D01*
X038804Y023879D01*
X038804Y023817D01*
X038866Y023755D01*
X038683Y023940D02*
X038436Y023940D01*
X038315Y023940D02*
X038315Y023632D01*
X038253Y023570D01*
X038130Y023570D01*
X038068Y023632D01*
X038068Y023940D01*
X037946Y023879D02*
X037885Y023940D01*
X037761Y023940D01*
X037699Y023879D01*
X037699Y023632D01*
X037761Y023570D01*
X037885Y023570D01*
X037946Y023632D01*
X037946Y023879D01*
X038560Y023940D02*
X038560Y023570D01*
X037502Y023397D02*
X037440Y023459D01*
X037317Y023459D01*
X037255Y023397D01*
X037255Y023336D01*
X037317Y023274D01*
X037502Y023274D01*
X037502Y023397D02*
X037502Y023150D01*
X037440Y023089D01*
X037317Y023089D01*
X037255Y023150D01*
X037134Y023150D02*
X037134Y023397D01*
X037072Y023459D01*
X036887Y023459D01*
X036887Y023089D01*
X037072Y023089D01*
X037134Y023150D01*
X035051Y023632D02*
X034990Y023570D01*
X034866Y023570D01*
X034804Y023632D01*
X034804Y023693D01*
X034866Y023755D01*
X034990Y023755D01*
X035051Y023693D01*
X035051Y023632D01*
X034990Y023755D02*
X035051Y023817D01*
X035051Y023879D01*
X034990Y023940D01*
X034866Y023940D01*
X034804Y023879D01*
X034804Y023817D01*
X034866Y023755D01*
X034683Y023940D02*
X034436Y023940D01*
X034315Y023940D02*
X034315Y023632D01*
X034253Y023570D01*
X034130Y023570D01*
X034068Y023632D01*
X034068Y023940D01*
X033946Y023879D02*
X033885Y023940D01*
X033761Y023940D01*
X033699Y023879D01*
X033699Y023632D01*
X033761Y023570D01*
X033885Y023570D01*
X033946Y023632D01*
X033946Y023879D01*
X034560Y023940D02*
X034560Y023570D01*
X033502Y023397D02*
X033502Y023336D01*
X033440Y023274D01*
X033317Y023274D01*
X033255Y023336D01*
X033255Y023397D01*
X033317Y023459D01*
X033440Y023459D01*
X033502Y023397D01*
X033440Y023274D02*
X033502Y023212D01*
X033502Y023150D01*
X033440Y023089D01*
X033317Y023089D01*
X033255Y023150D01*
X033255Y023212D01*
X033317Y023274D01*
X033134Y023397D02*
X033072Y023459D01*
X032887Y023459D01*
X032887Y023089D01*
X033072Y023089D01*
X033134Y023150D01*
X033134Y023397D01*
X031051Y023879D02*
X030804Y023632D01*
X030804Y023570D01*
X030560Y023570D02*
X030560Y023940D01*
X030683Y023940D02*
X030436Y023940D01*
X030315Y023940D02*
X030315Y023632D01*
X030253Y023570D01*
X030130Y023570D01*
X030068Y023632D01*
X030068Y023940D01*
X029946Y023879D02*
X029885Y023940D01*
X029761Y023940D01*
X029699Y023879D01*
X029699Y023632D01*
X029761Y023570D01*
X029885Y023570D01*
X029946Y023632D01*
X029946Y023879D01*
X029502Y023459D02*
X029502Y023397D01*
X029255Y023150D01*
X029255Y023089D01*
X029134Y023150D02*
X029134Y023397D01*
X029072Y023459D01*
X028887Y023459D01*
X028887Y023089D01*
X029072Y023089D01*
X029134Y023150D01*
X029255Y023459D02*
X029502Y023459D01*
X030804Y023940D02*
X031051Y023940D01*
X031051Y023879D01*
X027051Y023940D02*
X026928Y023879D01*
X026804Y023755D01*
X026990Y023755D01*
X027051Y023693D01*
X027051Y023632D01*
X026990Y023570D01*
X026866Y023570D01*
X026804Y023632D01*
X026804Y023755D01*
X026683Y023940D02*
X026436Y023940D01*
X026315Y023940D02*
X026315Y023632D01*
X026253Y023570D01*
X026130Y023570D01*
X026068Y023632D01*
X026068Y023940D01*
X025946Y023879D02*
X025885Y023940D01*
X025761Y023940D01*
X025699Y023879D01*
X025699Y023632D01*
X025761Y023570D01*
X025885Y023570D01*
X025946Y023632D01*
X025946Y023879D01*
X025502Y023459D02*
X025379Y023397D01*
X025255Y023274D01*
X025440Y023274D01*
X025502Y023212D01*
X025502Y023150D01*
X025440Y023089D01*
X025317Y023089D01*
X025255Y023150D01*
X025255Y023274D01*
X025134Y023397D02*
X025072Y023459D01*
X024887Y023459D01*
X024887Y023089D01*
X025072Y023089D01*
X025134Y023150D01*
X025134Y023397D01*
X026560Y023570D02*
X026560Y023940D01*
X023051Y023940D02*
X022804Y023940D01*
X022804Y023755D01*
X022928Y023817D01*
X022990Y023817D01*
X023051Y023755D01*
X023051Y023632D01*
X022990Y023570D01*
X022866Y023570D01*
X022804Y023632D01*
X022560Y023570D02*
X022560Y023940D01*
X022683Y023940D02*
X022436Y023940D01*
X022315Y023940D02*
X022315Y023632D01*
X022253Y023570D01*
X022130Y023570D01*
X022068Y023632D01*
X022068Y023940D01*
X021946Y023879D02*
X021885Y023940D01*
X021761Y023940D01*
X021699Y023879D01*
X021699Y023632D01*
X021761Y023570D01*
X021885Y023570D01*
X021946Y023632D01*
X021946Y023879D01*
X021377Y023459D02*
X021130Y023459D01*
X021130Y023274D01*
X021254Y023336D01*
X021315Y023336D01*
X021377Y023274D01*
X021377Y023150D01*
X021315Y023089D01*
X021192Y023089D01*
X021130Y023150D01*
X021009Y023150D02*
X020947Y023089D01*
X020762Y023089D01*
X020762Y023459D01*
X020947Y023459D01*
X021009Y023397D01*
X021009Y023150D01*
X019051Y023755D02*
X018804Y023755D01*
X018990Y023940D01*
X018990Y023570D01*
X018560Y023570D02*
X018560Y023940D01*
X018683Y023940D02*
X018436Y023940D01*
X018315Y023940D02*
X018315Y023632D01*
X018253Y023570D01*
X018130Y023570D01*
X018068Y023632D01*
X018068Y023940D01*
X017946Y023879D02*
X017885Y023940D01*
X017761Y023940D01*
X017699Y023879D01*
X017699Y023632D01*
X017761Y023570D01*
X017885Y023570D01*
X017946Y023632D01*
X017946Y023879D01*
X017565Y023459D02*
X017380Y023274D01*
X017627Y023274D01*
X017565Y023089D02*
X017565Y023459D01*
X017259Y023397D02*
X017197Y023459D01*
X017012Y023459D01*
X017012Y023089D01*
X017197Y023089D01*
X017259Y023150D01*
X017259Y023397D01*
X015051Y023632D02*
X014990Y023570D01*
X014866Y023570D01*
X014804Y023632D01*
X014928Y023755D02*
X014990Y023755D01*
X015051Y023693D01*
X015051Y023632D01*
X014990Y023755D02*
X015051Y023817D01*
X015051Y023879D01*
X014990Y023940D01*
X014866Y023940D01*
X014804Y023879D01*
X014683Y023940D02*
X014436Y023940D01*
X014315Y023940D02*
X014315Y023632D01*
X014253Y023570D01*
X014130Y023570D01*
X014068Y023632D01*
X014068Y023940D01*
X013946Y023879D02*
X013946Y023632D01*
X013885Y023570D01*
X013761Y023570D01*
X013699Y023632D01*
X013699Y023879D01*
X013761Y023940D01*
X013885Y023940D01*
X013946Y023879D01*
X013565Y023459D02*
X013627Y023397D01*
X013627Y023336D01*
X013565Y023274D01*
X013627Y023212D01*
X013627Y023150D01*
X013565Y023089D01*
X013442Y023089D01*
X013380Y023150D01*
X013259Y023150D02*
X013259Y023397D01*
X013197Y023459D01*
X013012Y023459D01*
X013012Y023089D01*
X013197Y023089D01*
X013259Y023150D01*
X013504Y023274D02*
X013565Y023274D01*
X013565Y023459D02*
X013442Y023459D01*
X013380Y023397D01*
X014560Y023570D02*
X014560Y023940D01*
X011051Y023879D02*
X010990Y023940D01*
X010866Y023940D01*
X010804Y023879D01*
X010683Y023940D02*
X010436Y023940D01*
X010315Y023940D02*
X010315Y023632D01*
X010253Y023570D01*
X010130Y023570D01*
X010068Y023632D01*
X010068Y023940D01*
X009946Y023879D02*
X009885Y023940D01*
X009761Y023940D01*
X009699Y023879D01*
X009699Y023632D01*
X009761Y023570D01*
X009885Y023570D01*
X009946Y023632D01*
X009946Y023879D01*
X010560Y023940D02*
X010560Y023570D01*
X010804Y023570D02*
X011051Y023817D01*
X011051Y023879D01*
X011051Y023570D02*
X010804Y023570D01*
X009502Y023397D02*
X009440Y023459D01*
X009317Y023459D01*
X009255Y023397D01*
X009134Y023397D02*
X009072Y023459D01*
X008887Y023459D01*
X008887Y023089D01*
X009072Y023089D01*
X009134Y023150D01*
X009134Y023397D01*
X009255Y023089D02*
X009502Y023336D01*
X009502Y023397D01*
X009502Y023089D02*
X009255Y023089D01*
X007051Y023570D02*
X006804Y023570D01*
X006928Y023570D02*
X006928Y023940D01*
X006804Y023817D01*
X006683Y023940D02*
X006436Y023940D01*
X006315Y023940D02*
X006315Y023632D01*
X006253Y023570D01*
X006130Y023570D01*
X006068Y023632D01*
X006068Y023940D01*
X005946Y023879D02*
X005885Y023940D01*
X005761Y023940D01*
X005699Y023879D01*
X005699Y023632D01*
X005761Y023570D01*
X005885Y023570D01*
X005946Y023632D01*
X005946Y023879D01*
X006560Y023940D02*
X006560Y023570D01*
X041695Y007190D02*
X041695Y006820D01*
X041695Y006943D02*
X041880Y006943D01*
X041942Y007005D01*
X041942Y007129D01*
X041880Y007190D01*
X041695Y007190D01*
X041818Y006943D02*
X041942Y006820D01*
X042063Y006820D02*
X042310Y007067D01*
X042310Y007129D01*
X042248Y007190D01*
X042125Y007190D01*
X042063Y007129D01*
X042063Y006820D02*
X042310Y006820D01*
X042432Y006882D02*
X042493Y006820D01*
X042617Y006820D01*
X042679Y006882D01*
X042679Y006943D01*
X042617Y007005D01*
X042432Y007005D01*
X042432Y006882D01*
X042432Y007005D02*
X042555Y007129D01*
X042679Y007190D01*
X045348Y006055D02*
X045348Y005685D01*
X045595Y005685D02*
X045348Y006055D01*
X045595Y006055D02*
X045595Y005685D01*
X045717Y005685D02*
X045840Y005685D01*
X045778Y005685D02*
X045778Y006055D01*
X045717Y006055D02*
X045840Y006055D01*
X045961Y005870D02*
X046208Y005870D01*
X046330Y005932D02*
X046330Y005685D01*
X046330Y005932D02*
X046453Y006055D01*
X046577Y005932D01*
X046577Y005685D01*
X046698Y005746D02*
X046760Y005685D01*
X046883Y005685D01*
X046945Y005746D01*
X046945Y005993D01*
X046883Y006055D01*
X046760Y006055D01*
X046698Y005993D01*
X048070Y005690D02*
X048317Y005690D01*
X048193Y005690D02*
X048193Y005320D01*
X048438Y005320D02*
X048685Y005320D01*
X048562Y005320D02*
X048562Y005690D01*
X048438Y005567D01*
X052084Y006055D02*
X052331Y006055D01*
X052453Y006055D02*
X052577Y006055D01*
X052515Y006055D02*
X052515Y005685D01*
X052577Y005685D02*
X052453Y005685D01*
X052331Y005808D02*
X052208Y005685D01*
X052208Y006055D01*
X052698Y005993D02*
X052698Y005870D01*
X052822Y005870D01*
X052945Y005993D02*
X052883Y006055D01*
X052760Y006055D01*
X052698Y005993D01*
X052698Y005746D02*
X052760Y005685D01*
X052883Y005685D01*
X052945Y005746D01*
X052945Y005993D01*
X051728Y002679D02*
X051790Y002617D01*
X051790Y002493D01*
X051728Y002432D01*
X051667Y002432D01*
X051605Y002493D01*
X051605Y002617D01*
X051667Y002679D01*
X051728Y002679D01*
X051605Y002617D02*
X051543Y002679D01*
X051481Y002679D01*
X051420Y002617D01*
X051420Y002493D01*
X051481Y002432D01*
X051543Y002432D01*
X051605Y002493D01*
X051543Y002310D02*
X051481Y002310D01*
X051420Y002248D01*
X051420Y002125D01*
X051481Y002063D01*
X051481Y001942D02*
X051605Y001942D01*
X051667Y001880D01*
X051667Y001695D01*
X051790Y001695D02*
X051420Y001695D01*
X051420Y001880D01*
X051481Y001942D01*
X051667Y001818D02*
X051790Y001942D01*
X051790Y002063D02*
X051543Y002310D01*
X051790Y002310D02*
X051790Y002063D01*
X052920Y002005D02*
X052920Y001820D01*
X053290Y001820D01*
X053167Y001820D02*
X053167Y002005D01*
X053105Y002067D01*
X052981Y002067D01*
X052920Y002005D01*
X053043Y002188D02*
X052920Y002312D01*
X053290Y002312D01*
X053290Y002435D02*
X053290Y002188D01*
X053290Y002067D02*
X053167Y001943D01*
X050090Y001963D02*
X050090Y002210D01*
X050090Y002087D02*
X049720Y002087D01*
X049843Y001963D01*
X049781Y001842D02*
X049720Y001780D01*
X049720Y001595D01*
X050090Y001595D01*
X050090Y001780D01*
X050028Y001842D01*
X049781Y001842D01*
X049905Y002332D02*
X049905Y002579D01*
X050090Y002517D02*
X049720Y002517D01*
X049905Y002332D01*
X042679Y005629D02*
X042432Y005382D01*
X042432Y005320D01*
X042310Y005320D02*
X042063Y005320D01*
X042310Y005567D01*
X042310Y005629D01*
X042248Y005690D01*
X042125Y005690D01*
X042063Y005629D01*
X041942Y005629D02*
X041942Y005505D01*
X041880Y005443D01*
X041695Y005443D01*
X041695Y005320D02*
X041695Y005690D01*
X041880Y005690D01*
X041942Y005629D01*
X041818Y005443D02*
X041942Y005320D01*
X042432Y005690D02*
X042679Y005690D01*
X042679Y005629D01*
D15*
X049930Y003900D03*
D16*
X035568Y010671D02*
X035262Y010671D01*
X035415Y010671D02*
X035415Y011132D01*
X035262Y010978D01*
X035108Y011132D02*
X035108Y010671D01*
X034955Y010825D01*
X034801Y010671D01*
X034801Y011132D01*
X034648Y011055D02*
X034571Y011132D01*
X034417Y011132D01*
X034341Y011055D01*
X034341Y010978D01*
X034417Y010902D01*
X034571Y010902D01*
X034648Y010825D01*
X034648Y010748D01*
X034571Y010671D01*
X034417Y010671D01*
X034341Y010748D01*
X026848Y010700D02*
X026542Y010700D01*
X026848Y011007D01*
X026848Y011084D01*
X026772Y011160D01*
X026618Y011160D01*
X026542Y011084D01*
X026388Y011084D02*
X026388Y011007D01*
X026311Y010930D01*
X026388Y010853D01*
X026388Y010777D01*
X026311Y010700D01*
X026158Y010700D01*
X026081Y010777D01*
X025928Y010700D02*
X025621Y011160D01*
X025467Y011084D02*
X025391Y011160D01*
X025237Y011160D01*
X025160Y011084D01*
X025160Y011007D01*
X025237Y010930D01*
X025391Y010930D01*
X025467Y010853D01*
X025467Y010777D01*
X025391Y010700D01*
X025237Y010700D01*
X025160Y010777D01*
X025160Y010853D01*
X025237Y010930D01*
X025391Y010930D02*
X025467Y011007D01*
X025467Y011084D01*
X025621Y010700D02*
X025928Y011160D01*
X026081Y011084D02*
X026158Y011160D01*
X026311Y011160D01*
X026388Y011084D01*
X026311Y010930D02*
X026235Y010930D01*
X025007Y011007D02*
X024700Y010700D01*
X025007Y010700D01*
X025007Y011007D02*
X025007Y011084D01*
X024930Y011160D01*
X024777Y011160D01*
X024700Y011084D01*
X024393Y011160D02*
X024393Y010700D01*
X024240Y010700D02*
X024547Y010700D01*
X024240Y011007D02*
X024393Y011160D01*
X024086Y011084D02*
X024009Y011160D01*
X023779Y011160D01*
X023779Y010700D01*
X024009Y010700D01*
X024086Y010777D01*
X024086Y011084D01*
X023626Y011160D02*
X023319Y011160D01*
X023319Y010700D01*
X023626Y010700D01*
X023472Y010930D02*
X023319Y010930D01*
X023165Y010700D02*
X022858Y010700D01*
X022858Y011160D01*
X022705Y011084D02*
X022628Y011160D01*
X022475Y011160D01*
X022398Y011084D01*
X022398Y010777D01*
X022475Y010700D01*
X022628Y010700D01*
X022705Y010777D01*
X022705Y011084D01*
X022160Y019200D02*
X021700Y019200D01*
X021853Y019353D01*
X021700Y019507D01*
X022160Y019507D01*
X022083Y019660D02*
X022160Y019737D01*
X022160Y019891D01*
X022083Y019967D01*
X021776Y019967D01*
X021700Y019891D01*
X021700Y019737D01*
X021776Y019660D01*
X022083Y019660D01*
X022083Y020121D02*
X022160Y020198D01*
X022160Y020351D01*
X022083Y020428D01*
X022007Y020428D01*
X021930Y020351D01*
X021930Y020198D01*
X021853Y020121D01*
X021776Y020121D01*
X021700Y020198D01*
X021700Y020351D01*
X021776Y020428D01*
X021853Y020581D02*
X021700Y020735D01*
X021853Y020888D01*
X022160Y020888D01*
X022083Y021042D02*
X022160Y021118D01*
X022160Y021272D01*
X022083Y021348D01*
X021930Y021348D01*
X021853Y021272D01*
X021853Y021195D01*
X021930Y021042D01*
X021700Y021042D01*
X021700Y021348D01*
X021930Y020888D02*
X021930Y020581D01*
X021853Y020581D02*
X022160Y020581D01*
X018160Y020581D02*
X017853Y020581D01*
X017700Y020735D01*
X017853Y020888D01*
X018160Y020888D01*
X017930Y020888D02*
X017930Y020581D01*
X018007Y020428D02*
X018083Y020428D01*
X018160Y020351D01*
X018160Y020198D01*
X018083Y020121D01*
X018083Y019967D02*
X017776Y019967D01*
X017700Y019891D01*
X017700Y019737D01*
X017776Y019660D01*
X018083Y019660D01*
X018160Y019737D01*
X018160Y019891D01*
X018083Y019967D01*
X017853Y020121D02*
X017930Y020198D01*
X017930Y020351D01*
X018007Y020428D01*
X017776Y020428D02*
X017700Y020351D01*
X017700Y020198D01*
X017776Y020121D01*
X017853Y020121D01*
X017700Y019507D02*
X018160Y019507D01*
X017853Y019353D02*
X017700Y019507D01*
X017853Y019353D02*
X017700Y019200D01*
X018160Y019200D01*
X017930Y021042D02*
X017930Y021348D01*
X018160Y021272D02*
X017700Y021272D01*
X017930Y021042D01*
X014160Y021118D02*
X014083Y021042D01*
X014160Y021118D02*
X014160Y021272D01*
X014083Y021348D01*
X014007Y021348D01*
X013930Y021272D01*
X013930Y021195D01*
X013930Y021272D02*
X013853Y021348D01*
X013776Y021348D01*
X013700Y021272D01*
X013700Y021118D01*
X013776Y021042D01*
X013853Y020888D02*
X014160Y020888D01*
X013930Y020888D02*
X013930Y020581D01*
X013853Y020581D02*
X013700Y020735D01*
X013853Y020888D01*
X013853Y020581D02*
X014160Y020581D01*
X014083Y020428D02*
X014160Y020351D01*
X014160Y020198D01*
X014083Y020121D01*
X014083Y019967D02*
X013776Y019967D01*
X013700Y019891D01*
X013700Y019737D01*
X013776Y019660D01*
X014083Y019660D01*
X014160Y019737D01*
X014160Y019891D01*
X014083Y019967D01*
X013853Y020121D02*
X013930Y020198D01*
X013930Y020351D01*
X014007Y020428D01*
X014083Y020428D01*
X013776Y020428D02*
X013700Y020351D01*
X013700Y020198D01*
X013776Y020121D01*
X013853Y020121D01*
X013700Y019507D02*
X014160Y019507D01*
X013853Y019353D02*
X013700Y019507D01*
X013853Y019353D02*
X013700Y019200D01*
X014160Y019200D01*
X010160Y019200D02*
X009700Y019200D01*
X009853Y019353D01*
X009700Y019507D01*
X010160Y019507D01*
X010083Y019660D02*
X010160Y019737D01*
X010160Y019891D01*
X010083Y019967D01*
X009776Y019967D01*
X009700Y019891D01*
X009700Y019737D01*
X009776Y019660D01*
X010083Y019660D01*
X010083Y020121D02*
X010160Y020198D01*
X010160Y020351D01*
X010083Y020428D01*
X010007Y020428D01*
X009930Y020351D01*
X009930Y020198D01*
X009853Y020121D01*
X009776Y020121D01*
X009700Y020198D01*
X009700Y020351D01*
X009776Y020428D01*
X009853Y020581D02*
X009700Y020735D01*
X009853Y020888D01*
X010160Y020888D01*
X010160Y021042D02*
X009853Y021348D01*
X009776Y021348D01*
X009700Y021272D01*
X009700Y021118D01*
X009776Y021042D01*
X009930Y020888D02*
X009930Y020581D01*
X009853Y020581D02*
X010160Y020581D01*
X010160Y021042D02*
X010160Y021348D01*
X006160Y021348D02*
X006160Y021042D01*
X006160Y021195D02*
X005700Y021195D01*
X005853Y021042D01*
X005853Y020888D02*
X005700Y020735D01*
X005853Y020581D01*
X006160Y020581D01*
X006083Y020428D02*
X006160Y020351D01*
X006160Y020198D01*
X006083Y020121D01*
X006083Y019967D02*
X005776Y019967D01*
X005700Y019891D01*
X005700Y019737D01*
X005776Y019660D01*
X006083Y019660D01*
X006160Y019737D01*
X006160Y019891D01*
X006083Y019967D01*
X005853Y020121D02*
X005776Y020121D01*
X005700Y020198D01*
X005700Y020351D01*
X005776Y020428D01*
X005930Y020351D02*
X005930Y020198D01*
X005853Y020121D01*
X005930Y020351D02*
X006007Y020428D01*
X006083Y020428D01*
X005930Y020581D02*
X005930Y020888D01*
X005853Y020888D02*
X006160Y020888D01*
X006160Y019507D02*
X005700Y019507D01*
X005853Y019353D01*
X005700Y019200D01*
X006160Y019200D01*
X005835Y022263D02*
X005835Y022444D01*
X005775Y022504D01*
X005535Y022504D01*
X005475Y022444D01*
X005475Y022263D01*
X005835Y022263D01*
X005835Y022632D02*
X005835Y022872D01*
X005835Y022752D02*
X005475Y022752D01*
X005595Y022632D01*
X002792Y023450D02*
X002485Y023450D01*
X002639Y023450D02*
X002639Y023910D01*
X002485Y023757D01*
X002332Y023910D02*
X002025Y023910D01*
X002178Y023910D02*
X002178Y023450D01*
X001871Y023450D02*
X001871Y023757D01*
X001718Y023910D01*
X001564Y023757D01*
X001564Y023450D01*
X001411Y023527D02*
X001334Y023450D01*
X001104Y023450D01*
X001104Y023910D01*
X001334Y023910D01*
X001411Y023834D01*
X001411Y023757D01*
X001334Y023680D01*
X001104Y023680D01*
X001334Y023680D02*
X001411Y023603D01*
X001411Y023527D01*
X001564Y023680D02*
X001871Y023680D01*
X001140Y013967D02*
X001140Y013660D01*
X001140Y013814D02*
X000680Y013814D01*
X000833Y013660D01*
X000680Y013507D02*
X001063Y013507D01*
X001140Y013430D01*
X001140Y013277D01*
X001063Y013200D01*
X000680Y013200D01*
X025700Y019200D02*
X025853Y019353D01*
X025700Y019507D01*
X026160Y019507D01*
X026083Y019660D02*
X026160Y019737D01*
X026160Y019891D01*
X026083Y019967D01*
X025776Y019967D01*
X025700Y019891D01*
X025700Y019737D01*
X025776Y019660D01*
X026083Y019660D01*
X026083Y020121D02*
X026160Y020198D01*
X026160Y020351D01*
X026083Y020428D01*
X026007Y020428D01*
X025930Y020351D01*
X025930Y020198D01*
X025853Y020121D01*
X025776Y020121D01*
X025700Y020198D01*
X025700Y020351D01*
X025776Y020428D01*
X025853Y020581D02*
X025700Y020735D01*
X025853Y020888D01*
X026160Y020888D01*
X026083Y021042D02*
X026160Y021118D01*
X026160Y021272D01*
X026083Y021348D01*
X026007Y021348D01*
X025930Y021272D01*
X025930Y021042D01*
X026083Y021042D01*
X025930Y021042D02*
X025776Y021195D01*
X025700Y021348D01*
X025930Y020888D02*
X025930Y020581D01*
X025853Y020581D02*
X026160Y020581D01*
X026160Y019200D02*
X025700Y019200D01*
X029700Y019200D02*
X029853Y019353D01*
X029700Y019507D01*
X030160Y019507D01*
X030083Y019660D02*
X030160Y019737D01*
X030160Y019891D01*
X030083Y019967D01*
X029776Y019967D01*
X029700Y019891D01*
X029700Y019737D01*
X029776Y019660D01*
X030083Y019660D01*
X030083Y020121D02*
X030160Y020198D01*
X030160Y020351D01*
X030083Y020428D01*
X030007Y020428D01*
X029930Y020351D01*
X029930Y020198D01*
X029853Y020121D01*
X029776Y020121D01*
X029700Y020198D01*
X029700Y020351D01*
X029776Y020428D01*
X029853Y020581D02*
X029700Y020735D01*
X029853Y020888D01*
X030160Y020888D01*
X030160Y021042D02*
X030083Y021042D01*
X029776Y021348D01*
X029700Y021348D01*
X029700Y021042D01*
X029930Y020888D02*
X029930Y020581D01*
X029853Y020581D02*
X030160Y020581D01*
X030160Y019200D02*
X029700Y019200D01*
X033700Y019200D02*
X033853Y019353D01*
X033700Y019507D01*
X034160Y019507D01*
X034083Y019660D02*
X034160Y019737D01*
X034160Y019891D01*
X034083Y019967D01*
X033776Y019967D01*
X033700Y019891D01*
X033700Y019737D01*
X033776Y019660D01*
X034083Y019660D01*
X034083Y020121D02*
X034160Y020198D01*
X034160Y020351D01*
X034083Y020428D01*
X034007Y020428D01*
X033930Y020351D01*
X033930Y020198D01*
X033853Y020121D01*
X033776Y020121D01*
X033700Y020198D01*
X033700Y020351D01*
X033776Y020428D01*
X033853Y020581D02*
X033700Y020735D01*
X033853Y020888D01*
X034160Y020888D01*
X034083Y021042D02*
X034007Y021042D01*
X033930Y021118D01*
X033930Y021272D01*
X034007Y021348D01*
X034083Y021348D01*
X034160Y021272D01*
X034160Y021118D01*
X034083Y021042D01*
X033930Y021118D02*
X033853Y021042D01*
X033776Y021042D01*
X033700Y021118D01*
X033700Y021272D01*
X033776Y021348D01*
X033853Y021348D01*
X033930Y021272D01*
X033930Y020888D02*
X033930Y020581D01*
X033853Y020581D02*
X034160Y020581D01*
X034160Y019200D02*
X033700Y019200D01*
X037700Y019200D02*
X037853Y019353D01*
X037700Y019507D01*
X038160Y019507D01*
X038083Y019660D02*
X038160Y019737D01*
X038160Y019891D01*
X038083Y019967D01*
X037776Y019967D01*
X037700Y019891D01*
X037700Y019737D01*
X037776Y019660D01*
X038083Y019660D01*
X038083Y020121D02*
X038160Y020198D01*
X038160Y020351D01*
X038083Y020428D01*
X038007Y020428D01*
X037930Y020351D01*
X037930Y020198D01*
X037853Y020121D01*
X037776Y020121D01*
X037700Y020198D01*
X037700Y020351D01*
X037776Y020428D01*
X037853Y020581D02*
X037700Y020735D01*
X037853Y020888D01*
X038160Y020888D01*
X038083Y021042D02*
X038160Y021118D01*
X038160Y021272D01*
X038083Y021348D01*
X037776Y021348D01*
X037700Y021272D01*
X037700Y021118D01*
X037776Y021042D01*
X037853Y021042D01*
X037930Y021118D01*
X037930Y021348D01*
X037930Y020888D02*
X037930Y020581D01*
X037853Y020581D02*
X038160Y020581D01*
X038160Y019200D02*
X037700Y019200D01*
X041700Y019200D02*
X041853Y019353D01*
X041700Y019507D01*
X042160Y019507D01*
X042083Y019660D02*
X042160Y019737D01*
X042160Y019891D01*
X042083Y019967D01*
X041776Y019967D01*
X041700Y019891D01*
X041700Y019737D01*
X041776Y019660D01*
X042083Y019660D01*
X042083Y020121D02*
X042160Y020198D01*
X042160Y020351D01*
X042083Y020428D01*
X042007Y020428D01*
X041930Y020351D01*
X041930Y020198D01*
X041853Y020121D01*
X041776Y020121D01*
X041700Y020198D01*
X041700Y020351D01*
X041776Y020428D01*
X041853Y020581D02*
X041700Y020735D01*
X041853Y020888D01*
X042160Y020888D01*
X042160Y021042D02*
X042160Y021348D01*
X042160Y021195D02*
X041700Y021195D01*
X041853Y021042D01*
X041930Y020888D02*
X041930Y020581D01*
X041853Y020581D02*
X042160Y020581D01*
X042083Y021502D02*
X041776Y021502D01*
X041700Y021579D01*
X041700Y021732D01*
X041776Y021809D01*
X042083Y021502D01*
X042160Y021579D01*
X042160Y021732D01*
X042083Y021809D01*
X041776Y021809D01*
X045700Y021655D02*
X046160Y021655D01*
X046160Y021502D02*
X046160Y021809D01*
X045853Y021502D02*
X045700Y021655D01*
X045700Y021195D02*
X046160Y021195D01*
X046160Y021042D02*
X046160Y021348D01*
X045853Y021042D02*
X045700Y021195D01*
X045853Y020888D02*
X046160Y020888D01*
X045930Y020888D02*
X045930Y020581D01*
X045853Y020581D02*
X045700Y020735D01*
X045853Y020888D01*
X045853Y020581D02*
X046160Y020581D01*
X046083Y020428D02*
X046160Y020351D01*
X046160Y020198D01*
X046083Y020121D01*
X046083Y019967D02*
X045776Y019967D01*
X045700Y019891D01*
X045700Y019737D01*
X045776Y019660D01*
X046083Y019660D01*
X046160Y019737D01*
X046160Y019891D01*
X046083Y019967D01*
X045853Y020121D02*
X045930Y020198D01*
X045930Y020351D01*
X046007Y020428D01*
X046083Y020428D01*
X045776Y020428D02*
X045700Y020351D01*
X045700Y020198D01*
X045776Y020121D01*
X045853Y020121D01*
X045700Y019507D02*
X046160Y019507D01*
X045853Y019353D02*
X045700Y019507D01*
X045853Y019353D02*
X045700Y019200D01*
X046160Y019200D01*
X049700Y019200D02*
X049853Y019353D01*
X049700Y019507D01*
X050160Y019507D01*
X050083Y019660D02*
X050160Y019737D01*
X050160Y019891D01*
X050083Y019967D01*
X049776Y019967D01*
X049700Y019891D01*
X049700Y019737D01*
X049776Y019660D01*
X050083Y019660D01*
X050083Y020121D02*
X050160Y020198D01*
X050160Y020351D01*
X050083Y020428D01*
X050007Y020428D01*
X049930Y020351D01*
X049930Y020198D01*
X049853Y020121D01*
X049776Y020121D01*
X049700Y020198D01*
X049700Y020351D01*
X049776Y020428D01*
X049853Y020581D02*
X049700Y020735D01*
X049853Y020888D01*
X050160Y020888D01*
X050160Y021042D02*
X050160Y021348D01*
X050160Y021195D02*
X049700Y021195D01*
X049853Y021042D01*
X049930Y020888D02*
X049930Y020581D01*
X049853Y020581D02*
X050160Y020581D01*
X050160Y021502D02*
X049853Y021809D01*
X049776Y021809D01*
X049700Y021732D01*
X049700Y021579D01*
X049776Y021502D01*
X050160Y021502D02*
X050160Y021809D01*
X050160Y019200D02*
X049700Y019200D01*
X042160Y019200D02*
X041700Y019200D01*
D17*
X018929Y009227D02*
X018929Y009040D01*
X018929Y009180D02*
X018742Y009180D01*
X018742Y009227D02*
X018742Y009040D01*
X018653Y009087D02*
X018653Y009274D01*
X018606Y009320D01*
X018466Y009320D01*
X018466Y009040D01*
X018606Y009040D01*
X018653Y009087D01*
X018742Y009227D02*
X018836Y009320D01*
X018929Y009227D01*
X018377Y009274D02*
X018330Y009320D01*
X018237Y009320D01*
X018190Y009274D01*
X018190Y009227D01*
X018237Y009180D01*
X018330Y009180D01*
X018377Y009133D01*
X018377Y009087D01*
X018330Y009040D01*
X018237Y009040D01*
X018190Y009087D01*
X018237Y008320D02*
X018190Y008274D01*
X018190Y008227D01*
X018237Y008180D01*
X018330Y008180D01*
X018377Y008133D01*
X018377Y008087D01*
X018330Y008040D01*
X018237Y008040D01*
X018190Y008087D01*
X018237Y008320D02*
X018330Y008320D01*
X018377Y008274D01*
X018466Y008274D02*
X018466Y008087D01*
X018513Y008040D01*
X018606Y008040D01*
X018653Y008087D01*
X018742Y008040D02*
X018929Y008040D01*
X018742Y008040D02*
X018742Y008320D01*
X018653Y008274D02*
X018606Y008320D01*
X018513Y008320D01*
X018466Y008274D01*
X018513Y007320D02*
X018466Y007274D01*
X018466Y007087D01*
X018513Y007040D01*
X018606Y007040D01*
X018653Y007087D01*
X018742Y007087D02*
X018742Y007274D01*
X018789Y007320D01*
X018883Y007320D01*
X018929Y007274D01*
X018929Y007087D02*
X018883Y007040D01*
X018789Y007040D01*
X018742Y007087D01*
X018653Y007274D02*
X018606Y007320D01*
X018513Y007320D01*
X018377Y007320D02*
X018377Y007133D01*
X018283Y007040D01*
X018190Y007133D01*
X018190Y007320D01*
X018237Y006320D02*
X018190Y006274D01*
X018190Y006087D01*
X018237Y006040D01*
X018330Y006040D01*
X018377Y006087D01*
X018377Y006180D01*
X018283Y006180D01*
X018377Y006274D02*
X018330Y006320D01*
X018237Y006320D01*
X018466Y006320D02*
X018653Y006040D01*
X018653Y006320D01*
X018742Y006320D02*
X018742Y006040D01*
X018883Y006040D01*
X018929Y006087D01*
X018929Y006274D01*
X018883Y006320D01*
X018742Y006320D01*
X018466Y006320D02*
X018466Y006040D01*
D18*
X019680Y019140D03*
X015680Y019140D03*
X011680Y019140D03*
X007680Y019140D03*
X023680Y019140D03*
X027680Y019140D03*
X031680Y019140D03*
X035680Y019140D03*
X039680Y019140D03*
X043680Y019140D03*
X047680Y019140D03*
X051680Y019140D03*
D19*
X005055Y021730D03*
D20*
X005055Y022355D03*
X005055Y020005D03*
M02*
